%TF.GenerationSoftware,KiCad,Pcbnew,9.0.6*%
%TF.CreationDate,2026-05-20T01:10:37+05:30*%
%TF.ProjectId,bio-microcontroller,62696f2d-6d69-4637-926f-636f6e74726f,rev?*%
%TF.SameCoordinates,Original*%
%TF.FileFunction,Soldermask,Bot*%
%TF.FilePolarity,Negative*%
%FSLAX46Y46*%
G04 Gerber Fmt 4.6, Leading zero omitted, Abs format (unit mm)*
G04 Created by KiCad (PCBNEW 9.0.6) date 2026-05-20 01:10:37*
%MOMM*%
%LPD*%
G01*
G04 APERTURE LIST*
G04 Aperture macros list*
%AMFreePoly0*
4,1,23,0.500000,-0.750000,0.000000,-0.750000,0.000000,-0.745722,-0.065263,-0.745722,-0.191342,-0.711940,-0.304381,-0.646677,-0.396677,-0.554381,-0.461940,-0.441342,-0.495722,-0.315263,-0.495722,-0.250000,-0.500000,-0.250000,-0.500000,0.250000,-0.495722,0.250000,-0.495722,0.315263,-0.461940,0.441342,-0.396677,0.554381,-0.304381,0.646677,-0.191342,0.711940,-0.065263,0.745722,0.000000,0.745722,
0.000000,0.750000,0.500000,0.750000,0.500000,-0.750000,0.500000,-0.750000,$1*%
%AMFreePoly1*
4,1,23,0.000000,0.745722,0.065263,0.745722,0.191342,0.711940,0.304381,0.646677,0.396677,0.554381,0.461940,0.441342,0.495722,0.315263,0.495722,0.250000,0.500000,0.250000,0.500000,-0.250000,0.495722,-0.250000,0.495722,-0.315263,0.461940,-0.441342,0.396677,-0.554381,0.304381,-0.646677,0.191342,-0.711940,0.065263,-0.745722,0.000000,-0.745722,0.000000,-0.750000,-0.500000,-0.750000,
-0.500000,0.750000,0.000000,0.750000,0.000000,0.745722,0.000000,0.745722,$1*%
%AMFreePoly2*
4,1,23,0.000000,0.745722,0.065263,0.745722,0.191342,0.711940,0.304381,0.646677,0.396677,0.554381,0.461940,0.441342,0.495722,0.315263,0.495722,0.250000,0.500000,0.250000,0.500000,-0.250000,0.495722,-0.250000,0.495722,-0.315263,0.461940,-0.441342,0.396677,-0.554381,0.304381,-0.646677,0.191342,-0.711940,0.065263,-0.745722,0.000000,-0.745722,0.000000,-0.750000,-0.550000,-0.750000,
-0.550000,0.750000,0.000000,0.750000,0.000000,0.745722,0.000000,0.745722,$1*%
%AMFreePoly3*
4,1,23,0.550000,-0.750000,0.000000,-0.750000,0.000000,-0.745722,-0.065263,-0.745722,-0.191342,-0.711940,-0.304381,-0.646677,-0.396677,-0.554381,-0.461940,-0.441342,-0.495722,-0.315263,-0.495722,-0.250000,-0.500000,-0.250000,-0.500000,0.250000,-0.495722,0.250000,-0.495722,0.315263,-0.461940,0.441342,-0.396677,0.554381,-0.304381,0.646677,-0.191342,0.711940,-0.065263,0.745722,0.000000,0.745722,
0.000000,0.750000,0.550000,0.750000,0.550000,-0.750000,0.550000,-0.750000,$1*%
G04 Aperture macros list end*
%ADD10FreePoly0,0.000000*%
%ADD11FreePoly1,0.000000*%
%ADD12FreePoly2,90.000000*%
%ADD13R,1.500000X1.000000*%
%ADD14FreePoly3,90.000000*%
%ADD15FreePoly0,180.000000*%
%ADD16FreePoly1,180.000000*%
%ADD17R,1.700000X1.700000*%
%ADD18C,1.700000*%
%ADD19O,2.100000X1.000000*%
%ADD20O,1.800000X1.000000*%
G04 APERTURE END LIST*
%TO.C,JP3*%
G36*
X147231200Y-108827000D02*
G01*
X147531200Y-108827000D01*
X147531200Y-107327000D01*
X147231200Y-107327000D01*
X147231200Y-108827000D01*
G37*
%TO.C,JP4*%
G36*
X145885600Y-115655000D02*
G01*
X144385600Y-115655000D01*
X144385600Y-114155000D01*
X145885600Y-114155000D01*
X145885600Y-115655000D01*
G37*
%TO.C,JP2*%
G36*
X154795600Y-106793600D02*
G01*
X154495600Y-106793600D01*
X154495600Y-108293600D01*
X154795600Y-108293600D01*
X154795600Y-106793600D01*
G37*
%TO.C,JP1*%
G36*
X150584000Y-108598400D02*
G01*
X150884000Y-108598400D01*
X150884000Y-107098400D01*
X150584000Y-107098400D01*
X150584000Y-108598400D01*
G37*
%TD*%
D10*
%TO.C,JP3*%
X146731200Y-108077000D03*
D11*
X148031200Y-108077000D03*
%TD*%
D12*
%TO.C,JP4*%
X145135600Y-113605000D03*
D13*
X145135600Y-114905000D03*
D14*
X145135600Y-116205000D03*
%TD*%
D15*
%TO.C,JP2*%
X155295600Y-107543600D03*
D16*
X153995600Y-107543600D03*
%TD*%
D10*
%TO.C,JP1*%
X150084000Y-107848400D03*
D11*
X151384000Y-107848400D03*
%TD*%
D17*
%TO.C,J5*%
X163435680Y-76878680D03*
D18*
X165975680Y-76878680D03*
X163435680Y-79418680D03*
X165975680Y-79418680D03*
X163435680Y-81958680D03*
X165975680Y-81958680D03*
X163435680Y-84498680D03*
X165975680Y-84498680D03*
X163435680Y-87038680D03*
X165975680Y-87038680D03*
X163435680Y-89578680D03*
X165975680Y-89578680D03*
X163435680Y-92118680D03*
X165975680Y-92118680D03*
X163435680Y-94658680D03*
X165975680Y-94658680D03*
X163435680Y-97198680D03*
X165975680Y-97198680D03*
%TD*%
D17*
%TO.C,J2*%
X130335680Y-76888680D03*
D18*
X132875680Y-76888680D03*
X130335680Y-79428680D03*
X132875680Y-79428680D03*
X130335680Y-81968680D03*
X132875680Y-81968680D03*
X130335680Y-84508680D03*
X132875680Y-84508680D03*
X130335680Y-87048680D03*
X132875680Y-87048680D03*
X130335680Y-89588680D03*
X132875680Y-89588680D03*
X130335680Y-92128680D03*
X132875680Y-92128680D03*
X130335680Y-94668680D03*
X132875680Y-94668680D03*
X130335680Y-97208680D03*
X132875680Y-97208680D03*
%TD*%
D17*
%TO.C,ENB2*%
X154475680Y-123088680D03*
D18*
X151935680Y-123088680D03*
%TD*%
D17*
%TO.C,ENB1*%
X158560680Y-123113680D03*
D18*
X161100680Y-123113680D03*
%TD*%
D17*
%TO.C,J3*%
X166800680Y-101673680D03*
D18*
X164260680Y-101673680D03*
X166800680Y-104213680D03*
X164260680Y-104213680D03*
X166800680Y-106753680D03*
X164260680Y-106753680D03*
X166800680Y-109293680D03*
X164260680Y-109293680D03*
X166800680Y-111833680D03*
X164260680Y-111833680D03*
X166800680Y-114373680D03*
X164260680Y-114373680D03*
X166800680Y-116913680D03*
X164260680Y-116913680D03*
X166800680Y-119453680D03*
X164260680Y-119453680D03*
%TD*%
D17*
%TO.C,J6*%
X129035680Y-120163680D03*
D18*
X129035680Y-117623680D03*
X131575680Y-120163680D03*
X131575680Y-117623680D03*
X134115680Y-120163680D03*
X134115680Y-117623680D03*
%TD*%
D19*
%TO.C,J1*%
X133472480Y-100457680D03*
D20*
X129292480Y-100457680D03*
D19*
X133472480Y-109097680D03*
D20*
X129292480Y-109097680D03*
%TD*%
M02*
