%TF.GenerationSoftware,KiCad,Pcbnew,9.0.6*%
%TF.CreationDate,2026-03-30T20:39:59+05:30*%
%TF.ProjectId,bio-microcontroller,62696f2d-6d69-4637-926f-636f6e74726f,rev?*%
%TF.SameCoordinates,Original*%
%TF.FileFunction,Plated,1,2,PTH,Mixed*%
%TF.FilePolarity,Positive*%
%FSLAX46Y46*%
G04 Gerber Fmt 4.6, Leading zero omitted, Abs format (unit mm)*
G04 Created by KiCad (PCBNEW 9.0.6) date 2026-03-30 20:39:59*
%MOMM*%
%LPD*%
G01*
G04 APERTURE LIST*
%TA.AperFunction,ComponentDrill*%
%ADD10C,0.200000*%
%TD*%
%TA.AperFunction,ViaDrill*%
%ADD11C,0.350000*%
%TD*%
%TA.AperFunction,ViaDrill*%
%ADD12C,0.400000*%
%TD*%
G04 aperture for slot hole*
%TA.AperFunction,ComponentDrill*%
%ADD13C,0.600000*%
%TD*%
%TA.AperFunction,ComponentDrill*%
%ADD14C,1.000000*%
%TD*%
G04 APERTURE END LIST*
D10*
%TO.C,U1*%
X143611480Y-82764080D03*
X143611480Y-84164080D03*
X144311480Y-82064080D03*
X144311480Y-83464080D03*
X144311480Y-84864080D03*
X145011480Y-82764080D03*
X145011480Y-84164080D03*
X145711480Y-82064080D03*
X145711480Y-83464080D03*
X145711480Y-84864080D03*
X146411480Y-82764080D03*
X146411480Y-84164080D03*
%TD*%
D11*
X128897580Y-110317580D03*
X131815680Y-95874180D03*
X134179680Y-98424380D03*
X134260380Y-79022280D03*
X135085580Y-118782280D03*
X136705680Y-114813680D03*
X137057780Y-112784280D03*
X137156580Y-98273580D03*
X138519480Y-93418880D03*
X139175680Y-119683680D03*
X139525680Y-118522580D03*
X139607680Y-89980080D03*
X140235680Y-121113680D03*
X140395680Y-122083680D03*
X141285680Y-114313680D03*
X141491980Y-105873680D03*
X141670280Y-89776880D03*
X141865680Y-113323680D03*
X142206180Y-107313180D03*
X142345680Y-91903680D03*
X143205680Y-114433680D03*
X143415680Y-94893680D03*
X143435680Y-89643680D03*
X143517680Y-102975680D03*
X143543180Y-91732780D03*
X144480280Y-101103980D03*
X145925680Y-95553680D03*
X145932780Y-96563280D03*
X150224980Y-106470680D03*
X150565680Y-109153680D03*
X151107680Y-95012380D03*
X151555680Y-111883680D03*
X151634380Y-110953680D03*
X151638580Y-89561480D03*
X151889380Y-113827180D03*
X152105680Y-115043680D03*
X153691580Y-103458380D03*
X154595680Y-93363680D03*
X154773779Y-116703181D03*
X154835680Y-111733680D03*
X155225680Y-112556680D03*
X155335680Y-113443680D03*
X156168980Y-112432580D03*
X156175680Y-106163680D03*
X156225680Y-114273680D03*
X156241630Y-116177730D03*
X156982930Y-109000930D03*
X157060880Y-108013880D03*
X157195680Y-110383680D03*
X157615680Y-114843680D03*
X157744534Y-115729769D03*
X158345680Y-106103680D03*
X159460380Y-107010880D03*
X160025680Y-116803680D03*
X160346380Y-115788680D03*
X160843130Y-114441130D03*
X161055680Y-116443680D03*
X161205680Y-102873680D03*
X161715680Y-105373680D03*
X161735680Y-117163680D03*
X169505680Y-119992780D03*
D12*
X132125680Y-107838680D03*
X132175680Y-103863680D03*
X132275680Y-102863680D03*
X132775680Y-106613680D03*
X135775680Y-110913680D03*
X136376680Y-106112980D03*
X137025680Y-101663680D03*
X154905680Y-109433680D03*
D13*
%TO.C,J1*%
X128892480Y-100457680D02*
X129692480Y-100457680D01*
X128892480Y-109097680D02*
X129692480Y-109097680D01*
X132922480Y-100457680D02*
X134022480Y-100457680D01*
X132922480Y-109097680D02*
X134022480Y-109097680D01*
D14*
%TO.C,J6*%
X129035680Y-117623680D03*
X129035680Y-120163680D03*
%TO.C,J2*%
X130335680Y-76888680D03*
X130335680Y-79428680D03*
X130335680Y-81968680D03*
X130335680Y-84508680D03*
X130335680Y-87048680D03*
X130335680Y-89588680D03*
X130335680Y-92128680D03*
X130335680Y-94668680D03*
X130335680Y-97208680D03*
%TO.C,J6*%
X131575680Y-117623680D03*
X131575680Y-120163680D03*
%TO.C,J2*%
X132875680Y-76888680D03*
X132875680Y-79428680D03*
X132875680Y-81968680D03*
X132875680Y-84508680D03*
X132875680Y-87048680D03*
X132875680Y-89588680D03*
X132875680Y-92128680D03*
X132875680Y-94668680D03*
X132875680Y-97208680D03*
%TO.C,J6*%
X134115680Y-117623680D03*
X134115680Y-120163680D03*
%TO.C,ENB2*%
X151935680Y-123088680D03*
X154475680Y-123088680D03*
%TO.C,ENB1*%
X158560680Y-123113680D03*
X161100680Y-123113680D03*
%TO.C,J5*%
X163435680Y-76878680D03*
X163435680Y-79418680D03*
X163435680Y-81958680D03*
X163435680Y-84498680D03*
X163435680Y-87038680D03*
X163435680Y-89578680D03*
X163435680Y-92118680D03*
X163435680Y-94658680D03*
X163435680Y-97198680D03*
%TO.C,J3*%
X164260680Y-101673680D03*
X164260680Y-104213680D03*
X164260680Y-106753680D03*
X164260680Y-109293680D03*
X164260680Y-111833680D03*
X164260680Y-114373680D03*
X164260680Y-116913680D03*
X164260680Y-119453680D03*
%TO.C,J5*%
X165975680Y-76878680D03*
X165975680Y-79418680D03*
X165975680Y-81958680D03*
X165975680Y-84498680D03*
X165975680Y-87038680D03*
X165975680Y-89578680D03*
X165975680Y-92118680D03*
X165975680Y-94658680D03*
X165975680Y-97198680D03*
%TO.C,J3*%
X166800680Y-101673680D03*
X166800680Y-104213680D03*
X166800680Y-106753680D03*
X166800680Y-109293680D03*
X166800680Y-111833680D03*
X166800680Y-114373680D03*
X166800680Y-116913680D03*
X166800680Y-119453680D03*
M02*
