%TF.GenerationSoftware,KiCad,Pcbnew,9.0.6*%
%TF.CreationDate,2026-05-20T01:10:37+05:30*%
%TF.ProjectId,bio-microcontroller,62696f2d-6d69-4637-926f-636f6e74726f,rev?*%
%TF.SameCoordinates,Original*%
%TF.FileFunction,Copper,L1,Top*%
%TF.FilePolarity,Positive*%
%FSLAX46Y46*%
G04 Gerber Fmt 4.6, Leading zero omitted, Abs format (unit mm)*
G04 Created by KiCad (PCBNEW 9.0.6) date 2026-05-20 01:10:37*
%MOMM*%
%LPD*%
G01*
G04 APERTURE LIST*
G04 Aperture macros list*
%AMRoundRect*
0 Rectangle with rounded corners*
0 $1 Rounding radius*
0 $2 $3 $4 $5 $6 $7 $8 $9 X,Y pos of 4 corners*
0 Add a 4 corners polygon primitive as box body*
4,1,4,$2,$3,$4,$5,$6,$7,$8,$9,$2,$3,0*
0 Add four circle primitives for the rounded corners*
1,1,$1+$1,$2,$3*
1,1,$1+$1,$4,$5*
1,1,$1+$1,$6,$7*
1,1,$1+$1,$8,$9*
0 Add four rect primitives between the rounded corners*
20,1,$1+$1,$2,$3,$4,$5,0*
20,1,$1+$1,$4,$5,$6,$7,0*
20,1,$1+$1,$6,$7,$8,$9,0*
20,1,$1+$1,$8,$9,$2,$3,0*%
G04 Aperture macros list end*
%TA.AperFunction,SMDPad,CuDef*%
%ADD10RoundRect,0.100000X-0.637500X-0.100000X0.637500X-0.100000X0.637500X0.100000X-0.637500X0.100000X0*%
%TD*%
%TA.AperFunction,HeatsinkPad*%
%ADD11C,0.600000*%
%TD*%
%TA.AperFunction,HeatsinkPad*%
%ADD12R,3.900000X3.900000*%
%TD*%
%TA.AperFunction,SMDPad,CuDef*%
%ADD13R,1.500000X0.900000*%
%TD*%
%TA.AperFunction,SMDPad,CuDef*%
%ADD14R,0.900000X1.500000*%
%TD*%
%TA.AperFunction,ComponentPad*%
%ADD15R,1.700000X1.700000*%
%TD*%
%TA.AperFunction,ComponentPad*%
%ADD16C,1.700000*%
%TD*%
%TA.AperFunction,SMDPad,CuDef*%
%ADD17RoundRect,0.237500X-0.237500X0.250000X-0.237500X-0.250000X0.237500X-0.250000X0.237500X0.250000X0*%
%TD*%
%TA.AperFunction,SMDPad,CuDef*%
%ADD18RoundRect,0.237500X0.250000X0.237500X-0.250000X0.237500X-0.250000X-0.237500X0.250000X-0.237500X0*%
%TD*%
%TA.AperFunction,SMDPad,CuDef*%
%ADD19RoundRect,0.237500X-0.250000X-0.237500X0.250000X-0.237500X0.250000X0.237500X-0.250000X0.237500X0*%
%TD*%
%TA.AperFunction,SMDPad,CuDef*%
%ADD20RoundRect,0.237500X-0.287500X-0.237500X0.287500X-0.237500X0.287500X0.237500X-0.287500X0.237500X0*%
%TD*%
%TA.AperFunction,SMDPad,CuDef*%
%ADD21RoundRect,0.237500X0.300000X0.237500X-0.300000X0.237500X-0.300000X-0.237500X0.300000X-0.237500X0*%
%TD*%
%TA.AperFunction,SMDPad,CuDef*%
%ADD22RoundRect,0.250000X-0.545000X-0.445000X0.545000X-0.445000X0.545000X0.445000X-0.545000X0.445000X0*%
%TD*%
%TA.AperFunction,SMDPad,CuDef*%
%ADD23RoundRect,0.237500X-0.237500X0.300000X-0.237500X-0.300000X0.237500X-0.300000X0.237500X0.300000X0*%
%TD*%
%TA.AperFunction,SMDPad,CuDef*%
%ADD24RoundRect,0.237500X-0.300000X-0.237500X0.300000X-0.237500X0.300000X0.237500X-0.300000X0.237500X0*%
%TD*%
%TA.AperFunction,SMDPad,CuDef*%
%ADD25RoundRect,0.250000X-0.900000X1.000000X-0.900000X-1.000000X0.900000X-1.000000X0.900000X1.000000X0*%
%TD*%
%TA.AperFunction,SMDPad,CuDef*%
%ADD26R,1.000000X1.250000*%
%TD*%
%TA.AperFunction,SMDPad,CuDef*%
%ADD27R,0.250000X1.100000*%
%TD*%
%TA.AperFunction,SMDPad,CuDef*%
%ADD28RoundRect,0.250000X-1.000000X-0.900000X1.000000X-0.900000X1.000000X0.900000X-1.000000X0.900000X0*%
%TD*%
%TA.AperFunction,SMDPad,CuDef*%
%ADD29RoundRect,0.237500X0.237500X-0.250000X0.237500X0.250000X-0.237500X0.250000X-0.237500X-0.250000X0*%
%TD*%
%TA.AperFunction,SMDPad,CuDef*%
%ADD30RoundRect,0.375000X-0.625000X-0.375000X0.625000X-0.375000X0.625000X0.375000X-0.625000X0.375000X0*%
%TD*%
%TA.AperFunction,SMDPad,CuDef*%
%ADD31RoundRect,0.500000X-0.500000X-1.400000X0.500000X-1.400000X0.500000X1.400000X-0.500000X1.400000X0*%
%TD*%
%TA.AperFunction,SMDPad,CuDef*%
%ADD32RoundRect,0.150000X-0.425000X0.150000X-0.425000X-0.150000X0.425000X-0.150000X0.425000X0.150000X0*%
%TD*%
%TA.AperFunction,SMDPad,CuDef*%
%ADD33RoundRect,0.075000X-0.500000X0.075000X-0.500000X-0.075000X0.500000X-0.075000X0.500000X0.075000X0*%
%TD*%
%TA.AperFunction,HeatsinkPad*%
%ADD34O,2.100000X1.000000*%
%TD*%
%TA.AperFunction,HeatsinkPad*%
%ADD35O,1.800000X1.000000*%
%TD*%
%TA.AperFunction,SMDPad,CuDef*%
%ADD36RoundRect,0.225000X-0.250000X0.225000X-0.250000X-0.225000X0.250000X-0.225000X0.250000X0.225000X0*%
%TD*%
%TA.AperFunction,ViaPad*%
%ADD37C,0.680000*%
%TD*%
%TA.AperFunction,ViaPad*%
%ADD38C,0.800000*%
%TD*%
%TA.AperFunction,ViaPad*%
%ADD39C,0.750000*%
%TD*%
%TA.AperFunction,ViaPad*%
%ADD40C,0.670000*%
%TD*%
%TA.AperFunction,ViaPad*%
%ADD41C,0.700000*%
%TD*%
%TA.AperFunction,ViaPad*%
%ADD42C,0.720000*%
%TD*%
%TA.AperFunction,ViaPad*%
%ADD43C,0.730000*%
%TD*%
%TA.AperFunction,Conductor*%
%ADD44C,0.200000*%
%TD*%
%TA.AperFunction,Conductor*%
%ADD45C,0.300000*%
%TD*%
%TA.AperFunction,Conductor*%
%ADD46C,0.400000*%
%TD*%
G04 APERTURE END LIST*
D10*
%TO.P,U3,24,VCC*%
%TO.N,3.3V*%
X159225680Y-108638680D03*
%TO.P,U3,23,SDA*%
%TO.N,Net-(ENB1-Pin_2)*%
X159225680Y-109288680D03*
%TO.P,U3,22,SCL*%
%TO.N,GPIO9*%
X159225680Y-109938680D03*
%TO.P,U3,21,A2*%
%TO.N,Net-(JP1-B)*%
X159225680Y-110588680D03*
%TO.P,U3,20,SC7*%
%TO.N,Net-(J3-Pin_15)*%
X159225680Y-111238680D03*
%TO.P,U3,19,SD7*%
%TO.N,Net-(J3-Pin_16)*%
X159225680Y-111888680D03*
%TO.P,U3,18,SC6*%
%TO.N,Net-(J3-Pin_13)*%
X159225680Y-112538680D03*
%TO.P,U3,17,SD6*%
%TO.N,Net-(J3-Pin_14)*%
X159225680Y-113188680D03*
%TO.P,U3,16,SC5*%
%TO.N,Net-(J3-Pin_11)*%
X159225680Y-113838680D03*
%TO.P,U3,15,SD5*%
%TO.N,Net-(J3-Pin_12)*%
X159225680Y-114488680D03*
%TO.P,U3,14,SC4*%
%TO.N,Net-(J3-Pin_9)*%
X159225680Y-115138680D03*
%TO.P,U3,13,SD4*%
%TO.N,Net-(J3-Pin_10)*%
X159225680Y-115788680D03*
%TO.P,U3,12,GND*%
%TO.N,GND*%
X153500680Y-115788680D03*
%TO.P,U3,11,SC3*%
%TO.N,Net-(J3-Pin_7)*%
X153500680Y-115138680D03*
%TO.P,U3,10,SD3*%
%TO.N,Net-(J3-Pin_8)*%
X153500680Y-114488680D03*
%TO.P,U3,9,SC2*%
%TO.N,Net-(J3-Pin_5)*%
X153500680Y-113838680D03*
%TO.P,U3,8,SD2*%
%TO.N,Net-(J3-Pin_6)*%
X153500680Y-113188680D03*
%TO.P,U3,7,SC1*%
%TO.N,Net-(J3-Pin_3)*%
X153500680Y-112538680D03*
%TO.P,U3,6,SD1*%
%TO.N,Net-(J3-Pin_4)*%
X153500680Y-111888680D03*
%TO.P,U3,5,SC0*%
%TO.N,Net-(J3-Pin_1)*%
X153500680Y-111238680D03*
%TO.P,U3,4,SD0*%
%TO.N,Net-(J3-Pin_2)*%
X153500680Y-110588680D03*
%TO.P,U3,3,~{RESET}*%
%TO.N,Net-(U3-~{RESET})*%
X153500680Y-109938680D03*
%TO.P,U3,2,A1*%
%TO.N,Net-(JP2-B)*%
X153500680Y-109288680D03*
%TO.P,U3,1,A0*%
%TO.N,Net-(JP3-B)*%
X153500680Y-108638680D03*
%TD*%
D11*
%TO.P,U1,41,GND*%
%TO.N,GND*%
X146411480Y-84164080D03*
X146411480Y-82764080D03*
X145711480Y-84864080D03*
X145711480Y-83464080D03*
X145711480Y-82064080D03*
X145011480Y-84164080D03*
D12*
X145011480Y-83464080D03*
D11*
X145011480Y-82764080D03*
X144311480Y-84864080D03*
X144311480Y-83464080D03*
X144311480Y-82064080D03*
X143611480Y-84164080D03*
X143611480Y-82764080D03*
D13*
%TO.P,U1,40,GND*%
X155261480Y-75744080D03*
%TO.P,U1,39,GPIO1/TOUCH1/ADC1_CH0*%
%TO.N,GPIO1*%
X155261480Y-77014080D03*
%TO.P,U1,38,GPIO2/TOUCH2/ADC1_CH1*%
%TO.N,GPIO2*%
X155261480Y-78284080D03*
%TO.P,U1,37,U0TXD/GPIO43/CLK_OUT1*%
%TO.N,GPIO43*%
X155261480Y-79554080D03*
%TO.P,U1,36,U0RXD/GPIO44/CLK_OUT2*%
%TO.N,GPIO44*%
X155261480Y-80824080D03*
%TO.P,U1,35,MTMS/GPIO42*%
%TO.N,GPIO42*%
X155261480Y-82094080D03*
%TO.P,U1,34,MTDI/GPIO41/CLK_OUT1*%
%TO.N,GPIO41*%
X155261480Y-83364080D03*
%TO.P,U1,33,MTDO/GPIO40/CLK_OUT2*%
%TO.N,GPIO40*%
X155261480Y-84634080D03*
%TO.P,U1,32,MTCK/GPIO39/CLK_OUT3/SUBSPICS1*%
%TO.N,GPIO39*%
X155261480Y-85904080D03*
%TO.P,U1,31,GPIO38/FSPIWP/SUBSPIWP*%
%TO.N,GPIO38*%
X155261480Y-87174080D03*
%TO.P,U1,30,SPIDQS/GPIO37/FSPIQ/SUBSPIQ*%
%TO.N,GPIO37*%
X155261480Y-88444080D03*
%TO.P,U1,29,SPIIO7/GPIO36/FSPICLK/SUBSPICLK*%
%TO.N,GPIO36*%
X155261480Y-89714080D03*
%TO.P,U1,28,SPIIO6/GPIO35/FSPID/SUBSPID*%
%TO.N,GPIO35*%
X155261480Y-90984080D03*
%TO.P,U1,27,GPIO0/BOOT*%
%TO.N,BOOT*%
X155261480Y-92254080D03*
D14*
%TO.P,U1,26,GPIO45*%
%TO.N,GPIO45*%
X153496480Y-93504080D03*
%TO.P,U1,25,GPIO48/SPICLK_N/SUBSPICLK_N_DIFF*%
%TO.N,GPIO48*%
X152226480Y-93504080D03*
%TO.P,U1,24,GPIO47/SPICLK_P/SUBSPICLK_P_DIFF*%
%TO.N,GPIO47*%
X150956480Y-93504080D03*
%TO.P,U1,23,GPIO21*%
%TO.N,GPIO21*%
X149686480Y-93504080D03*
%TO.P,U1,22,GPIO14/TOUCH14/ADC2_CH3/FSPIWP/FSPIDQS/SUBSPIWP*%
%TO.N,GPIO14*%
X148416480Y-93504080D03*
%TO.P,U1,21,GPIO13/TOUCH13/ADC2_CH2/FSPIQ/FSPIIO7/SUBSPIQ*%
%TO.N,GPIO13*%
X147146480Y-93504080D03*
%TO.P,U1,20,GPIO12/TOUCH12/ADC2_CH1/FSPICLK/FSPIIO6/SUBSPICLK*%
%TO.N,GPIO12*%
X145876480Y-93504080D03*
%TO.P,U1,19,GPIO11/TOUCH11/ADC2_CH0/FSPID/FSPIIO5/SUBSPID*%
%TO.N,GPIO11*%
X144606480Y-93504080D03*
%TO.P,U1,18,GPIO10/TOUCH10/ADC1_CH9/FSPICS0/FSPIIO4/SUBSPICS0*%
%TO.N,GPIO10*%
X143336480Y-93504080D03*
%TO.P,U1,17,GPIO9/TOUCH9/ADC1_CH8/FSPIHD/SUBSPIHD*%
%TO.N,GPIO9*%
X142066480Y-93504080D03*
%TO.P,U1,16,GPIO46*%
%TO.N,GPIO46*%
X140796480Y-93504080D03*
%TO.P,U1,15,GPIO3/TOUCH3/ADC1_CH2*%
%TO.N,GPIO3*%
X139526480Y-93504080D03*
D13*
%TO.P,U1,14,GPIO20/U1CTS/ADC2_CH9/CLK_OUT1/USB_D+*%
%TO.N,D+*%
X137761480Y-92254080D03*
%TO.P,U1,13,GPIO19/U1RTS/ADC2_CH8/CLK_OUT2/USB_D-*%
%TO.N,D-*%
X137761480Y-90984080D03*
%TO.P,U1,12,GPIO8/TOUCH8/ADC1_CH7/SUBSPICS1*%
%TO.N,GPIO8*%
X137761480Y-89714080D03*
%TO.P,U1,11,GPIO18/U1RXD/ADC2_CH7/CLK_OUT3*%
%TO.N,GPIO18*%
X137761480Y-88444080D03*
%TO.P,U1,10,GPIO17/U1TXD/ADC2_CH6*%
%TO.N,GPIO17*%
X137761480Y-87174080D03*
%TO.P,U1,9,GPIO16/U0CTS/ADC2_CH5/XTAL_32K_N*%
%TO.N,GPIO16*%
X137761480Y-85904080D03*
%TO.P,U1,8,GPIO15/U0RTS/ADC2_CH4/XTAL_32K_P*%
%TO.N,GPIO15*%
X137761480Y-84634080D03*
%TO.P,U1,7,GPIO7/TOUCH7/ADC1_CH6*%
%TO.N,GPIO7*%
X137761480Y-83364080D03*
%TO.P,U1,6,GPIO6/TOUCH6/ADC1_CH5*%
%TO.N,GPIO6*%
X137761480Y-82094080D03*
%TO.P,U1,5,GPIO5/TOUCH5/ADC1_CH4*%
%TO.N,GPIO5*%
X137761480Y-80824080D03*
%TO.P,U1,4,GPIO4/TOUCH4/ADC1_CH3*%
%TO.N,GPIO4*%
X137761480Y-79554080D03*
%TO.P,U1,3,EN*%
%TO.N,EN*%
X137761480Y-78284080D03*
%TO.P,U1,2,3V3*%
%TO.N,3.3V*%
X137761480Y-77014080D03*
%TO.P,U1,1,GND*%
%TO.N,GND*%
X137761480Y-75744080D03*
%TD*%
D15*
%TO.P,J5,1,Pin_1*%
%TO.N,GPIO1*%
X163435680Y-76878680D03*
D16*
%TO.P,J5,2,Pin_2*%
%TO.N,GPIO2*%
X165975680Y-76878680D03*
%TO.P,J5,3,Pin_3*%
%TO.N,GPIO43*%
X163435680Y-79418680D03*
%TO.P,J5,4,Pin_4*%
%TO.N,GPIO44*%
X165975680Y-79418680D03*
%TO.P,J5,5,Pin_5*%
%TO.N,GPIO42*%
X163435680Y-81958680D03*
%TO.P,J5,6,Pin_6*%
%TO.N,GPIO41*%
X165975680Y-81958680D03*
%TO.P,J5,7,Pin_7*%
%TO.N,GPIO40*%
X163435680Y-84498680D03*
%TO.P,J5,8,Pin_8*%
%TO.N,GPIO39*%
X165975680Y-84498680D03*
%TO.P,J5,9,Pin_9*%
%TO.N,GPIO38*%
X163435680Y-87038680D03*
%TO.P,J5,10,Pin_10*%
%TO.N,GPIO37*%
X165975680Y-87038680D03*
%TO.P,J5,11,Pin_11*%
%TO.N,unconnected-(J5-Pin_11-Pad11)*%
X163435680Y-89578680D03*
%TO.P,J5,12,Pin_12*%
%TO.N,unconnected-(J5-Pin_12-Pad12)*%
X165975680Y-89578680D03*
%TO.P,J5,13,Pin_13*%
%TO.N,unconnected-(J5-Pin_13-Pad13)*%
X163435680Y-92118680D03*
%TO.P,J5,14,Pin_14*%
%TO.N,GPIO47*%
X165975680Y-92118680D03*
%TO.P,J5,15,Pin_15*%
%TO.N,GPIO21*%
X163435680Y-94658680D03*
%TO.P,J5,16,Pin_16*%
%TO.N,GND*%
X165975680Y-94658680D03*
%TO.P,J5,17,Pin_17*%
%TO.N,3.3V*%
X163435680Y-97198680D03*
%TO.P,J5,18,Pin_18*%
%TO.N,EN*%
X165975680Y-97198680D03*
%TD*%
D17*
%TO.P,R1,1*%
%TO.N,Net-(J1-CC1)*%
X136025680Y-107338680D03*
%TO.P,R1,2*%
%TO.N,GND*%
X136025680Y-109163680D03*
%TD*%
D18*
%TO.P,R14,1*%
%TO.N,Net-(ENB2-Pin_2)*%
X146450680Y-119963680D03*
%TO.P,R14,2*%
%TO.N,vdd*%
X144625680Y-119963680D03*
%TD*%
D19*
%TO.P,R11,1*%
%TO.N,Net-(JP3-B)*%
X159510680Y-118963680D03*
%TO.P,R11,2*%
%TO.N,GND*%
X161335680Y-118963680D03*
%TD*%
D20*
%TO.P,D6,1,K*%
%TO.N,GND*%
X142950680Y-96413680D03*
%TO.P,D6,2,A*%
%TO.N,Net-(D6-A)*%
X144700680Y-96413680D03*
%TD*%
D17*
%TO.P,R2,1*%
%TO.N,Net-(J1-CC2)*%
X135775680Y-112338680D03*
%TO.P,R2,2*%
%TO.N,GND*%
X135775680Y-114163680D03*
%TD*%
D21*
%TO.P,C9,1*%
%TO.N,3.3V*%
X143375680Y-123363680D03*
%TO.P,C9,2*%
%TO.N,GND*%
X141650680Y-123363680D03*
%TD*%
D18*
%TO.P,R4,1*%
%TO.N,Net-(D6-A)*%
X144775680Y-98163680D03*
%TO.P,R4,2*%
%TO.N,3.3V*%
X142950680Y-98163680D03*
%TD*%
D21*
%TO.P,C4,1*%
%TO.N,Vin*%
X149500680Y-104938680D03*
%TO.P,C4,2*%
%TO.N,GND*%
X147775680Y-104938680D03*
%TD*%
D18*
%TO.P,R8,1*%
%TO.N,Net-(JP1-B)*%
X157585680Y-118963680D03*
%TO.P,R8,2*%
%TO.N,GND*%
X155760680Y-118963680D03*
%TD*%
D15*
%TO.P,J2,1,Pin_1*%
%TO.N,3.3V*%
X130335680Y-76888680D03*
D16*
%TO.P,J2,2,Pin_2*%
%TO.N,GND*%
X132875680Y-76888680D03*
%TO.P,J2,3,Pin_3*%
%TO.N,GPIO4*%
X130335680Y-79428680D03*
%TO.P,J2,4,Pin_4*%
%TO.N,GPIO5*%
X132875680Y-79428680D03*
%TO.P,J2,5,Pin_5*%
%TO.N,GPIO6*%
X130335680Y-81968680D03*
%TO.P,J2,6,Pin_6*%
%TO.N,GPIO7*%
X132875680Y-81968680D03*
%TO.P,J2,7,Pin_7*%
%TO.N,GPIO15*%
X130335680Y-84508680D03*
%TO.P,J2,8,Pin_8*%
%TO.N,GPIO16*%
X132875680Y-84508680D03*
%TO.P,J2,9,Pin_9*%
%TO.N,GPIO17*%
X130335680Y-87048680D03*
%TO.P,J2,10,Pin_10*%
%TO.N,GPIO18*%
X132875680Y-87048680D03*
%TO.P,J2,11,Pin_11*%
%TO.N,GPIO8*%
X130335680Y-89588680D03*
%TO.P,J2,12,Pin_12*%
%TO.N,GPIO3*%
X132875680Y-89588680D03*
%TO.P,J2,13,Pin_13*%
%TO.N,GPIO9*%
X130335680Y-92128680D03*
%TO.P,J2,14,Pin_14*%
%TO.N,GPIO10*%
X132875680Y-92128680D03*
%TO.P,J2,15,Pin_15*%
%TO.N,GPIO11*%
X130335680Y-94668680D03*
%TO.P,J2,16,Pin_16*%
%TO.N,GPIO12*%
X132875680Y-94668680D03*
%TO.P,J2,17,Pin_17*%
%TO.N,GPIO13*%
X130335680Y-97208680D03*
%TO.P,J2,18,Pin_18*%
%TO.N,GPIO14*%
X132875680Y-97208680D03*
%TD*%
D19*
%TO.P,R15,1*%
%TO.N,Net-(J6-Pin_6)*%
X140975680Y-118488680D03*
%TO.P,R15,2*%
%TO.N,vdd*%
X142800680Y-118488680D03*
%TD*%
D15*
%TO.P,ENB2,1,Pin_1*%
%TO.N,GPIO8*%
X154475680Y-123088680D03*
D16*
%TO.P,ENB2,2,Pin_2*%
%TO.N,Net-(ENB2-Pin_2)*%
X151935680Y-123088680D03*
%TD*%
D21*
%TO.P,C6,1*%
%TO.N,EN*%
X146325680Y-117688680D03*
%TO.P,C6,2*%
%TO.N,GND*%
X144600680Y-117688680D03*
%TD*%
D22*
%TO.P,C1,1*%
%TO.N,3.3V*%
X143145680Y-100413680D03*
%TO.P,C1,2*%
%TO.N,GND*%
X146025680Y-100413680D03*
%TD*%
D23*
%TO.P,C2,1*%
%TO.N,3.3V*%
X154975680Y-103813680D03*
%TO.P,C2,2*%
%TO.N,GND*%
X154975680Y-105538680D03*
%TD*%
D15*
%TO.P,ENB1,1,Pin_1*%
%TO.N,GPIO8*%
X158560680Y-123113680D03*
D16*
%TO.P,ENB1,2,Pin_2*%
%TO.N,Net-(ENB1-Pin_2)*%
X161100680Y-123113680D03*
%TD*%
D24*
%TO.P,C8,1*%
%TO.N,Net-(JP4-A)*%
X141575680Y-121763680D03*
%TO.P,C8,2*%
%TO.N,3.3V*%
X143300680Y-121763680D03*
%TD*%
D17*
%TO.P,R13,1*%
%TO.N,3.3V*%
X159475680Y-103713680D03*
%TO.P,R13,2*%
%TO.N,Net-(ENB1-Pin_2)*%
X159475680Y-105538680D03*
%TD*%
D25*
%TO.P,D1,1,A1*%
%TO.N,Vin*%
X139275680Y-101113680D03*
%TO.P,D1,2,A2*%
%TO.N,GND*%
X139275680Y-105413680D03*
%TD*%
D18*
%TO.P,R9,1*%
%TO.N,Net-(JP2-B)*%
X157685680Y-117313680D03*
%TO.P,R9,2*%
%TO.N,GND*%
X155860680Y-117313680D03*
%TD*%
D19*
%TO.P,R7,1*%
%TO.N,GPIO9*%
X140950680Y-116763680D03*
%TO.P,R7,2*%
%TO.N,vdd*%
X142775680Y-116763680D03*
%TD*%
D24*
%TO.P,C3,1*%
%TO.N,Vin*%
X151275680Y-104938680D03*
%TO.P,C3,2*%
%TO.N,GND*%
X153000680Y-104938680D03*
%TD*%
D26*
%TO.P,SW1,1,A*%
%TO.N,GND*%
X150100680Y-115488680D03*
%TO.P,SW1,2,B*%
%TO.N,BOOT*%
X150100680Y-107738680D03*
%TD*%
%TO.P,SW2,1,A*%
%TO.N,GND*%
X144375680Y-115413680D03*
%TO.P,SW2,2,B*%
%TO.N,EN*%
X144375680Y-107663680D03*
%TD*%
D25*
%TO.P,D3,1,A1*%
%TO.N,D+*%
X139275680Y-108863680D03*
%TO.P,D3,2,A2*%
%TO.N,GND*%
X139275680Y-113163680D03*
%TD*%
D15*
%TO.P,J3,1,Pin_1*%
%TO.N,Net-(J3-Pin_1)*%
X166800680Y-101673680D03*
D16*
%TO.P,J3,2,Pin_2*%
%TO.N,Net-(J3-Pin_2)*%
X164260680Y-101673680D03*
%TO.P,J3,3,Pin_3*%
%TO.N,Net-(J3-Pin_3)*%
X166800680Y-104213680D03*
%TO.P,J3,4,Pin_4*%
%TO.N,Net-(J3-Pin_4)*%
X164260680Y-104213680D03*
%TO.P,J3,5,Pin_5*%
%TO.N,Net-(J3-Pin_5)*%
X166800680Y-106753680D03*
%TO.P,J3,6,Pin_6*%
%TO.N,Net-(J3-Pin_6)*%
X164260680Y-106753680D03*
%TO.P,J3,7,Pin_7*%
%TO.N,Net-(J3-Pin_7)*%
X166800680Y-109293680D03*
%TO.P,J3,8,Pin_8*%
%TO.N,Net-(J3-Pin_8)*%
X164260680Y-109293680D03*
%TO.P,J3,9,Pin_9*%
%TO.N,Net-(J3-Pin_9)*%
X166800680Y-111833680D03*
%TO.P,J3,10,Pin_10*%
%TO.N,Net-(J3-Pin_10)*%
X164260680Y-111833680D03*
%TO.P,J3,11,Pin_11*%
%TO.N,Net-(J3-Pin_11)*%
X166800680Y-114373680D03*
%TO.P,J3,12,Pin_12*%
%TO.N,Net-(J3-Pin_12)*%
X164260680Y-114373680D03*
%TO.P,J3,13,Pin_13*%
%TO.N,Net-(J3-Pin_13)*%
X166800680Y-116913680D03*
%TO.P,J3,14,Pin_14*%
%TO.N,Net-(J3-Pin_14)*%
X164260680Y-116913680D03*
%TO.P,J3,15,Pin_15*%
%TO.N,Net-(J3-Pin_15)*%
X166800680Y-119453680D03*
%TO.P,J3,16,Pin_16*%
%TO.N,Net-(J3-Pin_16)*%
X164260680Y-119453680D03*
%TD*%
D18*
%TO.P,R3,1*%
%TO.N,Net-(D4-A)*%
X140525680Y-98163680D03*
%TO.P,R3,2*%
%TO.N,Vin*%
X138700680Y-98163680D03*
%TD*%
D24*
%TO.P,FB1,1*%
%TO.N,3.3V*%
X141100680Y-120013680D03*
%TO.P,FB1,2*%
%TO.N,vdd*%
X142825680Y-120013680D03*
%TD*%
D27*
%TO.P,U4,1,ADDR*%
%TO.N,Net-(J6-Pin_1)*%
X137375680Y-120963680D03*
%TO.P,U4,2,ALERT/RDY*%
%TO.N,Net-(J6-Pin_6)*%
X137875680Y-120963680D03*
%TO.P,U4,3,GND*%
%TO.N,Net-(JP4-A)*%
X138375680Y-120963680D03*
%TO.P,U4,4,AIN0*%
%TO.N,Net-(J6-Pin_2)*%
X138875680Y-120963680D03*
%TO.P,U4,5,AIN1*%
%TO.N,Net-(J6-Pin_3)*%
X139375680Y-120963680D03*
%TO.P,U4,6,AIN2*%
%TO.N,Net-(J6-Pin_5)*%
X139375680Y-116663680D03*
%TO.P,U4,7,AIN3*%
%TO.N,Net-(J6-Pin_4)*%
X138875680Y-116663680D03*
%TO.P,U4,8,VDD*%
%TO.N,vdd*%
X138375680Y-116663680D03*
%TO.P,U4,9,SDA*%
%TO.N,Net-(ENB2-Pin_2)*%
X137875680Y-116663680D03*
%TO.P,U4,10,SCL*%
%TO.N,GPIO9*%
X137375680Y-116663680D03*
%TD*%
D24*
%TO.P,FB2,1*%
%TO.N,GND*%
X137375680Y-123163680D03*
%TO.P,FB2,2*%
%TO.N,Net-(JP4-A)*%
X139100680Y-123163680D03*
%TD*%
D20*
%TO.P,D4,1,K*%
%TO.N,GND*%
X138700680Y-96413680D03*
%TO.P,D4,2,A*%
%TO.N,Net-(D4-A)*%
X140450680Y-96413680D03*
%TD*%
D15*
%TO.P,J6,1,Pin_1*%
%TO.N,Net-(J6-Pin_1)*%
X129035680Y-120163680D03*
D16*
%TO.P,J6,2,Pin_2*%
%TO.N,Net-(J6-Pin_2)*%
X129035680Y-117623680D03*
%TO.P,J6,3,Pin_3*%
%TO.N,Net-(J6-Pin_3)*%
X131575680Y-120163680D03*
%TO.P,J6,4,Pin_4*%
%TO.N,Net-(J6-Pin_4)*%
X131575680Y-117623680D03*
%TO.P,J6,5,Pin_5*%
%TO.N,Net-(J6-Pin_5)*%
X134115680Y-120163680D03*
%TO.P,J6,6,Pin_6*%
%TO.N,Net-(J6-Pin_6)*%
X134115680Y-117623680D03*
%TD*%
D28*
%TO.P,D2,1,A1*%
%TO.N,D-*%
X128725680Y-112663680D03*
%TO.P,D2,2,A2*%
%TO.N,GND*%
X133025680Y-112663680D03*
%TD*%
D19*
%TO.P,R12,1*%
%TO.N,3.3V*%
X152685680Y-107263680D03*
%TO.P,R12,2*%
%TO.N,Net-(U3-~{RESET})*%
X154510680Y-107263680D03*
%TD*%
D29*
%TO.P,R6,1*%
%TO.N,EN*%
X144275680Y-105763680D03*
%TO.P,R6,2*%
%TO.N,3.3V*%
X144275680Y-103938680D03*
%TD*%
D30*
%TO.P,U2,1,GND*%
%TO.N,GND*%
X148775680Y-97063680D03*
%TO.P,U2,2,VO*%
%TO.N,3.3V*%
X148775680Y-99363680D03*
D31*
X155075680Y-99363680D03*
D30*
%TO.P,U2,3,VI*%
%TO.N,Vin*%
X148775680Y-101663680D03*
%TD*%
D32*
%TO.P,J1,A1,GND*%
%TO.N,GND*%
X134047480Y-101577680D03*
%TO.P,J1,A4,VBUS*%
%TO.N,Vin*%
X134047480Y-102377680D03*
D33*
%TO.P,J1,A5,CC1*%
%TO.N,Net-(J1-CC1)*%
X134047480Y-103527680D03*
%TO.P,J1,A6,D+*%
%TO.N,D+*%
X134047480Y-104527680D03*
%TO.P,J1,A7,D-*%
%TO.N,D-*%
X134047480Y-105027680D03*
%TO.P,J1,A8,SBU1*%
%TO.N,unconnected-(J1-SBU1-PadA8)*%
X134047480Y-106027680D03*
D32*
%TO.P,J1,A9,VBUS*%
%TO.N,Vin*%
X134047480Y-107177680D03*
%TO.P,J1,A12,GND*%
%TO.N,GND*%
X134047480Y-107977680D03*
%TO.P,J1,B1,GND*%
X134047480Y-107977680D03*
%TO.P,J1,B4,VBUS*%
%TO.N,Vin*%
X134047480Y-107177680D03*
D33*
%TO.P,J1,B5,CC2*%
%TO.N,Net-(J1-CC2)*%
X134047480Y-106527680D03*
%TO.P,J1,B6,D+*%
%TO.N,D+*%
X134047480Y-105527680D03*
%TO.P,J1,B7,D-*%
%TO.N,D-*%
X134047480Y-104027680D03*
%TO.P,J1,B8,SBU2*%
%TO.N,unconnected-(J1-SBU2-PadB8)*%
X134047480Y-103027680D03*
D32*
%TO.P,J1,B9,VBUS*%
%TO.N,Vin*%
X134047480Y-102377680D03*
%TO.P,J1,B12,GND*%
%TO.N,GND*%
X134047480Y-101577680D03*
D34*
%TO.P,J1,S1,SHIELD*%
X133472480Y-100457680D03*
D35*
X129292480Y-100457680D03*
D34*
X133472480Y-109097680D03*
D35*
X129292480Y-109097680D03*
%TD*%
D23*
%TO.P,C7,1*%
%TO.N,3.3V*%
X153335680Y-117213680D03*
%TO.P,C7,2*%
%TO.N,GND*%
X153335680Y-118938680D03*
%TD*%
D36*
%TO.P,C5,1*%
%TO.N,Vin*%
X142525680Y-103938680D03*
%TO.P,C5,2*%
%TO.N,GND*%
X142525680Y-105488680D03*
%TD*%
D18*
%TO.P,R10,1*%
%TO.N,3.3V*%
X158085680Y-107213680D03*
%TO.P,R10,2*%
%TO.N,GPIO9*%
X156260680Y-107213680D03*
%TD*%
D37*
%TO.N,3.3V*%
X144480280Y-101103980D03*
X142206180Y-107313180D03*
X142345680Y-91903680D03*
X150565680Y-109153680D03*
X156175680Y-106163680D03*
%TO.N,GND*%
X134179680Y-98424380D03*
X137156580Y-98273580D03*
X154595680Y-93363680D03*
D38*
%TO.N,Vin*%
X132125680Y-107838680D03*
X137025680Y-101663680D03*
X132275680Y-102863680D03*
D37*
%TO.N,EN*%
X141670280Y-89776880D03*
X143517680Y-102975680D03*
%TO.N,Net-(JP4-A)*%
X140395680Y-122083680D03*
%TO.N,GPIO8*%
X128897580Y-110317580D03*
%TO.N,Net-(ENB2-Pin_2)*%
X137057780Y-112784280D03*
D39*
%TO.N,vdd*%
X143205680Y-114433680D03*
D37*
X141285680Y-114313680D03*
D38*
%TO.N,Net-(J1-CC2)*%
X132775680Y-106613680D03*
X135775680Y-110913680D03*
%TO.N,Net-(J1-CC1)*%
X136376680Y-106112980D03*
X132175680Y-103863680D03*
D37*
%TO.N,GPIO13*%
X145925680Y-95553680D03*
X131815680Y-95874180D03*
%TO.N,GPIO12*%
X143415680Y-94893680D03*
%TO.N,GPIO10*%
X143543180Y-91732780D03*
%TO.N,GPIO9*%
X141865680Y-113323680D03*
X136705680Y-114813680D03*
X157060880Y-108013880D03*
X138519480Y-93418880D03*
X141491980Y-105873680D03*
%TO.N,GPIO14*%
X145932780Y-96563280D03*
%TO.N,GPIO4*%
X134260380Y-79022280D03*
%TO.N,GPIO3*%
X139607680Y-89980080D03*
%TO.N,GPIO11*%
X143435680Y-89643680D03*
%TO.N,Net-(J3-Pin_4)*%
X154835680Y-111733680D03*
%TO.N,Net-(J3-Pin_6)*%
X155225680Y-112556680D03*
%TO.N,Net-(J3-Pin_2)*%
X156982930Y-109000930D03*
%TO.N,Net-(J3-Pin_5)*%
X152105680Y-115043680D03*
%TO.N,Net-(J3-Pin_1)*%
X156168980Y-112432580D03*
%TO.N,Net-(J3-Pin_12)*%
X157615680Y-114843680D03*
%TO.N,Net-(J3-Pin_14)*%
X161735680Y-117163680D03*
D40*
%TO.N,Net-(J3-Pin_8)*%
X155335680Y-113443680D03*
D37*
%TO.N,Net-(J3-Pin_7)*%
X154773779Y-116703181D03*
%TO.N,Net-(J3-Pin_11)*%
X161055680Y-116443680D03*
%TO.N,Net-(J3-Pin_9)*%
X160843130Y-114441130D03*
D41*
%TO.N,Net-(J3-Pin_3)*%
X151889380Y-113827180D03*
X169505680Y-119992780D03*
%TO.N,Net-(J3-Pin_10)*%
X156225680Y-114273680D03*
X156241630Y-116177730D03*
X160346380Y-115788680D03*
%TO.N,GPIO21*%
X151107680Y-95012380D03*
%TO.N,GPIO47*%
X151638580Y-89561480D03*
%TO.N,Net-(J6-Pin_3)*%
X140235680Y-121113680D03*
%TO.N,Net-(J6-Pin_2)*%
X135085580Y-118782280D03*
X139175680Y-119683680D03*
%TO.N,Net-(J6-Pin_6)*%
X139525680Y-118522580D03*
%TO.N,Net-(JP1-B)*%
X161715680Y-105373680D03*
X161205680Y-102873680D03*
X157195680Y-110383680D03*
%TO.N,Net-(JP2-B)*%
X158345680Y-106103680D03*
X157744534Y-115729769D03*
X159460380Y-107010880D03*
X151634380Y-110953680D03*
D42*
%TO.N,Net-(JP3-B)*%
X160025680Y-116803680D03*
D38*
X154905680Y-109433680D03*
D42*
X151555680Y-111883680D03*
%TO.N,BOOT*%
X150224980Y-106470680D03*
D43*
X153691580Y-103458380D03*
%TD*%
D44*
%TO.N,GPIO9*%
X158013400Y-109931200D02*
X158020880Y-109938680D01*
X158020880Y-109938680D02*
X159225680Y-109938680D01*
X157911800Y-108864800D02*
X157911800Y-109931200D01*
X157911800Y-109931200D02*
X158013400Y-109931200D01*
X157060880Y-108013880D02*
X157911800Y-108864800D01*
%TO.N,Net-(ENB1-Pin_2)*%
X160272980Y-109550200D02*
X160011460Y-109288680D01*
X160272980Y-109550200D02*
X160272980Y-109620480D01*
X160011460Y-109288680D02*
X159626680Y-109288680D01*
%TO.N,3.3V*%
X141985580Y-120561180D02*
X141985580Y-120013680D01*
X150667980Y-111990180D02*
X150834280Y-112156480D01*
X145267680Y-99363680D02*
X148775680Y-99363680D01*
X149611480Y-109274480D02*
X144275680Y-103938680D01*
X142473080Y-113591680D02*
X142473080Y-115236680D01*
X131487380Y-77176680D02*
X131487380Y-76888680D01*
X142677580Y-91571780D02*
X142677580Y-80878480D01*
X143188080Y-121763680D02*
X141985580Y-120561180D01*
X157873380Y-105103680D02*
X158085680Y-105103680D01*
X138813180Y-77014080D02*
X137761480Y-77014080D01*
X158085680Y-105103680D02*
X159475680Y-103713680D01*
X150565680Y-109153680D02*
X150604280Y-109115080D01*
X137761480Y-77014080D02*
X135921280Y-77014080D01*
X155075680Y-103763680D02*
X156047380Y-104735380D01*
X142584980Y-107691980D02*
X142584980Y-113479780D01*
X143300680Y-123288680D02*
X143300680Y-121763680D01*
X150444880Y-109274480D02*
X149611480Y-109274480D01*
X150565680Y-109153680D02*
X150565680Y-109456280D01*
X130335680Y-76888680D02*
X131487380Y-76888680D01*
X143300680Y-121763680D02*
X143188080Y-121763680D01*
X155025680Y-103763680D02*
X155075680Y-103763680D01*
X141985580Y-115724180D02*
X141985580Y-120013680D01*
X150435680Y-111757880D02*
X150667980Y-111990180D01*
X134894980Y-78040380D02*
X132351080Y-78040380D01*
X156047380Y-104735380D02*
X156047380Y-105103680D01*
X151435680Y-114501080D02*
X151435680Y-115313680D01*
X156047380Y-106035380D02*
X156175680Y-106163680D01*
X150834280Y-112156480D02*
X150834280Y-113899680D01*
X150834280Y-113899680D02*
X151435680Y-114501080D01*
X150834280Y-109115080D02*
X152685680Y-107263680D01*
X144480280Y-100151080D02*
X145267680Y-99363680D01*
X132351080Y-78040380D02*
X131487380Y-77176680D01*
X157595680Y-106723680D02*
X158085680Y-107213680D01*
X157595680Y-105381380D02*
X157595680Y-106723680D01*
X159475680Y-101158680D02*
X163435680Y-97198680D01*
X141100680Y-120013680D02*
X141985580Y-120013680D01*
X142677580Y-80878480D02*
X138813180Y-77014080D01*
X156047380Y-105103680D02*
X156047380Y-106035380D01*
X150435680Y-109586280D02*
X150435680Y-111757880D01*
X135921280Y-77014080D02*
X134894980Y-78040380D01*
X155075680Y-103763680D02*
X155075680Y-99363680D01*
X142206180Y-107313180D02*
X142584980Y-107691980D01*
X150604280Y-109115080D02*
X150834280Y-109115080D01*
X154975680Y-103813680D02*
X155025680Y-103763680D01*
X142950680Y-98163680D02*
X142950680Y-100218680D01*
X150667980Y-111990180D02*
X150834280Y-112156480D01*
X150565680Y-109456280D02*
X150435680Y-109586280D01*
X159475680Y-103713680D02*
X159475680Y-101158680D01*
X143375680Y-123363680D02*
X143300680Y-123288680D01*
X144480280Y-100413680D02*
X143145680Y-100413680D01*
X159225680Y-108353680D02*
X159225680Y-108638680D01*
X142345680Y-91903680D02*
X142677580Y-91571780D01*
X142584980Y-113479780D02*
X142473080Y-113591680D01*
X150565680Y-109153680D02*
X150444880Y-109274480D01*
X158085680Y-107213680D02*
X159225680Y-108353680D01*
X142950680Y-100218680D02*
X143145680Y-100413680D01*
X144480280Y-100413680D02*
X144480280Y-100151080D01*
X142473080Y-115236680D02*
X141985580Y-115724180D01*
X151435680Y-115313680D02*
X153335680Y-117213680D01*
X156047380Y-105103680D02*
X157873380Y-105103680D01*
X144480280Y-101103980D02*
X144480280Y-100413680D01*
X157873380Y-105103680D02*
X157595680Y-105381380D01*
%TO.N,GND*%
X148564680Y-105727680D02*
X147775680Y-104938680D01*
X139521580Y-95592780D02*
X142129780Y-95592780D01*
X146025680Y-100413680D02*
X146124180Y-100512180D01*
X140778380Y-105488680D02*
X140778380Y-111660980D01*
X154975680Y-105538680D02*
X154375680Y-104938680D01*
X146124180Y-100512180D02*
X149917180Y-100512180D01*
X153000680Y-97063680D02*
X153000680Y-104938680D01*
X150078780Y-100350580D02*
X150078780Y-98366780D01*
X134824180Y-109097680D02*
X135959680Y-109097680D01*
X134824180Y-109097680D02*
X134824180Y-108754380D01*
X155261480Y-75744080D02*
X153431480Y-75744080D01*
X149917180Y-100512180D02*
X150078780Y-100350580D01*
X161335680Y-118963680D02*
X160518480Y-119780880D01*
X134824180Y-108754380D02*
X134047480Y-107977680D01*
X154467880Y-93491480D02*
X154467880Y-95596480D01*
X142129780Y-95592780D02*
X142950680Y-96413680D01*
X138700680Y-96413680D02*
X139521580Y-95592780D01*
X144375680Y-115426380D02*
X144375680Y-115413680D01*
X143960980Y-124149180D02*
X145452880Y-122657280D01*
X134179680Y-100426380D02*
X134179680Y-98424380D01*
X145452880Y-122657280D02*
X145452880Y-118540880D01*
X153000680Y-104938680D02*
X152211680Y-105727680D01*
X142525680Y-105488680D02*
X142133180Y-105096180D01*
X144375680Y-115413680D02*
X144075680Y-115413680D01*
X146882180Y-98957180D02*
X144262780Y-98957180D01*
X154375680Y-104938680D02*
X153000680Y-104938680D01*
X143863180Y-97326180D02*
X142950680Y-96413680D01*
X134824180Y-113212180D02*
X134824180Y-109097680D01*
X144600680Y-117688680D02*
X144600680Y-116565380D01*
X145011480Y-82764080D02*
X145011480Y-83464080D01*
X154467880Y-95596480D02*
X153000680Y-97063680D01*
X145452880Y-118540880D02*
X144600680Y-117688680D01*
X148775680Y-97063680D02*
X153000680Y-97063680D01*
X142436180Y-124149180D02*
X143960980Y-124149180D01*
X137761480Y-75744080D02*
X134020280Y-75744080D01*
X143573980Y-106536980D02*
X142525680Y-105488680D01*
X148775680Y-97063680D02*
X146882180Y-98957180D01*
X134148380Y-100457680D02*
X134179680Y-100426380D01*
X130494180Y-100457680D02*
X130494180Y-100789780D01*
X140778380Y-105488680D02*
X139350680Y-105488680D01*
X139275680Y-113163680D02*
X136025680Y-109913680D01*
X133472480Y-100457680D02*
X134148380Y-100457680D01*
X135775680Y-114163680D02*
X134824180Y-113212180D01*
X137156580Y-98273580D02*
X138700680Y-96729480D01*
X154595680Y-93363680D02*
X154467880Y-93491480D01*
X160518480Y-119780880D02*
X156577880Y-119780880D01*
X138700680Y-96729480D02*
X138700680Y-96413680D01*
X141053480Y-123960880D02*
X138172880Y-123960880D01*
X143611480Y-84164080D02*
X143611480Y-82764080D01*
X154113280Y-116401280D02*
X154113280Y-118161080D01*
X144075680Y-115413680D02*
X144075680Y-114193680D01*
X145452880Y-118540880D02*
X147975180Y-118540880D01*
X136025680Y-109913680D02*
X136025680Y-109163680D01*
X141650680Y-123363680D02*
X142436180Y-124149180D01*
X155760680Y-118963680D02*
X155860680Y-118863680D01*
X150100680Y-115488680D02*
X150100680Y-116415380D01*
X139350680Y-105488680D02*
X139275680Y-105413680D01*
X156577880Y-119780880D02*
X155760680Y-118963680D01*
X154113280Y-118161080D02*
X153335680Y-118938680D01*
X133025680Y-112663680D02*
X132120780Y-111758780D01*
X144262780Y-98957180D02*
X143863180Y-98557580D01*
X140778380Y-111660980D02*
X139275680Y-113163680D01*
X140850480Y-105488680D02*
X140778380Y-105488680D01*
X153431480Y-75744080D02*
X146411480Y-82764080D01*
X145011480Y-84164080D02*
X145011480Y-83464080D01*
X143573980Y-113691980D02*
X143573980Y-106536980D01*
X150078780Y-98366780D02*
X148775680Y-97063680D01*
X134020280Y-75744080D02*
X132875680Y-76888680D01*
X154915880Y-118963680D02*
X154113280Y-118161080D01*
X144375680Y-115426380D02*
X144375680Y-116340380D01*
X143863180Y-98557580D02*
X143863180Y-97326180D01*
X153500680Y-115788680D02*
X154113280Y-116401280D01*
X144075680Y-114193680D02*
X143573980Y-113691980D01*
X138172880Y-123960880D02*
X137375680Y-123163680D01*
X134824180Y-100457680D02*
X134824180Y-100800980D01*
X155760680Y-118963680D02*
X154915880Y-118963680D01*
X142133180Y-105096180D02*
X141242880Y-105096180D01*
X141242880Y-105096180D02*
X140850480Y-105488580D01*
X144311480Y-82064080D02*
X144311480Y-83464080D01*
X134148380Y-100457680D02*
X134824180Y-100457680D01*
X144600680Y-116565380D02*
X144375680Y-116340380D01*
X147975180Y-118540880D02*
X150100680Y-116415380D01*
X145711480Y-84864080D02*
X145711480Y-83464080D01*
X133472480Y-109097680D02*
X134824180Y-109097680D01*
X140850480Y-105488580D02*
X140850480Y-105488680D01*
X134824180Y-100800980D02*
X134047480Y-101577680D01*
X141650680Y-123363680D02*
X141053480Y-123960880D01*
X129292480Y-100457680D02*
X130494180Y-100457680D01*
X152623980Y-118938680D02*
X153335680Y-118938680D01*
X129292480Y-101991480D02*
X129292480Y-109097680D01*
X130494180Y-100789780D02*
X129292480Y-101991480D01*
X132120780Y-111758780D02*
X132120780Y-109097680D01*
X155860680Y-118863680D02*
X155860680Y-117313680D01*
X133472480Y-109097680D02*
X132120780Y-109097680D01*
X152211680Y-105727680D02*
X148564680Y-105727680D01*
X150100680Y-116415380D02*
X152623980Y-118938680D01*
X135959680Y-109097680D02*
X136025680Y-109163680D01*
%TO.N,Vin*%
X133025680Y-107624480D02*
X133025680Y-107938680D01*
X138700680Y-100538680D02*
X139275680Y-101113680D01*
X132225680Y-107938680D02*
X132125680Y-107838680D01*
X142525680Y-103938680D02*
X142049480Y-103462480D01*
D45*
X134047480Y-102377680D02*
X133509680Y-102377680D01*
D46*
X142049480Y-102163680D02*
X148275680Y-102163680D01*
D45*
X134047680Y-107177680D02*
X134388680Y-107177680D01*
D46*
X140725680Y-101113680D02*
X141775680Y-102163680D01*
D44*
X149500680Y-102388680D02*
X148775680Y-101663680D01*
D46*
X139275680Y-101113680D02*
X140725680Y-101113680D01*
D45*
X133509680Y-102377680D02*
X133023680Y-102863680D01*
X133023680Y-102863680D02*
X132275680Y-102863680D01*
D44*
X142049480Y-103462480D02*
X142049480Y-102163680D01*
D45*
X137025680Y-101663680D02*
X138725680Y-101663680D01*
D44*
X149500680Y-104938680D02*
X149500680Y-102388680D01*
D46*
X141775680Y-102163680D02*
X142049480Y-102163680D01*
D44*
X151275680Y-104938680D02*
X149500680Y-104938680D01*
X133472680Y-107177680D02*
X133025680Y-107624480D01*
X133025680Y-107938680D02*
X132225680Y-107938680D01*
X134047680Y-107177680D02*
X133472680Y-107177680D01*
X134047480Y-107177680D02*
X134047680Y-107177680D01*
D46*
X148275680Y-102163680D02*
X148775680Y-101663680D01*
D45*
X138725680Y-101663680D02*
X139275680Y-101113680D01*
X134047680Y-102377680D02*
X134047480Y-102377680D01*
D44*
X138700680Y-98163680D02*
X138700680Y-100538680D01*
%TO.N,EN*%
X137761480Y-78284080D02*
X138813180Y-78284080D01*
X143388680Y-103104680D02*
X143388680Y-104876680D01*
X143517680Y-102975680D02*
X143388680Y-103104680D01*
X146325680Y-117688680D02*
X146325680Y-108811980D01*
X146325680Y-108811980D02*
X145177380Y-107663680D01*
X144375680Y-107663680D02*
X145177380Y-107663680D01*
X143388680Y-104876680D02*
X144275680Y-105763680D01*
X138813180Y-78284080D02*
X138813180Y-86919780D01*
X144275680Y-105763680D02*
X144375680Y-105863680D01*
X144375680Y-105863680D02*
X144375680Y-107663680D01*
X138813180Y-86919780D02*
X141670280Y-89776880D01*
%TO.N,Net-(JP4-A)*%
X140395680Y-122014880D02*
X140646880Y-121763680D01*
X140395680Y-122083680D02*
X140271780Y-121959780D01*
X139942080Y-121959780D02*
X139231080Y-122670780D01*
X139100680Y-123163680D02*
X139100680Y-122801180D01*
X140271780Y-121959780D02*
X139942080Y-121959780D01*
X139100680Y-122801180D02*
X139231080Y-122670780D01*
X138375680Y-120963680D02*
X138375680Y-121815380D01*
X138375680Y-121815380D02*
X139231080Y-122670780D01*
X140646880Y-121763680D02*
X141575680Y-121763680D01*
X140395680Y-122083680D02*
X140395680Y-122014880D01*
%TO.N,D-*%
X137761480Y-90984080D02*
X137761680Y-90984080D01*
X130825680Y-107513680D02*
X130825680Y-110563680D01*
X133438680Y-104027680D02*
X134047480Y-104027680D01*
X133171680Y-104294880D02*
X133438680Y-104027680D01*
X137051680Y-91394080D02*
X137461680Y-90984080D01*
X133438680Y-105027680D02*
X132602680Y-105863680D01*
X134047680Y-104027680D02*
X134472680Y-104027680D01*
X136358680Y-91394080D02*
X137051680Y-91394080D01*
X134047480Y-104027680D02*
X134047680Y-104027680D01*
X132475680Y-105863680D02*
X130825680Y-107513680D01*
X132602680Y-105863680D02*
X132475680Y-105863680D01*
X133171680Y-104760480D02*
X133171680Y-104294880D01*
X134497680Y-104052680D02*
X134818680Y-104052680D01*
X134818680Y-104052680D02*
X135800680Y-103070480D01*
X135800680Y-91952480D02*
X136358680Y-91394080D01*
X130825680Y-110563680D02*
X128725680Y-112663680D01*
X133438680Y-105027680D02*
X133171680Y-104760480D01*
X134047680Y-105027680D02*
X134047480Y-105027680D01*
X135800680Y-103070480D02*
X135800680Y-91952480D01*
X134047480Y-105027680D02*
X133438680Y-105027680D01*
X137461680Y-90984080D02*
X137761480Y-90984080D01*
X134047680Y-103978680D02*
X134047680Y-104027680D01*
X134472680Y-104027680D02*
X134497680Y-104052680D01*
%TO.N,D+*%
X136250680Y-103256880D02*
X136250680Y-92138880D01*
X136545680Y-91844080D02*
X137051680Y-91844080D01*
X134923680Y-105260480D02*
X134656680Y-105527680D01*
X134656680Y-104527680D02*
X134923680Y-104794880D01*
X134047480Y-105527680D02*
X134047680Y-105527680D01*
X137275680Y-107663680D02*
X138075680Y-107663680D01*
X134923680Y-104794880D02*
X134923680Y-105260480D01*
X134096680Y-104478680D02*
X134047680Y-104527680D01*
X137461680Y-92254080D02*
X137127680Y-92254080D01*
X137275680Y-105663680D02*
X137275680Y-107663680D01*
X134472680Y-104527680D02*
X134497680Y-104502680D01*
X136872680Y-105260480D02*
X137275680Y-105663680D01*
X135004680Y-104502680D02*
X136250680Y-103256880D01*
X137761480Y-92254080D02*
X137461680Y-92254080D01*
X134047680Y-104527680D02*
X134656680Y-104527680D01*
X134047680Y-104527680D02*
X134472680Y-104527680D01*
X138075680Y-107663680D02*
X139275680Y-108863680D01*
X134923680Y-105260480D02*
X136872680Y-105260480D01*
X134497680Y-104502680D02*
X135004680Y-104502680D01*
X134656680Y-105527680D02*
X134047680Y-105527680D01*
X136250680Y-92138880D02*
X136545680Y-91844080D01*
X134047480Y-104527680D02*
X134047680Y-104527680D01*
X137051680Y-91844080D02*
X137461680Y-92254080D01*
%TO.N,Net-(D4-A)*%
X140450680Y-98088680D02*
X140450680Y-96413680D01*
X140525680Y-98163680D02*
X140450680Y-98088680D01*
%TO.N,Net-(D6-A)*%
X144700680Y-98088680D02*
X144700680Y-96413680D01*
X144775680Y-98163680D02*
X144700680Y-98088680D01*
%TO.N,GPIO8*%
X128051280Y-109471280D02*
X128051280Y-91873080D01*
X131534180Y-90787180D02*
X130335680Y-89588680D01*
X128897580Y-110317580D02*
X128051280Y-109471280D01*
X137761480Y-89714080D02*
X136115180Y-89714080D01*
X128051280Y-91873080D02*
X130335680Y-89588680D01*
X136115180Y-89714080D02*
X135042080Y-90787180D01*
X135042080Y-90787180D02*
X131534180Y-90787180D01*
%TO.N,Net-(ENB1-Pin_2)*%
X168370680Y-120197380D02*
X165454380Y-123113680D01*
X160272980Y-109620480D02*
X161097880Y-110445380D01*
X166260280Y-112985380D02*
X167106280Y-112985380D01*
X164593580Y-110445380D02*
X165412380Y-111264180D01*
%TO.N,GPIO9*%
X159954780Y-109938680D02*
X159225680Y-109938680D01*
%TO.N,Net-(ENB1-Pin_2)*%
X168370680Y-114249780D02*
X168370680Y-120197380D01*
X160272980Y-106335980D02*
X160272980Y-109550200D01*
X161097880Y-110445380D02*
X164593580Y-110445380D01*
X167106280Y-112985380D02*
X168370680Y-114249780D01*
X165454380Y-123113680D02*
X161100680Y-123113680D01*
X165412380Y-112137480D02*
X166260280Y-112985380D01*
X165412380Y-111264180D02*
X165412380Y-112137480D01*
X159475680Y-105538680D02*
X160272980Y-106335980D01*
%TO.N,Net-(ENB2-Pin_2)*%
X151935680Y-123088680D02*
X148810680Y-119963680D01*
X148810680Y-119963680D02*
X146450680Y-119963680D01*
X137875680Y-116663680D02*
X137875680Y-114964180D01*
X137875680Y-114964180D02*
X137057780Y-114146280D01*
X137057780Y-114146280D02*
X137057780Y-112784280D01*
%TO.N,vdd*%
X143074880Y-116464480D02*
X142775680Y-116763680D01*
X142775680Y-116763680D02*
X142775680Y-118463680D01*
X142775680Y-118463680D02*
X142800680Y-118488680D01*
X142875680Y-119963680D02*
X142825680Y-120013680D01*
X142800680Y-118488680D02*
X142875680Y-118563680D01*
X138375680Y-115811980D02*
X138375680Y-116663680D01*
X141285680Y-114313680D02*
X141285680Y-114533480D01*
X144625680Y-119963680D02*
X142875680Y-119963680D01*
X142875680Y-118563680D02*
X142875680Y-119963680D01*
X143074880Y-114564480D02*
X143074880Y-116464480D01*
X141285680Y-114533480D02*
X140007180Y-115811980D01*
X143205680Y-114433680D02*
X143074880Y-114564480D01*
X140007180Y-115811980D02*
X138375680Y-115811980D01*
%TO.N,Net-(J1-CC2)*%
X132775680Y-106663680D02*
X132825680Y-106613680D01*
X132825680Y-106613680D02*
X132911680Y-106527680D01*
X132911680Y-106527680D02*
X134047480Y-106527680D01*
X132775680Y-106613680D02*
X132825680Y-106613680D01*
X135775680Y-112338680D02*
X135775680Y-110913680D01*
X134047480Y-106527680D02*
X134047680Y-106527680D01*
X132825680Y-106613680D02*
X132911680Y-106527680D01*
%TO.N,Net-(J1-CC1)*%
X134047680Y-103527680D02*
X134047480Y-103527680D01*
D45*
X135775680Y-107088680D02*
X136025680Y-107338680D01*
D44*
X134047480Y-103527680D02*
X132511680Y-103527680D01*
X132511680Y-103527680D02*
X132175680Y-103863680D01*
D45*
X135775680Y-106713680D02*
X135775680Y-107088680D01*
X136376680Y-106112980D02*
X135775680Y-106713680D01*
D44*
%TO.N,GPIO6*%
X137761480Y-82094080D02*
X134888380Y-82094080D01*
X134888380Y-82094080D02*
X133572380Y-80778080D01*
X131526280Y-80778080D02*
X130335680Y-81968680D01*
X133572380Y-80778080D02*
X131526280Y-80778080D01*
%TO.N,GPIO5*%
X134271080Y-80824080D02*
X132875680Y-79428680D01*
X137761480Y-80824080D02*
X134271080Y-80824080D01*
%TO.N,GPIO15*%
X131526280Y-83318080D02*
X130335680Y-84508680D01*
X134888380Y-84634080D02*
X133572380Y-83318080D01*
X133572380Y-83318080D02*
X131526280Y-83318080D01*
X137761480Y-84634080D02*
X134888380Y-84634080D01*
%TO.N,GPIO17*%
X131526280Y-85858080D02*
X130335680Y-87048680D01*
X133572380Y-85858080D02*
X131526280Y-85858080D01*
X134888380Y-87174080D02*
X133572380Y-85858080D01*
X137761480Y-87174080D02*
X134888380Y-87174080D01*
%TO.N,GPIO13*%
X147146480Y-94555780D02*
X147146480Y-93504080D01*
X146134580Y-95553680D02*
X147132480Y-94555780D01*
X147132480Y-94555780D02*
X147146480Y-94555780D01*
X145925680Y-95553680D02*
X146134580Y-95553680D01*
X131637880Y-95874180D02*
X130335680Y-97176380D01*
X130335680Y-97176380D02*
X130335680Y-97208680D01*
X131815680Y-95874180D02*
X131637880Y-95874180D01*
%TO.N,GPIO18*%
X134271080Y-88444080D02*
X132875680Y-87048680D01*
X137761480Y-88444080D02*
X134271080Y-88444080D01*
%TO.N,GPIO12*%
X145667580Y-94764680D02*
X145876480Y-94555780D01*
X143415680Y-94893680D02*
X143544680Y-94764680D01*
X145876480Y-94555780D02*
X145876480Y-93504080D01*
X143544680Y-94764680D02*
X145667580Y-94764680D01*
%TO.N,GPIO10*%
X143336480Y-93504080D02*
X143336480Y-92452380D01*
X143543180Y-91732780D02*
X143543180Y-92245680D01*
X143543180Y-92245680D02*
X143336480Y-92452380D01*
%TO.N,GPIO9*%
X141491980Y-112739280D02*
X141491980Y-105873680D01*
X137375680Y-115315080D02*
X137375680Y-116663680D01*
X142069880Y-114928480D02*
X140950680Y-116047680D01*
X141865680Y-113323680D02*
X142069880Y-113527880D01*
X142066480Y-94555780D02*
X138887080Y-94555780D01*
X142069880Y-113527880D02*
X142069880Y-114928480D01*
X157060880Y-108013880D02*
X156260680Y-107213680D01*
%TO.N,Net-(ENB1-Pin_2)*%
X158345280Y-109288680D02*
X159225680Y-109288680D01*
%TO.N,GPIO9*%
X136874280Y-114813680D02*
X137375680Y-115315080D01*
X138887080Y-94555780D02*
X138519480Y-94188180D01*
X141865680Y-113112980D02*
X141491980Y-112739280D01*
X142066480Y-93504080D02*
X142066480Y-94555780D01*
X138519480Y-94188180D02*
X138519480Y-93418880D01*
X141865680Y-113323680D02*
X141865680Y-113112980D01*
X136705680Y-114813680D02*
X136874280Y-114813680D01*
X140950680Y-116047680D02*
X140950680Y-116763680D01*
%TO.N,GPIO14*%
X145932780Y-96563280D02*
X146408980Y-96563280D01*
X148416480Y-93504080D02*
X148416480Y-94555780D01*
X146408980Y-96563280D02*
X148416480Y-94555780D01*
%TO.N,GPIO4*%
X134792180Y-79554080D02*
X137761480Y-79554080D01*
X134260380Y-79022280D02*
X134792180Y-79554080D01*
%TO.N,GPIO3*%
X139526480Y-90061280D02*
X139607680Y-89980080D01*
X139526480Y-93504080D02*
X139526480Y-90061280D01*
%TO.N,GPIO7*%
X134271080Y-83364080D02*
X132875680Y-81968680D01*
X137761480Y-83364080D02*
X134271080Y-83364080D01*
%TO.N,GPIO11*%
X143435680Y-89903180D02*
X144606480Y-91073980D01*
X143435680Y-89643680D02*
X143435680Y-89903180D01*
X144606480Y-91073980D02*
X144606480Y-93504080D01*
%TO.N,GPIO16*%
X137761480Y-85904080D02*
X134271080Y-85904080D01*
X134271080Y-85904080D02*
X132875680Y-84508680D01*
%TO.N,Net-(J3-Pin_15)*%
X164726480Y-113151080D02*
X163133380Y-113151080D01*
X161220980Y-111238680D02*
X159225680Y-111238680D01*
X165530680Y-113955280D02*
X164726480Y-113151080D01*
X165530680Y-118183680D02*
X165530680Y-113955280D01*
X166800680Y-119453680D02*
X165530680Y-118183680D01*
X163133380Y-113151080D02*
X161220980Y-111238680D01*
%TO.N,Net-(J3-Pin_4)*%
X154829680Y-111888680D02*
X153500680Y-111888680D01*
X154835680Y-111882680D02*
X154829680Y-111888680D01*
X154835680Y-111733680D02*
X154835680Y-111882680D01*
%TO.N,Net-(J3-Pin_6)*%
X154183480Y-113188680D02*
X153500680Y-113188680D01*
X155154180Y-112628180D02*
X154743980Y-112628180D01*
X154743980Y-112628180D02*
X154183480Y-113188680D01*
X155225680Y-112556680D02*
X155154180Y-112628180D01*
%TO.N,Net-(J3-Pin_2)*%
X155395180Y-110588680D02*
X153500680Y-110588680D01*
X156982930Y-109000930D02*
X155395180Y-110588680D01*
%TO.N,Net-(J3-Pin_5)*%
X152237780Y-115072180D02*
X152134180Y-115072180D01*
X152237780Y-114413080D02*
X152237780Y-115072180D01*
X152812180Y-113838680D02*
X152237780Y-114413080D01*
X152134180Y-115072180D02*
X152105680Y-115043680D01*
X153500680Y-113838680D02*
X152812180Y-113838680D01*
%TO.N,Net-(J3-Pin_16)*%
X162912380Y-113666080D02*
X161134980Y-111888680D01*
X162912380Y-118105380D02*
X162912380Y-113666080D01*
X164260680Y-119453680D02*
X162912380Y-118105380D01*
X161134980Y-111888680D02*
X159225680Y-111888680D01*
%TO.N,Net-(J3-Pin_1)*%
X153649422Y-111089938D02*
X153500680Y-111238680D01*
X155367765Y-111089938D02*
X153649422Y-111089938D01*
X156168980Y-112432580D02*
X156168980Y-111891153D01*
X156168980Y-111891153D02*
X155367765Y-111089938D01*
%TO.N,Net-(J3-Pin_12)*%
X157825980Y-114843680D02*
X157884780Y-114784880D01*
X158180980Y-114488680D02*
X159225680Y-114488680D01*
X157615680Y-114843680D02*
X157825980Y-114843680D01*
X157825980Y-114843680D02*
X158180980Y-114488680D01*
X157884780Y-114784880D02*
X157739880Y-114929780D01*
%TO.N,Net-(J3-Pin_13)*%
X163773080Y-120610180D02*
X162510680Y-119347780D01*
X162510680Y-119347780D02*
X162510680Y-113837480D01*
X166800680Y-116913680D02*
X167967180Y-118080180D01*
X167967180Y-118080180D02*
X167967180Y-119940280D01*
X162510680Y-113837480D02*
X161211880Y-112538680D01*
X161211880Y-112538680D02*
X159225680Y-112538680D01*
X167967180Y-119940280D02*
X167297280Y-120610180D01*
X167297280Y-120610180D02*
X163773080Y-120610180D01*
%TO.N,Net-(J3-Pin_14)*%
X161981880Y-116249380D02*
X161981880Y-113883180D01*
X161735680Y-116495580D02*
X161981880Y-116249380D01*
X161735680Y-117163680D02*
X161735680Y-116495580D01*
X161981880Y-113883180D02*
X161287380Y-113188680D01*
X161287380Y-113188680D02*
X159225680Y-113188680D01*
%TO.N,Net-(J3-Pin_8)*%
X154185180Y-114488680D02*
X153500680Y-114488680D01*
X155335680Y-113443680D02*
X155210380Y-113568980D01*
X155104880Y-113568980D02*
X154185180Y-114488680D01*
X155210380Y-113568980D02*
X155104880Y-113568980D01*
%TO.N,Net-(J3-Pin_7)*%
X154828880Y-115769680D02*
X154197880Y-115138680D01*
X154773779Y-116703181D02*
X154828880Y-116648080D01*
X154197880Y-115138680D02*
X153500680Y-115138680D01*
X154828880Y-116648080D02*
X154828880Y-115769680D01*
%TO.N,Net-(J3-Pin_11)*%
X159316380Y-113747980D02*
X159225680Y-113838680D01*
X161055680Y-116443680D02*
X161055680Y-115993680D01*
X161227080Y-113747980D02*
X159316380Y-113747980D01*
X161055680Y-115993680D02*
X161580180Y-115469180D01*
X161580180Y-115469180D02*
X161580180Y-114101080D01*
X161580180Y-114101080D02*
X161227080Y-113747980D01*
%TO.N,Net-(J3-Pin_9)*%
X160145580Y-115138680D02*
X159225680Y-115138680D01*
X160843130Y-114441130D02*
X160145580Y-115138680D01*
X160843130Y-114441130D02*
X160932980Y-114351280D01*
%TO.N,Net-(J3-Pin_3)*%
X152820280Y-112538680D02*
X153500680Y-112538680D01*
X151889380Y-113827180D02*
X151889380Y-113469580D01*
X169505680Y-106918680D02*
X166800680Y-104213680D01*
X151889380Y-113469580D02*
X152820280Y-112538680D01*
X169505680Y-119992780D02*
X169505680Y-106918680D01*
%TO.N,Net-(J3-Pin_10)*%
X156107880Y-116043980D02*
X156241630Y-116177730D01*
X156225680Y-114273680D02*
X156107880Y-114391480D01*
X156107880Y-114391480D02*
X156107880Y-116043980D01*
X160346380Y-115788680D02*
X159225680Y-115788680D01*
%TO.N,GPIO44*%
X164705680Y-80688680D02*
X156448580Y-80688680D01*
X165975680Y-79418680D02*
X164705680Y-80688680D01*
X156448580Y-80688680D02*
X156313180Y-80824080D01*
X155261480Y-80824080D02*
X156313180Y-80824080D01*
%TO.N,GPIO41*%
X156448580Y-83228680D02*
X156313180Y-83364080D01*
X155261480Y-83364080D02*
X156313180Y-83364080D01*
X165975680Y-81958680D02*
X164705680Y-83228680D01*
X164705680Y-83228680D02*
X156448580Y-83228680D01*
%TO.N,GPIO2*%
X165975680Y-76878680D02*
X164705680Y-78148680D01*
X155261480Y-78284080D02*
X156313180Y-78284080D01*
X164705680Y-78148680D02*
X156448580Y-78148680D01*
X156448580Y-78148680D02*
X156313180Y-78284080D01*
%TO.N,GPIO21*%
X149686480Y-93504080D02*
X149686480Y-94555780D01*
X150651080Y-94555780D02*
X151107680Y-95012380D01*
X149686480Y-94555780D02*
X150651080Y-94555780D01*
%TO.N,GPIO1*%
X156448580Y-76878680D02*
X156313180Y-77014080D01*
X163435680Y-76878680D02*
X156448580Y-76878680D01*
X155261480Y-77014080D02*
X156313180Y-77014080D01*
%TO.N,GPIO38*%
X156448580Y-87038680D02*
X156313180Y-87174080D01*
X163435680Y-87038680D02*
X156448580Y-87038680D01*
X155261480Y-87174080D02*
X156313180Y-87174080D01*
%TO.N,GPIO40*%
X155261480Y-84634080D02*
X163300280Y-84634080D01*
X163300280Y-84634080D02*
X163435680Y-84498680D01*
%TO.N,GPIO42*%
X163300280Y-82094080D02*
X163435680Y-81958680D01*
X155261480Y-82094080D02*
X163300280Y-82094080D01*
%TO.N,GPIO47*%
X150956480Y-90243580D02*
X150956480Y-93504080D01*
X151638580Y-89561480D02*
X150956480Y-90243580D01*
%TO.N,GPIO37*%
X164705680Y-88308680D02*
X156448580Y-88308680D01*
X165975680Y-87038680D02*
X164705680Y-88308680D01*
X156448580Y-88308680D02*
X156313180Y-88444080D01*
X155261480Y-88444080D02*
X156313180Y-88444080D01*
%TO.N,GPIO43*%
X163435680Y-79418680D02*
X156448580Y-79418680D01*
X156448580Y-79418680D02*
X156313180Y-79554080D01*
X155261480Y-79554080D02*
X156313180Y-79554080D01*
%TO.N,GPIO39*%
X156313180Y-85904080D02*
X156448580Y-85768680D01*
X155261480Y-85904080D02*
X156313180Y-85904080D01*
X156448580Y-85768680D02*
X164705680Y-85768680D01*
X164705680Y-85768680D02*
X165975680Y-84498680D01*
%TO.N,Net-(J6-Pin_5)*%
X134115680Y-120163680D02*
X136884880Y-120163680D01*
X136884880Y-120163680D02*
X139375680Y-117672880D01*
X139375680Y-117672880D02*
X139375680Y-116663680D01*
%TO.N,Net-(J6-Pin_3)*%
X140130080Y-121008080D02*
X139420080Y-121008080D01*
X139420080Y-121008080D02*
X139375680Y-120963680D01*
X140235680Y-121113680D02*
X140130080Y-121008080D01*
%TO.N,Net-(J6-Pin_1)*%
X130187380Y-120163680D02*
X130187380Y-120451580D01*
X129035680Y-120163680D02*
X130187380Y-120163680D01*
X137375680Y-120963680D02*
X137375680Y-121815380D01*
X131551180Y-121815380D02*
X137375680Y-121815380D01*
X130187380Y-120451580D02*
X131551180Y-121815380D01*
%TO.N,Net-(J6-Pin_2)*%
X135085580Y-118782280D02*
X130194280Y-118782280D01*
X139175680Y-119683680D02*
X138875680Y-119983680D01*
X130194280Y-118782280D02*
X129035680Y-117623680D01*
X138875680Y-119983680D02*
X138875680Y-120963680D01*
%TO.N,Net-(J6-Pin_6)*%
X139127880Y-118522580D02*
X137875680Y-119774780D01*
X140016980Y-118488680D02*
X140975680Y-118488680D01*
X137875680Y-119774780D02*
X137875680Y-120963680D01*
X139983080Y-118522580D02*
X140016980Y-118488680D01*
X139525680Y-118522580D02*
X139127880Y-118522580D01*
X139525680Y-118522580D02*
X139983080Y-118522580D01*
%TO.N,Net-(J6-Pin_4)*%
X138027380Y-117681680D02*
X138193680Y-117515380D01*
X138875680Y-116663680D02*
X138875680Y-117515380D01*
X136885180Y-117917080D02*
X135405280Y-116437180D01*
X134557980Y-116437180D02*
X134528880Y-116466280D01*
X134528880Y-116466280D02*
X132733080Y-116466280D01*
X135405280Y-116437180D02*
X134557980Y-116437180D01*
X132733080Y-116466280D02*
X131575680Y-117623680D01*
X138193680Y-117515380D02*
X138875680Y-117515380D01*
X138027380Y-117681680D02*
X138193680Y-117515380D01*
X134557980Y-116437180D02*
X134528880Y-116466280D01*
X137791980Y-117917080D02*
X136885180Y-117917080D01*
X138027380Y-117681680D02*
X137791980Y-117917080D01*
%TO.N,Net-(JP1-B)*%
X156944680Y-116528280D02*
X156944680Y-112142280D01*
X157195680Y-110383680D02*
X157340680Y-110383680D01*
X161205680Y-103579780D02*
X160884180Y-103901280D01*
X156891880Y-118269880D02*
X156891880Y-116581080D01*
X157585680Y-118963680D02*
X156891880Y-118269880D01*
X156891880Y-116581080D02*
X156944680Y-116528280D01*
X156944680Y-112142280D02*
X158498280Y-110588680D01*
X159225680Y-110588680D02*
X158861980Y-110588680D01*
X161205680Y-102873680D02*
X161205680Y-103579780D01*
X160884180Y-104542180D02*
X161715680Y-105373680D01*
X157545680Y-110588680D02*
X158861980Y-110588680D01*
X157340680Y-110383680D02*
X157545680Y-110588680D01*
X158498280Y-110588680D02*
X158861980Y-110588680D01*
X160884180Y-103901280D02*
X160884180Y-104542180D01*
%TO.N,Net-(JP2-B)*%
X157738280Y-117261080D02*
X157685680Y-117313680D01*
X158553180Y-106103680D02*
X159460380Y-107010880D01*
X157744534Y-115729769D02*
X157738280Y-115736023D01*
X151634380Y-110953680D02*
X151675280Y-110912780D01*
X158345680Y-106103680D02*
X158553180Y-106103680D01*
X157738280Y-115736023D02*
X157738280Y-117261080D01*
X151675280Y-110912780D02*
X151675280Y-110394580D01*
X152781180Y-109288680D02*
X153500680Y-109288680D01*
X151675280Y-110394580D02*
X152781180Y-109288680D01*
%TO.N,Net-(JP3-B)*%
X151392280Y-111883680D02*
X150935680Y-111427080D01*
X154905680Y-109259380D02*
X154284980Y-108638680D01*
X154905380Y-109338680D02*
X154945180Y-109298880D01*
X150935680Y-111427080D02*
X150935680Y-110505880D01*
X151555680Y-112047080D02*
X151710880Y-112202280D01*
X159752080Y-118722280D02*
X159510680Y-118963680D01*
X159752080Y-117077280D02*
X159752080Y-118722280D01*
X160025680Y-116803680D02*
X159752080Y-117077280D01*
X151555680Y-111883680D02*
X151392280Y-111883680D01*
X152802880Y-108638680D02*
X153500680Y-108638680D01*
X154905680Y-109433680D02*
X154905680Y-109259380D01*
X154284980Y-108638680D02*
X153500680Y-108638680D01*
X150935680Y-110505880D02*
X152802880Y-108638680D01*
X151555680Y-111883680D02*
X151555680Y-112047080D01*
%TO.N,Net-(U3-~{RESET})*%
X154840065Y-110133065D02*
X154461685Y-110133065D01*
X154840680Y-110133680D02*
X154840065Y-110133065D01*
X154510680Y-107263680D02*
X155775680Y-108528680D01*
X155775680Y-108528680D02*
X155775680Y-109593680D01*
X155235680Y-110133680D02*
X154840680Y-110133680D01*
X155775680Y-109593680D02*
X155235680Y-110133680D01*
X154267300Y-109938680D02*
X153500680Y-109938680D01*
X154461685Y-110133065D02*
X154267300Y-109938680D01*
%TO.N,BOOT*%
X155261480Y-95555980D02*
X153691680Y-97125780D01*
X155261480Y-92254080D02*
X155261480Y-95555980D01*
X153691680Y-103458380D02*
X153691580Y-103458380D01*
X150224980Y-106470680D02*
X150100680Y-106594980D01*
X150100680Y-106594980D02*
X150100680Y-107738680D01*
X153691680Y-97125780D02*
X153691680Y-103458380D01*
%TD*%
%TA.AperFunction,Conductor*%
%TO.N,GND*%
G36*
X145456353Y-105969039D02*
G01*
X145462860Y-105975096D01*
X147261657Y-107773893D01*
X149242764Y-109755000D01*
X149242766Y-109755001D01*
X149242770Y-109755004D01*
X149364346Y-109825195D01*
X149379696Y-109834057D01*
X149532423Y-109874981D01*
X149532425Y-109874981D01*
X149698134Y-109874981D01*
X149698150Y-109874980D01*
X149711180Y-109874980D01*
X149778219Y-109894665D01*
X149823974Y-109947469D01*
X149835180Y-109998980D01*
X149835180Y-111671210D01*
X149835179Y-111671228D01*
X149835179Y-111836934D01*
X149835178Y-111836934D01*
X149876103Y-111989665D01*
X149898049Y-112027675D01*
X149898050Y-112027679D01*
X149955155Y-112126589D01*
X149955161Y-112126597D01*
X150074029Y-112245465D01*
X150074035Y-112245470D01*
X150197461Y-112368896D01*
X150230946Y-112430219D01*
X150233780Y-112456577D01*
X150233780Y-113813010D01*
X150233779Y-113813028D01*
X150233779Y-113978734D01*
X150233778Y-113978734D01*
X150245609Y-114022887D01*
X150274703Y-114131465D01*
X150295901Y-114168180D01*
X150295903Y-114168183D01*
X150339935Y-114244452D01*
X150356406Y-114312353D01*
X150350680Y-114328896D01*
X150350680Y-116613680D01*
X150648508Y-116613680D01*
X150648524Y-116613679D01*
X150708052Y-116607278D01*
X150708059Y-116607276D01*
X150842766Y-116557034D01*
X150842773Y-116557030D01*
X150957867Y-116470870D01*
X150957870Y-116470867D01*
X151044030Y-116355773D01*
X151044034Y-116355766D01*
X151094276Y-116221059D01*
X151094278Y-116221052D01*
X151100679Y-116161524D01*
X151100680Y-116161507D01*
X151100680Y-116127277D01*
X151120365Y-116060238D01*
X151173169Y-116014483D01*
X151242327Y-116004539D01*
X151305883Y-116033564D01*
X151312358Y-116039593D01*
X151825445Y-116552681D01*
X152323861Y-117051097D01*
X152357346Y-117112420D01*
X152360180Y-117138778D01*
X152360180Y-117562849D01*
X152360181Y-117562867D01*
X152370505Y-117663932D01*
X152424772Y-117827695D01*
X152424773Y-117827698D01*
X152447769Y-117864980D01*
X152515339Y-117974529D01*
X152515341Y-117974531D01*
X152529662Y-117988852D01*
X152563147Y-118050175D01*
X152558163Y-118119867D01*
X152529665Y-118164212D01*
X152515732Y-118178145D01*
X152425231Y-118324868D01*
X152425226Y-118324879D01*
X152370999Y-118488527D01*
X152360680Y-118589525D01*
X152360680Y-118688680D01*
X154310679Y-118688680D01*
X154310679Y-118589540D01*
X154310678Y-118589525D01*
X154300360Y-118488527D01*
X154246133Y-118324879D01*
X154246128Y-118324868D01*
X154155627Y-118178145D01*
X154155624Y-118178141D01*
X154141697Y-118164214D01*
X154108212Y-118102891D01*
X154113196Y-118033199D01*
X154141697Y-117988852D01*
X154156020Y-117974530D01*
X154246588Y-117827696D01*
X154300854Y-117663933D01*
X154307419Y-117599672D01*
X154308125Y-117592762D01*
X154334521Y-117528070D01*
X154391702Y-117487918D01*
X154461513Y-117485055D01*
X154478925Y-117490799D01*
X154528614Y-117511381D01*
X154528617Y-117511381D01*
X154528621Y-117511383D01*
X154690992Y-117543680D01*
X154690995Y-117543681D01*
X154755416Y-117543681D01*
X154822455Y-117563366D01*
X154868210Y-117616170D01*
X154878774Y-117655079D01*
X154883499Y-117701332D01*
X154937726Y-117864980D01*
X154937731Y-117864991D01*
X155032026Y-118017865D01*
X155030789Y-118018627D01*
X155053898Y-118075918D01*
X155040852Y-118144559D01*
X155018172Y-118175705D01*
X154928232Y-118265645D01*
X154837731Y-118412368D01*
X154837726Y-118412379D01*
X154783499Y-118576027D01*
X154773180Y-118677025D01*
X154773180Y-118713680D01*
X155510680Y-118713680D01*
X155510680Y-117982680D01*
X155530365Y-117915641D01*
X155583169Y-117869886D01*
X155604007Y-117865352D01*
X155610680Y-117858680D01*
X155610680Y-117437680D01*
X155630365Y-117370641D01*
X155683169Y-117324886D01*
X155734680Y-117313680D01*
X155986680Y-117313680D01*
X156053719Y-117333365D01*
X156099474Y-117386169D01*
X156110680Y-117437680D01*
X156110680Y-118294680D01*
X156090995Y-118361719D01*
X156038191Y-118407474D01*
X156017352Y-118412007D01*
X156010680Y-118418680D01*
X156010680Y-119938679D01*
X156059820Y-119938679D01*
X156059834Y-119938678D01*
X156160832Y-119928360D01*
X156324480Y-119874133D01*
X156324491Y-119874128D01*
X156471213Y-119783628D01*
X156585144Y-119669697D01*
X156646467Y-119636212D01*
X156716159Y-119641196D01*
X156760507Y-119669697D01*
X156874830Y-119784020D01*
X157021664Y-119874588D01*
X157185427Y-119928854D01*
X157286503Y-119939180D01*
X157884856Y-119939179D01*
X157884864Y-119939178D01*
X157884867Y-119939178D01*
X157957465Y-119931762D01*
X157985933Y-119928854D01*
X158149696Y-119874588D01*
X158296530Y-119784020D01*
X158418520Y-119662030D01*
X158442641Y-119622922D01*
X158494588Y-119576198D01*
X158563551Y-119564975D01*
X158627633Y-119592818D01*
X158653717Y-119622921D01*
X158666152Y-119643081D01*
X158677647Y-119661718D01*
X158677840Y-119662030D01*
X158799830Y-119784020D01*
X158946664Y-119874588D01*
X159110427Y-119928854D01*
X159211503Y-119939180D01*
X159809856Y-119939179D01*
X159809864Y-119939178D01*
X159809867Y-119939178D01*
X159882465Y-119931762D01*
X159910933Y-119928854D01*
X160074696Y-119874588D01*
X160221530Y-119784020D01*
X160335855Y-119669694D01*
X160397174Y-119636212D01*
X160466866Y-119641196D01*
X160511214Y-119669697D01*
X160625141Y-119783624D01*
X160625145Y-119783627D01*
X160771868Y-119874128D01*
X160771879Y-119874133D01*
X160935527Y-119928360D01*
X161036531Y-119938679D01*
X161085679Y-119938678D01*
X161085680Y-119938678D01*
X161085680Y-119087680D01*
X161105365Y-119020641D01*
X161158169Y-118974886D01*
X161209680Y-118963680D01*
X161461680Y-118963680D01*
X161528719Y-118983365D01*
X161574474Y-119036169D01*
X161585680Y-119087680D01*
X161585680Y-119938679D01*
X161634820Y-119938679D01*
X161634834Y-119938678D01*
X161735832Y-119928360D01*
X161899480Y-119874133D01*
X161899491Y-119874128D01*
X161994357Y-119815614D01*
X162022868Y-119807812D01*
X162050575Y-119797470D01*
X162056198Y-119798691D01*
X162061749Y-119797173D01*
X162089960Y-119806026D01*
X162118852Y-119812304D01*
X162125273Y-119817109D01*
X162128413Y-119818095D01*
X162147112Y-119833448D01*
X162149012Y-119835347D01*
X162149013Y-119835349D01*
X162149029Y-119835365D01*
X162149035Y-119835370D01*
X163288219Y-120974554D01*
X163288229Y-120974565D01*
X163292559Y-120978895D01*
X163292560Y-120978896D01*
X163404364Y-121090700D01*
X163475990Y-121132052D01*
X163491175Y-121140819D01*
X163491177Y-121140821D01*
X163541293Y-121169756D01*
X163541295Y-121169757D01*
X163694022Y-121210680D01*
X163694023Y-121210680D01*
X166208783Y-121210680D01*
X166275822Y-121230365D01*
X166321577Y-121283169D01*
X166331521Y-121352327D01*
X166302496Y-121415883D01*
X166296464Y-121422361D01*
X165241964Y-122476861D01*
X165180641Y-122510346D01*
X165154283Y-122513180D01*
X162386399Y-122513180D01*
X162319360Y-122493495D01*
X162275915Y-122445475D01*
X162255732Y-122405865D01*
X162255731Y-122405864D01*
X162130789Y-122233893D01*
X161980466Y-122083570D01*
X161808500Y-121958631D01*
X161619094Y-121862124D01*
X161619093Y-121862123D01*
X161619092Y-121862123D01*
X161416923Y-121796434D01*
X161416921Y-121796433D01*
X161416920Y-121796433D01*
X161255637Y-121770888D01*
X161206967Y-121763180D01*
X160994393Y-121763180D01*
X160945722Y-121770888D01*
X160784440Y-121796433D01*
X160582265Y-121862124D01*
X160392859Y-121958631D01*
X160220895Y-122083569D01*
X160107353Y-122197111D01*
X160046030Y-122230595D01*
X159976338Y-122225611D01*
X159920405Y-122183739D01*
X159903490Y-122152762D01*
X159854477Y-122021351D01*
X159854473Y-122021344D01*
X159768227Y-121906135D01*
X159768224Y-121906132D01*
X159653015Y-121819886D01*
X159653008Y-121819882D01*
X159518162Y-121769588D01*
X159518163Y-121769588D01*
X159458563Y-121763181D01*
X159458561Y-121763180D01*
X159458553Y-121763180D01*
X159458544Y-121763180D01*
X157662809Y-121763180D01*
X157662803Y-121763181D01*
X157603196Y-121769588D01*
X157468351Y-121819882D01*
X157468344Y-121819886D01*
X157353135Y-121906132D01*
X157353132Y-121906135D01*
X157266886Y-122021344D01*
X157266882Y-122021351D01*
X157216588Y-122156197D01*
X157210181Y-122215796D01*
X157210180Y-122215815D01*
X157210180Y-124011550D01*
X157210181Y-124011556D01*
X157216588Y-124071163D01*
X157266882Y-124206008D01*
X157266886Y-124206015D01*
X157353132Y-124321224D01*
X157353135Y-124321227D01*
X157468344Y-124407473D01*
X157468351Y-124407477D01*
X157603197Y-124457771D01*
X157603196Y-124457771D01*
X157610124Y-124458515D01*
X157662807Y-124464180D01*
X159458552Y-124464179D01*
X159518163Y-124457771D01*
X159653011Y-124407476D01*
X159768226Y-124321226D01*
X159854476Y-124206011D01*
X159903490Y-124074596D01*
X159945361Y-124018664D01*
X160010825Y-123994246D01*
X160079098Y-124009097D01*
X160107353Y-124030249D01*
X160220893Y-124143789D01*
X160392859Y-124268728D01*
X160392861Y-124268729D01*
X160392864Y-124268731D01*
X160582268Y-124365237D01*
X160784437Y-124430926D01*
X160994393Y-124464180D01*
X160994394Y-124464180D01*
X161206966Y-124464180D01*
X161206967Y-124464180D01*
X161416923Y-124430926D01*
X161619092Y-124365237D01*
X161808496Y-124268731D01*
X161894818Y-124206015D01*
X161980466Y-124143789D01*
X161980468Y-124143786D01*
X161980472Y-124143784D01*
X162130784Y-123993472D01*
X162130786Y-123993468D01*
X162130789Y-123993466D01*
X162189341Y-123912873D01*
X162255731Y-123821496D01*
X162256029Y-123820910D01*
X162275915Y-123781885D01*
X162323889Y-123731089D01*
X162386399Y-123714180D01*
X165367711Y-123714180D01*
X165367727Y-123714181D01*
X165375323Y-123714181D01*
X165533434Y-123714181D01*
X165533437Y-123714181D01*
X165686165Y-123673257D01*
X165736493Y-123644200D01*
X165736494Y-123644200D01*
X165823089Y-123594204D01*
X165823088Y-123594204D01*
X165823096Y-123594200D01*
X165934900Y-123482396D01*
X165934900Y-123482394D01*
X165945104Y-123472191D01*
X165945108Y-123472186D01*
X168739393Y-120677901D01*
X168739396Y-120677900D01*
X168776026Y-120641269D01*
X168817779Y-120618471D01*
X168837344Y-120607788D01*
X168837345Y-120607788D01*
X168837347Y-120607787D01*
X168881238Y-120610927D01*
X168907035Y-120612772D01*
X168907036Y-120612772D01*
X168907039Y-120612773D01*
X168907053Y-120612784D01*
X168951384Y-120641273D01*
X168963517Y-120653406D01*
X169000177Y-120677901D01*
X169102817Y-120746483D01*
X169102818Y-120746483D01*
X169102819Y-120746484D01*
X169137881Y-120761007D01*
X169257598Y-120810596D01*
X169388677Y-120836669D01*
X169421908Y-120843279D01*
X169421912Y-120843280D01*
X169421913Y-120843280D01*
X169589448Y-120843280D01*
X169589449Y-120843279D01*
X169753762Y-120810596D01*
X169908543Y-120746483D01*
X170022931Y-120670051D01*
X170052907Y-120650022D01*
X170053617Y-120651085D01*
X170111812Y-120626362D01*
X170180681Y-120638146D01*
X170232246Y-120685293D01*
X170250180Y-120749527D01*
X170250180Y-122291083D01*
X170250179Y-122291087D01*
X170250179Y-122308080D01*
X170250179Y-122321744D01*
X170250179Y-122335203D01*
X170249984Y-122342155D01*
X170233598Y-122633979D01*
X170232041Y-122647797D01*
X170183667Y-122932510D01*
X170180573Y-122946067D01*
X170100624Y-123223584D01*
X170096031Y-123236710D01*
X169985517Y-123503516D01*
X169979484Y-123516044D01*
X169839786Y-123768810D01*
X169832388Y-123780584D01*
X169665270Y-124016115D01*
X169656600Y-124026987D01*
X169464161Y-124242328D01*
X169454328Y-124252161D01*
X169238987Y-124444600D01*
X169228115Y-124453270D01*
X168992584Y-124620388D01*
X168980810Y-124627786D01*
X168728044Y-124767484D01*
X168715516Y-124773517D01*
X168448710Y-124884031D01*
X168435584Y-124888624D01*
X168158067Y-124968573D01*
X168144510Y-124971667D01*
X167859797Y-125020041D01*
X167845979Y-125021598D01*
X167554155Y-125037984D01*
X167547205Y-125038179D01*
X167523731Y-125038179D01*
X167503087Y-125038179D01*
X167503084Y-125038179D01*
X167493089Y-125038180D01*
X167493088Y-125038179D01*
X167493087Y-125038180D01*
X129179164Y-125038180D01*
X129172210Y-125037985D01*
X128880388Y-125021594D01*
X128866570Y-125020037D01*
X128581858Y-124971660D01*
X128568302Y-124968566D01*
X128290790Y-124888615D01*
X128277665Y-124884022D01*
X128010855Y-124773504D01*
X127998326Y-124767470D01*
X127745571Y-124627774D01*
X127733797Y-124620376D01*
X127498268Y-124453257D01*
X127487396Y-124444587D01*
X127272055Y-124252144D01*
X127262228Y-124242317D01*
X127069782Y-124026967D01*
X127061123Y-124016108D01*
X126894002Y-123780569D01*
X126886604Y-123768795D01*
X126746913Y-123516038D01*
X126740880Y-123503510D01*
X126727903Y-123472181D01*
X126718854Y-123450334D01*
X136338181Y-123450334D01*
X136348499Y-123551332D01*
X136402726Y-123714980D01*
X136402731Y-123714991D01*
X136493232Y-123861714D01*
X136493235Y-123861718D01*
X136615141Y-123983624D01*
X136615145Y-123983627D01*
X136761868Y-124074128D01*
X136761879Y-124074133D01*
X136925527Y-124128360D01*
X137026531Y-124138679D01*
X137125680Y-124138678D01*
X137125680Y-123413680D01*
X136338181Y-123413680D01*
X136338181Y-123450334D01*
X126718854Y-123450334D01*
X126630364Y-123236698D01*
X126625773Y-123223577D01*
X126614996Y-123186169D01*
X126545824Y-122946061D01*
X126542731Y-122932505D01*
X126522285Y-122812164D01*
X126494356Y-122647784D01*
X126492802Y-122633987D01*
X126476374Y-122341441D01*
X126476180Y-122334491D01*
X126476180Y-122315193D01*
X126476181Y-122291087D01*
X126476180Y-122291083D01*
X126476180Y-114462834D01*
X134800681Y-114462834D01*
X134810999Y-114563832D01*
X134865226Y-114727480D01*
X134865231Y-114727491D01*
X134955732Y-114874214D01*
X134955735Y-114874218D01*
X135077641Y-114996124D01*
X135077645Y-114996127D01*
X135224368Y-115086628D01*
X135224379Y-115086633D01*
X135388027Y-115140860D01*
X135489032Y-115151179D01*
X135525680Y-115151179D01*
X135525680Y-114413680D01*
X134800681Y-114413680D01*
X134800681Y-114462834D01*
X126476180Y-114462834D01*
X126476180Y-110360000D01*
X126495865Y-110292961D01*
X126548669Y-110247206D01*
X126600180Y-110236000D01*
X127915403Y-110236000D01*
X127982442Y-110255685D01*
X128003084Y-110272319D01*
X128020761Y-110289996D01*
X128054246Y-110351319D01*
X128057080Y-110377677D01*
X128057080Y-110400366D01*
X128089377Y-110562737D01*
X128089380Y-110562746D01*
X128152734Y-110715699D01*
X128152741Y-110715712D01*
X128222618Y-110820289D01*
X128243496Y-110886966D01*
X128225012Y-110954346D01*
X128173033Y-111001037D01*
X128119516Y-111013180D01*
X127675678Y-111013180D01*
X127675660Y-111013181D01*
X127572883Y-111023680D01*
X127572880Y-111023681D01*
X127406348Y-111078865D01*
X127406343Y-111078867D01*
X127257022Y-111170969D01*
X127132969Y-111295022D01*
X127040867Y-111444343D01*
X127040865Y-111444348D01*
X127029703Y-111478034D01*
X126985681Y-111610883D01*
X126985681Y-111610884D01*
X126985680Y-111610884D01*
X126975180Y-111713663D01*
X126975180Y-113613681D01*
X126975181Y-113613698D01*
X126985680Y-113716476D01*
X126985681Y-113716479D01*
X127025052Y-113835292D01*
X127040866Y-113883014D01*
X127132968Y-114032336D01*
X127257024Y-114156392D01*
X127406346Y-114248494D01*
X127572883Y-114303679D01*
X127675671Y-114314180D01*
X129775688Y-114314179D01*
X129878477Y-114303679D01*
X130045014Y-114248494D01*
X130194336Y-114156392D01*
X130318392Y-114032336D01*
X130410494Y-113883014D01*
X130465679Y-113716477D01*
X130476180Y-113613689D01*
X130476180Y-113613666D01*
X131275681Y-113613666D01*
X131286174Y-113716377D01*
X131341321Y-113882799D01*
X131341323Y-113882804D01*
X131433364Y-114032025D01*
X131557334Y-114155995D01*
X131706555Y-114248036D01*
X131706560Y-114248038D01*
X131872982Y-114303185D01*
X131872989Y-114303186D01*
X131975699Y-114313679D01*
X132775679Y-114313679D01*
X132775680Y-114313678D01*
X132775680Y-112913680D01*
X131275681Y-112913680D01*
X131275681Y-113613666D01*
X130476180Y-113613666D01*
X130476179Y-112678043D01*
X130476179Y-111813776D01*
X130484825Y-111784329D01*
X130491347Y-111754349D01*
X130495099Y-111749335D01*
X130495863Y-111746737D01*
X130512493Y-111726100D01*
X130524900Y-111713693D01*
X131275680Y-111713693D01*
X131275680Y-112413680D01*
X132775680Y-112413680D01*
X132775680Y-111013680D01*
X131975708Y-111013680D01*
X131975692Y-111013681D01*
X131872982Y-111024174D01*
X131706560Y-111079321D01*
X131706555Y-111079323D01*
X131557334Y-111171364D01*
X131433364Y-111295334D01*
X131341323Y-111444555D01*
X131341321Y-111444560D01*
X131286174Y-111610982D01*
X131286173Y-111610989D01*
X131275680Y-111713693D01*
X130524900Y-111713693D01*
X131184186Y-111054408D01*
X131184191Y-111054404D01*
X131194394Y-111044200D01*
X131194396Y-111044200D01*
X131306200Y-110932396D01*
X131385257Y-110795464D01*
X131423962Y-110651014D01*
X131423962Y-110651013D01*
X131423963Y-110651013D01*
X131423963Y-110651009D01*
X131426180Y-110642738D01*
X131426180Y-110484623D01*
X131426180Y-110360000D01*
X131445865Y-110292961D01*
X131498669Y-110247206D01*
X131550180Y-110236000D01*
X134913481Y-110236000D01*
X134980520Y-110255685D01*
X135026275Y-110308489D01*
X135036219Y-110377647D01*
X135016583Y-110428891D01*
X134977670Y-110487127D01*
X134977663Y-110487139D01*
X134909786Y-110651012D01*
X134909783Y-110651021D01*
X134875180Y-110824984D01*
X134875180Y-111002375D01*
X134909783Y-111176338D01*
X134909786Y-111176347D01*
X134977663Y-111340220D01*
X134977670Y-111340233D01*
X135027384Y-111414634D01*
X135036871Y-111444933D01*
X135047966Y-111474679D01*
X135047236Y-111478034D01*
X135048262Y-111481311D01*
X135039862Y-111511929D01*
X135033114Y-111542952D01*
X135030333Y-111546666D01*
X135029778Y-111548691D01*
X135011963Y-111571206D01*
X134958859Y-111624310D01*
X134897536Y-111657795D01*
X134827844Y-111652811D01*
X134771911Y-111610939D01*
X134753472Y-111575633D01*
X134710038Y-111444560D01*
X134710036Y-111444555D01*
X134617995Y-111295334D01*
X134494025Y-111171364D01*
X134344804Y-111079323D01*
X134344799Y-111079321D01*
X134178377Y-111024174D01*
X134178370Y-111024173D01*
X134075666Y-111013680D01*
X133275680Y-111013680D01*
X133275680Y-114313679D01*
X134075652Y-114313679D01*
X134075666Y-114313678D01*
X134178377Y-114303185D01*
X134344801Y-114248037D01*
X134494025Y-114155995D01*
X134617995Y-114032025D01*
X134654660Y-113972583D01*
X134706608Y-113925859D01*
X134760199Y-113913680D01*
X135651680Y-113913680D01*
X135718719Y-113933365D01*
X135764474Y-113986169D01*
X135775680Y-114037680D01*
X135775680Y-114163680D01*
X135897147Y-114163680D01*
X135964186Y-114183365D01*
X136009941Y-114236169D01*
X136019885Y-114305327D01*
X136000249Y-114356571D01*
X135960841Y-114415548D01*
X135960834Y-114415560D01*
X135897480Y-114568513D01*
X135897477Y-114568522D01*
X135865180Y-114730893D01*
X135865180Y-114896466D01*
X135897477Y-115058837D01*
X135897480Y-115058846D01*
X135960834Y-115211799D01*
X135960841Y-115211812D01*
X136052820Y-115349467D01*
X136052823Y-115349471D01*
X136169888Y-115466536D01*
X136169892Y-115466539D01*
X136307547Y-115558518D01*
X136307560Y-115558525D01*
X136357258Y-115579110D01*
X136460515Y-115621880D01*
X136460517Y-115621880D01*
X136460522Y-115621882D01*
X136622893Y-115654179D01*
X136622896Y-115654180D01*
X136622898Y-115654180D01*
X136651180Y-115654180D01*
X136659865Y-115656730D01*
X136668827Y-115655442D01*
X136692867Y-115666420D01*
X136718219Y-115673865D01*
X136724146Y-115680705D01*
X136732383Y-115684467D01*
X136746672Y-115706701D01*
X136763974Y-115726669D01*
X136766261Y-115737183D01*
X136770157Y-115743245D01*
X136775180Y-115778180D01*
X136775180Y-115933979D01*
X136767362Y-115977312D01*
X136756588Y-116006196D01*
X136750181Y-116065796D01*
X136750180Y-116065815D01*
X136750180Y-116633483D01*
X136730495Y-116700522D01*
X136677691Y-116746277D01*
X136608533Y-116756221D01*
X136544977Y-116727196D01*
X136538499Y-116721164D01*
X135892870Y-116075535D01*
X135892868Y-116075532D01*
X135773997Y-115956661D01*
X135773989Y-115956655D01*
X135684349Y-115904902D01*
X135684348Y-115904902D01*
X135647410Y-115883576D01*
X135637065Y-115877603D01*
X135484337Y-115836679D01*
X135326223Y-115836679D01*
X135318627Y-115836679D01*
X135318611Y-115836680D01*
X134644650Y-115836680D01*
X134644634Y-115836679D01*
X134637038Y-115836679D01*
X134478923Y-115836679D01*
X134386087Y-115861555D01*
X134353993Y-115865780D01*
X132819750Y-115865780D01*
X132819734Y-115865779D01*
X132812138Y-115865779D01*
X132654023Y-115865779D01*
X132587605Y-115883576D01*
X132501294Y-115906703D01*
X132501289Y-115906706D01*
X132364370Y-115985755D01*
X132364362Y-115985761D01*
X132060202Y-116289921D01*
X131998879Y-116323406D01*
X131934203Y-116320171D01*
X131891925Y-116306434D01*
X131729907Y-116280773D01*
X131681967Y-116273180D01*
X131469393Y-116273180D01*
X131421497Y-116280766D01*
X131259440Y-116306433D01*
X131057265Y-116372124D01*
X130867859Y-116468631D01*
X130695893Y-116593570D01*
X130545570Y-116743893D01*
X130420629Y-116915862D01*
X130416164Y-116924626D01*
X130368189Y-116975422D01*
X130300368Y-116992216D01*
X130234233Y-116969678D01*
X130195196Y-116924626D01*
X130190730Y-116915862D01*
X130065789Y-116743893D01*
X129915466Y-116593570D01*
X129743500Y-116468631D01*
X129554094Y-116372124D01*
X129554093Y-116372123D01*
X129554092Y-116372123D01*
X129351923Y-116306434D01*
X129351921Y-116306433D01*
X129351920Y-116306433D01*
X129189863Y-116280766D01*
X129141967Y-116273180D01*
X128929393Y-116273180D01*
X128881497Y-116280766D01*
X128719440Y-116306433D01*
X128517265Y-116372124D01*
X128327859Y-116468631D01*
X128155893Y-116593570D01*
X128005570Y-116743893D01*
X127880631Y-116915859D01*
X127784124Y-117105265D01*
X127718433Y-117307440D01*
X127685180Y-117517393D01*
X127685180Y-117729966D01*
X127713460Y-117908522D01*
X127718434Y-117939923D01*
X127781500Y-118134020D01*
X127784124Y-118142094D01*
X127880631Y-118331500D01*
X128005570Y-118503466D01*
X128119110Y-118617006D01*
X128152595Y-118678329D01*
X128147611Y-118748021D01*
X128105739Y-118803954D01*
X128074763Y-118820869D01*
X127943349Y-118869883D01*
X127943344Y-118869886D01*
X127828135Y-118956132D01*
X127828132Y-118956135D01*
X127741886Y-119071344D01*
X127741882Y-119071351D01*
X127691588Y-119206197D01*
X127685181Y-119265796D01*
X127685180Y-119265815D01*
X127685180Y-121061550D01*
X127685181Y-121061556D01*
X127691588Y-121121163D01*
X127741882Y-121256008D01*
X127741886Y-121256015D01*
X127828132Y-121371224D01*
X127828135Y-121371227D01*
X127943344Y-121457473D01*
X127943351Y-121457477D01*
X128078197Y-121507771D01*
X128078196Y-121507771D01*
X128085124Y-121508515D01*
X128137807Y-121514180D01*
X129933552Y-121514179D01*
X129993163Y-121507771D01*
X130128011Y-121457476D01*
X130165540Y-121429381D01*
X130231003Y-121404964D01*
X130299276Y-121419815D01*
X130327532Y-121440967D01*
X131066319Y-122179754D01*
X131066329Y-122179765D01*
X131070659Y-122184095D01*
X131070660Y-122184096D01*
X131182464Y-122295900D01*
X131182466Y-122295901D01*
X131182470Y-122295904D01*
X131319389Y-122374953D01*
X131319396Y-122374957D01*
X131426476Y-122403649D01*
X131426475Y-122403649D01*
X131434742Y-122405864D01*
X131472122Y-122415880D01*
X131472123Y-122415880D01*
X131472124Y-122415880D01*
X136301753Y-122415880D01*
X136368792Y-122435565D01*
X136414547Y-122488369D01*
X136424491Y-122557527D01*
X136407291Y-122604978D01*
X136402729Y-122612372D01*
X136402726Y-122612379D01*
X136348499Y-122776027D01*
X136338180Y-122877025D01*
X136338180Y-122913680D01*
X137251680Y-122913680D01*
X137318719Y-122933365D01*
X137364474Y-122986169D01*
X137375680Y-123037680D01*
X137375680Y-123163680D01*
X137501680Y-123163680D01*
X137568719Y-123183365D01*
X137614474Y-123236169D01*
X137625680Y-123287680D01*
X137625680Y-124138679D01*
X137724820Y-124138679D01*
X137724834Y-124138678D01*
X137825832Y-124128360D01*
X137989480Y-124074133D01*
X137989491Y-124074128D01*
X138136215Y-123983627D01*
X138150140Y-123969701D01*
X138211462Y-123936213D01*
X138281153Y-123941194D01*
X138325507Y-123969697D01*
X138339830Y-123984020D01*
X138486664Y-124074588D01*
X138650427Y-124128854D01*
X138751503Y-124139180D01*
X139449856Y-124139179D01*
X139449864Y-124139178D01*
X139449867Y-124139178D01*
X139505210Y-124133524D01*
X139550933Y-124128854D01*
X139714696Y-124074588D01*
X139861530Y-123984020D01*
X139983520Y-123862030D01*
X140074088Y-123715196D01*
X140095581Y-123650334D01*
X140613181Y-123650334D01*
X140623499Y-123751332D01*
X140677726Y-123914980D01*
X140677731Y-123914991D01*
X140768232Y-124061714D01*
X140768235Y-124061718D01*
X140890141Y-124183624D01*
X140890145Y-124183627D01*
X141036868Y-124274128D01*
X141036879Y-124274133D01*
X141200527Y-124328360D01*
X141301531Y-124338679D01*
X141400680Y-124338678D01*
X141400680Y-123613680D01*
X140613181Y-123613680D01*
X140613181Y-123650334D01*
X140095581Y-123650334D01*
X140128354Y-123551433D01*
X140138680Y-123450357D01*
X140138679Y-123040619D01*
X140158363Y-122973581D01*
X140211167Y-122927826D01*
X140266399Y-122916676D01*
X140276732Y-122916986D01*
X140312898Y-122924180D01*
X140478462Y-122924180D01*
X140483435Y-122923190D01*
X140495272Y-122923546D01*
X140521214Y-122932016D01*
X140548032Y-122937100D01*
X140553945Y-122942704D01*
X140561691Y-122945233D01*
X140578935Y-122966384D01*
X140598748Y-122985159D01*
X140600693Y-122993072D01*
X140605841Y-122999386D01*
X140608912Y-123026502D01*
X140615429Y-123053008D01*
X140614910Y-123060089D01*
X140613181Y-123077016D01*
X140613180Y-123077038D01*
X140613180Y-123113680D01*
X141526680Y-123113680D01*
X141593719Y-123133365D01*
X141639474Y-123186169D01*
X141650680Y-123237680D01*
X141650680Y-123363680D01*
X141776680Y-123363680D01*
X141843719Y-123383365D01*
X141889474Y-123436169D01*
X141900680Y-123487680D01*
X141900680Y-124338679D01*
X141999820Y-124338679D01*
X141999834Y-124338678D01*
X142100832Y-124328360D01*
X142264480Y-124274133D01*
X142264491Y-124274128D01*
X142411215Y-124183627D01*
X142425140Y-124169701D01*
X142486462Y-124136213D01*
X142556153Y-124141194D01*
X142600507Y-124169697D01*
X142614830Y-124184020D01*
X142761664Y-124274588D01*
X142925427Y-124328854D01*
X143026503Y-124339180D01*
X143724856Y-124339179D01*
X143724864Y-124339178D01*
X143724867Y-124339178D01*
X143780210Y-124333524D01*
X143825933Y-124328854D01*
X143989696Y-124274588D01*
X144136530Y-124184020D01*
X144258520Y-124062030D01*
X144349088Y-123915196D01*
X144403354Y-123751433D01*
X144413680Y-123650357D01*
X144413679Y-123077004D01*
X144409962Y-123040620D01*
X144403354Y-122975927D01*
X144393459Y-122946067D01*
X144349088Y-122812164D01*
X144258520Y-122665330D01*
X144203902Y-122610712D01*
X144170418Y-122549388D01*
X144175403Y-122479696D01*
X144186046Y-122457934D01*
X144199844Y-122435565D01*
X144274088Y-122315196D01*
X144328354Y-122151433D01*
X144338680Y-122050357D01*
X144338679Y-121477004D01*
X144336684Y-121457477D01*
X144328354Y-121375927D01*
X144320534Y-121352327D01*
X144274088Y-121212164D01*
X144222344Y-121128274D01*
X144203905Y-121060883D01*
X144224828Y-120994220D01*
X144278470Y-120949450D01*
X144327879Y-120939179D01*
X144924856Y-120939179D01*
X144924864Y-120939178D01*
X144924867Y-120939178D01*
X144980210Y-120933524D01*
X145025933Y-120928854D01*
X145189696Y-120874588D01*
X145336530Y-120784020D01*
X145450499Y-120670051D01*
X145511822Y-120636566D01*
X145581514Y-120641550D01*
X145625861Y-120670051D01*
X145739830Y-120784020D01*
X145886664Y-120874588D01*
X146050427Y-120928854D01*
X146151503Y-120939180D01*
X146749856Y-120939179D01*
X146749864Y-120939178D01*
X146749867Y-120939178D01*
X146805210Y-120933524D01*
X146850933Y-120928854D01*
X147014696Y-120874588D01*
X147161530Y-120784020D01*
X147283520Y-120662030D01*
X147307542Y-120623084D01*
X147359490Y-120576359D01*
X147413081Y-120564180D01*
X148510583Y-120564180D01*
X148577622Y-120583865D01*
X148598264Y-120600499D01*
X150601921Y-122604156D01*
X150635406Y-122665479D01*
X150632172Y-122730153D01*
X150618433Y-122772437D01*
X150587716Y-122966384D01*
X150585180Y-122982393D01*
X150585180Y-123194967D01*
X150591945Y-123237680D01*
X150615019Y-123383365D01*
X150618434Y-123404923D01*
X150679935Y-123594204D01*
X150684124Y-123607094D01*
X150780631Y-123796500D01*
X150905570Y-123968466D01*
X151055893Y-124118789D01*
X151227859Y-124243728D01*
X151227861Y-124243729D01*
X151227864Y-124243731D01*
X151417268Y-124340237D01*
X151619437Y-124405926D01*
X151829393Y-124439180D01*
X151829394Y-124439180D01*
X152041966Y-124439180D01*
X152041967Y-124439180D01*
X152251923Y-124405926D01*
X152454092Y-124340237D01*
X152643496Y-124243731D01*
X152725682Y-124184020D01*
X152815464Y-124118790D01*
X152815464Y-124118789D01*
X152815472Y-124118784D01*
X152929009Y-124005246D01*
X152990328Y-123971764D01*
X153060020Y-123976748D01*
X153115954Y-124018619D01*
X153132869Y-124049597D01*
X153181882Y-124181008D01*
X153181886Y-124181015D01*
X153268132Y-124296224D01*
X153268135Y-124296227D01*
X153383344Y-124382473D01*
X153383351Y-124382477D01*
X153518197Y-124432771D01*
X153518196Y-124432771D01*
X153525124Y-124433515D01*
X153577807Y-124439180D01*
X155373552Y-124439179D01*
X155433163Y-124432771D01*
X155568011Y-124382476D01*
X155683226Y-124296226D01*
X155769476Y-124181011D01*
X155819771Y-124046163D01*
X155826180Y-123986553D01*
X155826179Y-122190808D01*
X155819771Y-122131197D01*
X155818490Y-122127763D01*
X155769477Y-121996351D01*
X155769473Y-121996344D01*
X155683227Y-121881135D01*
X155683224Y-121881132D01*
X155568015Y-121794886D01*
X155568008Y-121794882D01*
X155433162Y-121744588D01*
X155433163Y-121744588D01*
X155373563Y-121738181D01*
X155373561Y-121738180D01*
X155373553Y-121738180D01*
X155373544Y-121738180D01*
X153577809Y-121738180D01*
X153577803Y-121738181D01*
X153518196Y-121744588D01*
X153383351Y-121794882D01*
X153383344Y-121794886D01*
X153268135Y-121881132D01*
X153268132Y-121881135D01*
X153181886Y-121996344D01*
X153181883Y-121996349D01*
X153132869Y-122127763D01*
X153090997Y-122183696D01*
X153025533Y-122208113D01*
X152957260Y-122193261D01*
X152929006Y-122172110D01*
X152815466Y-122058570D01*
X152643500Y-121933631D01*
X152454094Y-121837124D01*
X152454093Y-121837123D01*
X152454092Y-121837123D01*
X152251923Y-121771434D01*
X152251921Y-121771433D01*
X152251920Y-121771433D01*
X152090637Y-121745888D01*
X152041967Y-121738180D01*
X151829393Y-121738180D01*
X151800686Y-121742726D01*
X151619437Y-121771433D01*
X151577153Y-121785172D01*
X151507312Y-121787166D01*
X151451156Y-121754921D01*
X149298270Y-119602035D01*
X149298268Y-119602032D01*
X149179397Y-119483161D01*
X149179396Y-119483160D01*
X149081841Y-119426837D01*
X149081839Y-119426835D01*
X149042468Y-119404104D01*
X149042467Y-119404103D01*
X148981373Y-119387733D01*
X148889737Y-119363179D01*
X148731623Y-119363179D01*
X148724027Y-119363179D01*
X148724011Y-119363180D01*
X147413081Y-119363180D01*
X147410924Y-119362546D01*
X147408748Y-119363104D01*
X147377562Y-119352750D01*
X147346042Y-119343495D01*
X147343904Y-119341576D01*
X147342437Y-119341089D01*
X147337165Y-119335527D01*
X147316588Y-119317058D01*
X147311658Y-119310950D01*
X147297400Y-119287834D01*
X152360681Y-119287834D01*
X152370999Y-119388832D01*
X152425226Y-119552480D01*
X152425231Y-119552491D01*
X152515732Y-119699214D01*
X152515735Y-119699218D01*
X152637641Y-119821124D01*
X152637645Y-119821127D01*
X152784368Y-119911628D01*
X152784379Y-119911633D01*
X152948027Y-119965860D01*
X153049032Y-119976179D01*
X153085680Y-119976179D01*
X153585680Y-119976179D01*
X153622320Y-119976179D01*
X153622334Y-119976178D01*
X153723332Y-119965860D01*
X153886980Y-119911633D01*
X153886991Y-119911628D01*
X154033714Y-119821127D01*
X154033718Y-119821124D01*
X154155624Y-119699218D01*
X154155627Y-119699214D01*
X154246128Y-119552491D01*
X154246133Y-119552480D01*
X154300360Y-119388832D01*
X154310679Y-119287834D01*
X154310680Y-119287821D01*
X154310680Y-119250334D01*
X154773181Y-119250334D01*
X154783499Y-119351332D01*
X154837726Y-119514980D01*
X154837731Y-119514991D01*
X154928232Y-119661714D01*
X154928235Y-119661718D01*
X155050141Y-119783624D01*
X155050145Y-119783627D01*
X155196868Y-119874128D01*
X155196879Y-119874133D01*
X155360527Y-119928360D01*
X155461531Y-119938679D01*
X155510679Y-119938678D01*
X155510680Y-119938678D01*
X155510680Y-119213680D01*
X154773181Y-119213680D01*
X154773181Y-119250334D01*
X154310680Y-119250334D01*
X154310680Y-119188680D01*
X153585680Y-119188680D01*
X153585680Y-119976179D01*
X153085680Y-119976179D01*
X153085680Y-119188680D01*
X152360681Y-119188680D01*
X152360681Y-119287834D01*
X147297400Y-119287834D01*
X147283520Y-119265330D01*
X147161530Y-119143340D01*
X147063274Y-119082735D01*
X147014698Y-119052773D01*
X147014693Y-119052771D01*
X146976744Y-119040196D01*
X146850933Y-118998506D01*
X146850931Y-118998505D01*
X146749858Y-118988180D01*
X146151510Y-118988180D01*
X146151492Y-118988181D01*
X146050427Y-118998505D01*
X145886664Y-119052772D01*
X145886661Y-119052773D01*
X145739828Y-119143341D01*
X145625861Y-119257309D01*
X145564538Y-119290794D01*
X145494846Y-119285810D01*
X145450499Y-119257309D01*
X145336531Y-119143341D01*
X145336530Y-119143340D01*
X145238274Y-119082735D01*
X145189698Y-119052773D01*
X145189693Y-119052771D01*
X145151744Y-119040196D01*
X145025933Y-118998506D01*
X145025931Y-118998505D01*
X144924858Y-118988180D01*
X144326510Y-118988180D01*
X144326492Y-118988181D01*
X144225427Y-118998505D01*
X144061664Y-119052772D01*
X144061657Y-119052775D01*
X143922092Y-119138860D01*
X143854700Y-119157300D01*
X143788037Y-119136377D01*
X143743267Y-119082735D01*
X143734606Y-119013404D01*
X143739286Y-118994330D01*
X143778354Y-118876433D01*
X143788680Y-118775357D01*
X143788679Y-118699057D01*
X143808363Y-118632020D01*
X143861166Y-118586264D01*
X143930324Y-118576320D01*
X143977776Y-118593519D01*
X143986874Y-118599131D01*
X143986879Y-118599133D01*
X144150527Y-118653360D01*
X144251531Y-118663679D01*
X144350680Y-118663678D01*
X144350680Y-116713679D01*
X144249681Y-116713680D01*
X144182641Y-116693996D01*
X144136886Y-116641192D01*
X144125680Y-116589680D01*
X144125680Y-115163680D01*
X144625680Y-115163680D01*
X145375680Y-115163680D01*
X145375680Y-114740852D01*
X145375679Y-114740835D01*
X145369278Y-114681307D01*
X145369276Y-114681300D01*
X145319034Y-114546593D01*
X145319030Y-114546586D01*
X145232870Y-114431492D01*
X145232867Y-114431489D01*
X145117773Y-114345329D01*
X145117766Y-114345325D01*
X144983059Y-114295083D01*
X144983052Y-114295081D01*
X144923524Y-114288680D01*
X144625680Y-114288680D01*
X144625680Y-115163680D01*
X144125680Y-115163680D01*
X144125680Y-114291484D01*
X144086994Y-114255654D01*
X144074464Y-114234661D01*
X144058460Y-114216191D01*
X144052586Y-114198005D01*
X144051186Y-114195658D01*
X144051245Y-114193852D01*
X144049637Y-114188871D01*
X144047536Y-114178313D01*
X144047535Y-114178306D01*
X144041477Y-114163680D01*
X143981541Y-114018981D01*
X143981534Y-114018968D01*
X143885725Y-113875581D01*
X143885722Y-113875577D01*
X143763782Y-113753637D01*
X143763778Y-113753634D01*
X143620391Y-113657825D01*
X143620378Y-113657818D01*
X143461058Y-113591826D01*
X143461046Y-113591823D01*
X143285935Y-113556991D01*
X143286462Y-113554340D01*
X143232483Y-113532508D01*
X143192157Y-113475450D01*
X143185480Y-113435310D01*
X143185480Y-108557662D01*
X143205165Y-108490623D01*
X143257969Y-108444868D01*
X143327127Y-108434924D01*
X143390683Y-108463949D01*
X143425663Y-108514331D01*
X143431883Y-108531010D01*
X143431886Y-108531015D01*
X143518132Y-108646224D01*
X143518135Y-108646227D01*
X143633344Y-108732473D01*
X143633351Y-108732477D01*
X143768197Y-108782771D01*
X143768196Y-108782771D01*
X143775124Y-108783515D01*
X143827807Y-108789180D01*
X144923552Y-108789179D01*
X144983163Y-108782771D01*
X145118011Y-108732476D01*
X145191512Y-108677452D01*
X145256976Y-108653036D01*
X145325249Y-108667887D01*
X145353504Y-108689039D01*
X145688861Y-109024396D01*
X145722346Y-109085719D01*
X145725180Y-109112077D01*
X145725180Y-116700228D01*
X145723145Y-116707157D01*
X145724382Y-116714273D01*
X145713432Y-116740236D01*
X145705495Y-116767267D01*
X145699373Y-116773570D01*
X145697231Y-116778651D01*
X145678540Y-116795023D01*
X145671246Y-116802535D01*
X145668791Y-116804216D01*
X145564830Y-116868340D01*
X145542379Y-116890790D01*
X145532892Y-116897288D01*
X145510162Y-116904691D01*
X145489181Y-116916148D01*
X145477547Y-116915315D01*
X145466458Y-116918928D01*
X145443335Y-116912868D01*
X145419489Y-116911162D01*
X145407552Y-116903490D01*
X145398871Y-116901215D01*
X145391450Y-116893141D01*
X145375145Y-116882662D01*
X145361218Y-116868735D01*
X145361214Y-116868732D01*
X145214491Y-116778231D01*
X145214480Y-116778226D01*
X145077101Y-116732703D01*
X145019656Y-116692930D01*
X144992833Y-116628414D01*
X145005148Y-116559638D01*
X145052691Y-116508439D01*
X145072774Y-116498814D01*
X145117768Y-116482033D01*
X145117773Y-116482030D01*
X145232867Y-116395870D01*
X145232870Y-116395867D01*
X145319030Y-116280773D01*
X145319034Y-116280766D01*
X145369276Y-116146059D01*
X145369278Y-116146052D01*
X145375679Y-116086524D01*
X145375680Y-116086507D01*
X145375680Y-115663680D01*
X144625680Y-115663680D01*
X144625680Y-116538680D01*
X144726680Y-116538680D01*
X144793719Y-116558365D01*
X144839474Y-116611169D01*
X144850680Y-116662680D01*
X144850680Y-118663679D01*
X144949820Y-118663679D01*
X144949834Y-118663678D01*
X145050832Y-118653360D01*
X145214480Y-118599133D01*
X145214491Y-118599128D01*
X145361215Y-118508627D01*
X145375140Y-118494701D01*
X145436462Y-118461213D01*
X145506153Y-118466194D01*
X145550507Y-118494697D01*
X145564830Y-118509020D01*
X145711664Y-118599588D01*
X145875427Y-118653854D01*
X145976503Y-118664180D01*
X146674856Y-118664179D01*
X146674864Y-118664178D01*
X146674867Y-118664178D01*
X146730210Y-118658524D01*
X146775933Y-118653854D01*
X146939696Y-118599588D01*
X147086530Y-118509020D01*
X147208520Y-118387030D01*
X147299088Y-118240196D01*
X147353354Y-118076433D01*
X147363680Y-117975357D01*
X147363679Y-117402004D01*
X147362415Y-117389633D01*
X147353354Y-117300927D01*
X147342985Y-117269637D01*
X147299088Y-117137164D01*
X147208520Y-116990330D01*
X147086530Y-116868340D01*
X147086526Y-116868337D01*
X146985083Y-116805766D01*
X146938358Y-116753818D01*
X146926180Y-116700228D01*
X146926180Y-116161524D01*
X149100680Y-116161524D01*
X149107081Y-116221052D01*
X149107083Y-116221059D01*
X149157325Y-116355766D01*
X149157329Y-116355773D01*
X149243489Y-116470867D01*
X149243492Y-116470870D01*
X149358586Y-116557030D01*
X149358593Y-116557034D01*
X149493300Y-116607276D01*
X149493307Y-116607278D01*
X149552835Y-116613679D01*
X149552852Y-116613680D01*
X149850680Y-116613680D01*
X149850680Y-115738680D01*
X149100680Y-115738680D01*
X149100680Y-116161524D01*
X146926180Y-116161524D01*
X146926180Y-114815835D01*
X149100680Y-114815835D01*
X149100680Y-115238680D01*
X149850680Y-115238680D01*
X149850680Y-114363680D01*
X149552835Y-114363680D01*
X149493307Y-114370081D01*
X149493300Y-114370083D01*
X149358593Y-114420325D01*
X149358586Y-114420329D01*
X149243492Y-114506489D01*
X149243489Y-114506492D01*
X149157329Y-114621586D01*
X149157325Y-114621593D01*
X149107083Y-114756300D01*
X149107081Y-114756307D01*
X149100680Y-114815835D01*
X146926180Y-114815835D01*
X146926180Y-108732923D01*
X146925158Y-108729112D01*
X146925152Y-108729088D01*
X146910167Y-108673161D01*
X146885257Y-108580196D01*
X146861577Y-108539180D01*
X146806204Y-108443270D01*
X146806201Y-108443266D01*
X146806200Y-108443264D01*
X146694396Y-108331460D01*
X146694395Y-108331459D01*
X146690065Y-108327129D01*
X146690054Y-108327119D01*
X145664970Y-107302035D01*
X145664968Y-107302032D01*
X145546097Y-107183161D01*
X145546096Y-107183160D01*
X145459284Y-107133040D01*
X145459284Y-107133039D01*
X145459279Y-107133037D01*
X145443074Y-107123681D01*
X145438175Y-107120852D01*
X145389961Y-107070282D01*
X145376179Y-107013467D01*
X145376179Y-106990809D01*
X145376178Y-106990803D01*
X145376177Y-106990796D01*
X145369771Y-106931197D01*
X145363752Y-106915060D01*
X145319477Y-106796351D01*
X145319473Y-106796344D01*
X145233227Y-106681135D01*
X145233224Y-106681132D01*
X145142900Y-106613515D01*
X145101029Y-106557581D01*
X145096045Y-106487890D01*
X145111673Y-106449152D01*
X145115258Y-106443341D01*
X145186588Y-106327696D01*
X145240854Y-106163933D01*
X145251180Y-106062857D01*
X145251179Y-106062811D01*
X145251182Y-106062803D01*
X145251340Y-106059709D01*
X145251500Y-106059717D01*
X145251501Y-106059716D01*
X145251524Y-106059718D01*
X145252078Y-106059746D01*
X145270843Y-105995770D01*
X145323633Y-105949999D01*
X145392788Y-105940034D01*
X145456353Y-105969039D01*
G37*
%TD.AperFunction*%
%TA.AperFunction,Conductor*%
G36*
X136873034Y-108125029D02*
G01*
X136905194Y-108142841D01*
X136906959Y-108144195D01*
X136906964Y-108144200D01*
X136906969Y-108144203D01*
X136906972Y-108144205D01*
X137043889Y-108223253D01*
X137043896Y-108223257D01*
X137196623Y-108264180D01*
X137354737Y-108264180D01*
X137501180Y-108264180D01*
X137568219Y-108283865D01*
X137613974Y-108336669D01*
X137625180Y-108388180D01*
X137625180Y-109913681D01*
X137625181Y-109913698D01*
X137635680Y-110016476D01*
X137635681Y-110016479D01*
X137690865Y-110183011D01*
X137690867Y-110183016D01*
X137693186Y-110186775D01*
X137782968Y-110332336D01*
X137907024Y-110456392D01*
X138056346Y-110548494D01*
X138222883Y-110603679D01*
X138325671Y-110614180D01*
X140225688Y-110614179D01*
X140328477Y-110603679D01*
X140495014Y-110548494D01*
X140644336Y-110456392D01*
X140679799Y-110420929D01*
X140741122Y-110387444D01*
X140810814Y-110392428D01*
X140866747Y-110434300D01*
X140891164Y-110499764D01*
X140891480Y-110508610D01*
X140891480Y-111519457D01*
X140871795Y-111586496D01*
X140818991Y-111632251D01*
X140749833Y-111642195D01*
X140686277Y-111613170D01*
X140679799Y-111607138D01*
X140644025Y-111571364D01*
X140494804Y-111479323D01*
X140494799Y-111479321D01*
X140328377Y-111424174D01*
X140328370Y-111424173D01*
X140225666Y-111413680D01*
X139525680Y-111413680D01*
X139525680Y-114913679D01*
X139756884Y-114913679D01*
X139778129Y-114919917D01*
X139800218Y-114921497D01*
X139811001Y-114929569D01*
X139823923Y-114933364D01*
X139838422Y-114950097D01*
X139856151Y-114963369D01*
X139860858Y-114975989D01*
X139869678Y-114986168D01*
X139872829Y-115008085D01*
X139880568Y-115028833D01*
X139877705Y-115041993D01*
X139879622Y-115055326D01*
X139870422Y-115075469D01*
X139865716Y-115097106D01*
X139852447Y-115114831D01*
X139850597Y-115118882D01*
X139844565Y-115125360D01*
X139794764Y-115175161D01*
X139733441Y-115208646D01*
X139707083Y-115211480D01*
X138600180Y-115211480D01*
X138533141Y-115191795D01*
X138487386Y-115138991D01*
X138476180Y-115087480D01*
X138476180Y-115037679D01*
X138495865Y-114970640D01*
X138548669Y-114924885D01*
X138600180Y-114913679D01*
X139025680Y-114913679D01*
X139025680Y-111413680D01*
X138325708Y-111413680D01*
X138325692Y-111413681D01*
X138222982Y-111424174D01*
X138056560Y-111479321D01*
X138056555Y-111479323D01*
X137907334Y-111571364D01*
X137783364Y-111695334D01*
X137691323Y-111844555D01*
X137691322Y-111844558D01*
X137646991Y-111978339D01*
X137607218Y-112035783D01*
X137542702Y-112062606D01*
X137473926Y-112050291D01*
X137460395Y-112042437D01*
X137455910Y-112039440D01*
X137455899Y-112039434D01*
X137302946Y-111976080D01*
X137302937Y-111976077D01*
X137140565Y-111943780D01*
X137140562Y-111943780D01*
X136974998Y-111943780D01*
X136974993Y-111943780D01*
X136864436Y-111965771D01*
X136794844Y-111959544D01*
X136739667Y-111916680D01*
X136722540Y-111883161D01*
X136686588Y-111774664D01*
X136596020Y-111627830D01*
X136539396Y-111571206D01*
X136505911Y-111509883D01*
X136510895Y-111440191D01*
X136523976Y-111414633D01*
X136573688Y-111340235D01*
X136573689Y-111340232D01*
X136573693Y-111340227D01*
X136577754Y-111330424D01*
X136607934Y-111257561D01*
X136641574Y-111176346D01*
X136645535Y-111156437D01*
X136676179Y-111002375D01*
X136676180Y-111002373D01*
X136676180Y-110824986D01*
X136676179Y-110824984D01*
X136641576Y-110651021D01*
X136641573Y-110651013D01*
X136607600Y-110568992D01*
X136573696Y-110487139D01*
X136573689Y-110487126D01*
X136475144Y-110339645D01*
X136475141Y-110339641D01*
X136452604Y-110317104D01*
X136419119Y-110255781D01*
X136424103Y-110186089D01*
X136465975Y-110130156D01*
X136501282Y-110111717D01*
X136576978Y-110086634D01*
X136576991Y-110086628D01*
X136723714Y-109996127D01*
X136723718Y-109996124D01*
X136845624Y-109874218D01*
X136845627Y-109874214D01*
X136936128Y-109727491D01*
X136936133Y-109727480D01*
X136990360Y-109563832D01*
X137000679Y-109462834D01*
X137000680Y-109462821D01*
X137000680Y-109413680D01*
X136149680Y-109413680D01*
X136082641Y-109393995D01*
X136036886Y-109341191D01*
X136025680Y-109289680D01*
X136025680Y-109037680D01*
X136045365Y-108970641D01*
X136098169Y-108924886D01*
X136149680Y-108913680D01*
X137000679Y-108913680D01*
X137000679Y-108864540D01*
X137000678Y-108864525D01*
X136990360Y-108763527D01*
X136936133Y-108599879D01*
X136936128Y-108599868D01*
X136845627Y-108453145D01*
X136845624Y-108453141D01*
X136731697Y-108339214D01*
X136727358Y-108331268D01*
X136720111Y-108325843D01*
X136710876Y-108301083D01*
X136698212Y-108277891D01*
X136698857Y-108268861D01*
X136695694Y-108260379D01*
X136701310Y-108234558D01*
X136703196Y-108208199D01*
X136709014Y-108199145D01*
X136710546Y-108192106D01*
X136731694Y-108163855D01*
X136742021Y-108153528D01*
X136803342Y-108120045D01*
X136873034Y-108125029D01*
G37*
%TD.AperFunction*%
%TA.AperFunction,Conductor*%
G36*
X136783805Y-74633865D02*
G01*
X136829560Y-74686669D01*
X136839504Y-74755827D01*
X136810479Y-74819383D01*
X136776195Y-74847011D01*
X136769389Y-74850727D01*
X136654292Y-74936889D01*
X136654289Y-74936892D01*
X136568129Y-75051986D01*
X136568125Y-75051993D01*
X136517883Y-75186700D01*
X136517881Y-75186707D01*
X136511480Y-75246235D01*
X136511480Y-75494080D01*
X139011480Y-75494080D01*
X139011480Y-75246252D01*
X139011479Y-75246235D01*
X139005078Y-75186707D01*
X139005076Y-75186700D01*
X138954834Y-75051993D01*
X138954830Y-75051986D01*
X138868670Y-74936892D01*
X138868667Y-74936889D01*
X138753570Y-74850727D01*
X138746765Y-74847011D01*
X138697360Y-74797604D01*
X138682510Y-74729331D01*
X138706929Y-74663867D01*
X138762863Y-74621997D01*
X138806194Y-74614180D01*
X154216766Y-74614180D01*
X154283805Y-74633865D01*
X154329560Y-74686669D01*
X154339504Y-74755827D01*
X154310479Y-74819383D01*
X154276195Y-74847011D01*
X154269389Y-74850727D01*
X154154292Y-74936889D01*
X154154289Y-74936892D01*
X154068129Y-75051986D01*
X154068125Y-75051993D01*
X154017883Y-75186700D01*
X154017881Y-75186707D01*
X154011480Y-75246235D01*
X154011480Y-75494080D01*
X156511480Y-75494080D01*
X156511480Y-75246252D01*
X156511479Y-75246235D01*
X156505078Y-75186707D01*
X156505076Y-75186700D01*
X156454834Y-75051993D01*
X156454830Y-75051986D01*
X156368670Y-74936892D01*
X156368667Y-74936889D01*
X156253570Y-74850727D01*
X156246765Y-74847011D01*
X156197360Y-74797604D01*
X156182510Y-74729331D01*
X156206929Y-74663867D01*
X156262863Y-74621997D01*
X156306194Y-74614180D01*
X167503084Y-74614180D01*
X167503087Y-74614181D01*
X167547205Y-74614180D01*
X167554154Y-74614374D01*
X167845991Y-74630762D01*
X167859788Y-74632316D01*
X168144516Y-74680692D01*
X168158070Y-74683786D01*
X168435589Y-74763735D01*
X168448711Y-74768326D01*
X168715529Y-74878844D01*
X168728048Y-74884872D01*
X168822166Y-74936889D01*
X168980825Y-75024576D01*
X168992598Y-75031974D01*
X169228129Y-75199089D01*
X169239001Y-75207759D01*
X169454339Y-75400194D01*
X169464172Y-75410026D01*
X169656619Y-75625371D01*
X169665289Y-75636243D01*
X169832410Y-75871776D01*
X169839808Y-75883550D01*
X169979506Y-76136309D01*
X169985540Y-76148838D01*
X170096060Y-76415652D01*
X170100653Y-76428777D01*
X170180605Y-76706293D01*
X170183699Y-76719849D01*
X170232077Y-77004566D01*
X170233634Y-77018384D01*
X170249985Y-77309497D01*
X170250180Y-77316451D01*
X170250180Y-106544416D01*
X170230495Y-106611455D01*
X170177691Y-106657210D01*
X170108533Y-106667154D01*
X170044977Y-106638129D01*
X170018793Y-106606416D01*
X169986202Y-106549967D01*
X169986198Y-106549962D01*
X169064751Y-105628515D01*
X168134436Y-104698201D01*
X168100952Y-104636879D01*
X168104187Y-104572203D01*
X168117926Y-104529923D01*
X168151180Y-104319967D01*
X168151180Y-104107393D01*
X168117926Y-103897437D01*
X168052237Y-103695268D01*
X167955731Y-103505864D01*
X167955729Y-103505861D01*
X167955728Y-103505859D01*
X167830789Y-103333893D01*
X167717249Y-103220353D01*
X167683764Y-103159030D01*
X167688748Y-103089338D01*
X167730620Y-103033405D01*
X167761595Y-103016490D01*
X167893011Y-102967476D01*
X168008226Y-102881226D01*
X168094476Y-102766011D01*
X168144771Y-102631163D01*
X168151180Y-102571553D01*
X168151179Y-100775808D01*
X168144771Y-100716197D01*
X168143490Y-100712763D01*
X168094477Y-100581351D01*
X168094473Y-100581344D01*
X168008227Y-100466135D01*
X168008224Y-100466132D01*
X167893015Y-100379886D01*
X167893008Y-100379882D01*
X167758162Y-100329588D01*
X167758163Y-100329588D01*
X167698563Y-100323181D01*
X167698561Y-100323180D01*
X167698553Y-100323180D01*
X167698544Y-100323180D01*
X165902809Y-100323180D01*
X165902803Y-100323181D01*
X165843196Y-100329588D01*
X165708351Y-100379882D01*
X165708344Y-100379886D01*
X165593135Y-100466132D01*
X165593132Y-100466135D01*
X165506886Y-100581344D01*
X165506883Y-100581349D01*
X165457869Y-100712763D01*
X165415997Y-100768696D01*
X165350533Y-100793113D01*
X165282260Y-100778261D01*
X165254006Y-100757110D01*
X165140466Y-100643570D01*
X164968500Y-100518631D01*
X164779094Y-100422124D01*
X164779093Y-100422123D01*
X164779092Y-100422123D01*
X164576923Y-100356434D01*
X164576921Y-100356433D01*
X164576920Y-100356433D01*
X164415637Y-100330888D01*
X164366967Y-100323180D01*
X164154393Y-100323180D01*
X164105722Y-100330888D01*
X163944440Y-100356433D01*
X163742265Y-100422124D01*
X163552859Y-100518631D01*
X163380893Y-100643570D01*
X163230570Y-100793893D01*
X163105631Y-100965859D01*
X163009124Y-101155265D01*
X162943433Y-101357440D01*
X162938001Y-101391737D01*
X162910180Y-101567393D01*
X162910180Y-101779967D01*
X162943434Y-101989923D01*
X163000065Y-102164216D01*
X163009124Y-102192094D01*
X163105631Y-102381500D01*
X163230570Y-102553466D01*
X163380893Y-102703789D01*
X163552862Y-102828730D01*
X163561626Y-102833196D01*
X163612422Y-102881171D01*
X163629216Y-102948992D01*
X163606678Y-103015127D01*
X163561626Y-103054164D01*
X163552862Y-103058629D01*
X163380893Y-103183570D01*
X163230570Y-103333893D01*
X163105631Y-103505859D01*
X163009124Y-103695265D01*
X162943433Y-103897440D01*
X162910180Y-104107393D01*
X162910180Y-104319966D01*
X162943433Y-104529919D01*
X162943433Y-104529921D01*
X162943434Y-104529923D01*
X163000593Y-104705840D01*
X163009124Y-104732094D01*
X163105631Y-104921500D01*
X163230570Y-105093466D01*
X163380893Y-105243789D01*
X163552862Y-105368730D01*
X163561626Y-105373196D01*
X163612422Y-105421171D01*
X163629216Y-105488992D01*
X163606678Y-105555127D01*
X163561626Y-105594164D01*
X163552862Y-105598629D01*
X163380893Y-105723570D01*
X163230570Y-105873893D01*
X163105631Y-106045859D01*
X163009124Y-106235265D01*
X162943433Y-106437440D01*
X162910180Y-106647393D01*
X162910180Y-106859966D01*
X162943131Y-107068015D01*
X162943434Y-107069923D01*
X163004362Y-107257440D01*
X163009124Y-107272094D01*
X163105631Y-107461500D01*
X163230570Y-107633466D01*
X163380893Y-107783789D01*
X163552862Y-107908730D01*
X163561626Y-107913196D01*
X163612422Y-107961171D01*
X163629216Y-108028992D01*
X163606678Y-108095127D01*
X163561626Y-108134164D01*
X163552862Y-108138629D01*
X163380893Y-108263570D01*
X163230570Y-108413893D01*
X163105631Y-108585859D01*
X163009124Y-108775265D01*
X162943433Y-108977440D01*
X162910180Y-109187393D01*
X162910180Y-109399966D01*
X162943433Y-109609920D01*
X162967036Y-109682562D01*
X162969031Y-109752403D01*
X162932950Y-109812236D01*
X162870249Y-109843064D01*
X162849105Y-109844880D01*
X161397978Y-109844880D01*
X161330939Y-109825195D01*
X161310297Y-109808561D01*
X160909799Y-109408063D01*
X160876314Y-109346740D01*
X160873480Y-109320382D01*
X160873480Y-106256923D01*
X160872406Y-106252917D01*
X160872403Y-106252906D01*
X160872374Y-106252799D01*
X160852121Y-106177211D01*
X160832557Y-106104196D01*
X160803938Y-106054626D01*
X160753504Y-105967270D01*
X160753501Y-105967266D01*
X160753500Y-105967264D01*
X160641696Y-105855460D01*
X160641695Y-105855459D01*
X160637365Y-105851129D01*
X160637354Y-105851119D01*
X160487498Y-105701263D01*
X160454013Y-105639940D01*
X160451179Y-105613582D01*
X160451179Y-105257776D01*
X160470864Y-105190737D01*
X160523668Y-105144982D01*
X160592826Y-105135038D01*
X160656382Y-105164063D01*
X160662860Y-105170095D01*
X160828861Y-105336096D01*
X160862346Y-105397419D01*
X160865180Y-105423777D01*
X160865180Y-105457451D01*
X160897862Y-105621754D01*
X160897864Y-105621762D01*
X160961975Y-105776540D01*
X161055053Y-105915842D01*
X161173517Y-106034306D01*
X161250331Y-106085631D01*
X161312817Y-106127383D01*
X161312818Y-106127383D01*
X161312819Y-106127384D01*
X161347881Y-106141907D01*
X161467598Y-106191496D01*
X161609270Y-106219676D01*
X161631908Y-106224179D01*
X161631912Y-106224180D01*
X161631913Y-106224180D01*
X161799448Y-106224180D01*
X161799449Y-106224179D01*
X161963762Y-106191496D01*
X162118543Y-106127383D01*
X162257842Y-106034306D01*
X162376306Y-105915842D01*
X162469383Y-105776543D01*
X162533496Y-105621762D01*
X162566180Y-105457447D01*
X162566180Y-105289913D01*
X162533496Y-105125598D01*
X162483907Y-105005881D01*
X162469384Y-104970819D01*
X162376306Y-104831517D01*
X162257842Y-104713053D01*
X162118540Y-104619975D01*
X161963762Y-104555864D01*
X161963754Y-104555862D01*
X161799451Y-104523180D01*
X161799447Y-104523180D01*
X161765777Y-104523180D01*
X161736336Y-104514535D01*
X161706350Y-104508012D01*
X161701334Y-104504257D01*
X161698738Y-104503495D01*
X161678100Y-104486865D01*
X161520996Y-104329761D01*
X161487514Y-104268440D01*
X161484680Y-104242082D01*
X161484680Y-104201377D01*
X161504365Y-104134338D01*
X161520999Y-104113696D01*
X161584434Y-104050261D01*
X161686200Y-103948496D01*
X161765257Y-103811564D01*
X161806181Y-103658837D01*
X161806181Y-103527329D01*
X161825866Y-103460290D01*
X161842496Y-103439651D01*
X161866306Y-103415842D01*
X161959383Y-103276543D01*
X162023496Y-103121762D01*
X162056180Y-102957447D01*
X162056180Y-102789913D01*
X162023496Y-102625598D01*
X161959383Y-102470817D01*
X161911971Y-102399860D01*
X161866306Y-102331517D01*
X161747842Y-102213053D01*
X161608540Y-102119975D01*
X161453762Y-102055864D01*
X161453754Y-102055862D01*
X161289451Y-102023180D01*
X161289447Y-102023180D01*
X161121913Y-102023180D01*
X161121908Y-102023180D01*
X160957605Y-102055862D01*
X160957597Y-102055864D01*
X160802819Y-102119975D01*
X160663517Y-102213053D01*
X160545053Y-102331517D01*
X160451975Y-102470819D01*
X160387864Y-102625597D01*
X160387862Y-102625605D01*
X160354090Y-102795388D01*
X160339885Y-102822542D01*
X160327672Y-102850652D01*
X160323841Y-102853215D01*
X160321705Y-102857299D01*
X160295075Y-102872462D01*
X160269603Y-102889507D01*
X160264994Y-102889592D01*
X160260989Y-102891873D01*
X160230384Y-102890232D01*
X160199745Y-102890800D01*
X160193945Y-102888280D01*
X160191220Y-102888134D01*
X160167375Y-102876735D01*
X160135082Y-102856816D01*
X160088358Y-102804868D01*
X160076180Y-102751278D01*
X160076180Y-101458776D01*
X160095865Y-101391737D01*
X160112494Y-101371100D01*
X162951158Y-98532435D01*
X163012479Y-98498952D01*
X163077153Y-98502186D01*
X163119437Y-98515926D01*
X163329393Y-98549180D01*
X163329394Y-98549180D01*
X163541966Y-98549180D01*
X163541967Y-98549180D01*
X163751923Y-98515926D01*
X163954092Y-98450237D01*
X164143496Y-98353731D01*
X164211933Y-98304009D01*
X164315466Y-98228789D01*
X164315468Y-98228786D01*
X164315472Y-98228784D01*
X164465784Y-98078472D01*
X164465786Y-98078468D01*
X164465789Y-98078466D01*
X164590728Y-97906500D01*
X164590727Y-97906500D01*
X164590731Y-97906496D01*
X164595194Y-97897734D01*
X164643168Y-97846939D01*
X164710988Y-97830143D01*
X164777124Y-97852679D01*
X164816166Y-97897736D01*
X164820631Y-97906500D01*
X164945570Y-98078466D01*
X165095893Y-98228789D01*
X165267859Y-98353728D01*
X165267861Y-98353729D01*
X165267864Y-98353731D01*
X165457268Y-98450237D01*
X165659437Y-98515926D01*
X165869393Y-98549180D01*
X165869394Y-98549180D01*
X166081966Y-98549180D01*
X166081967Y-98549180D01*
X166291923Y-98515926D01*
X166494092Y-98450237D01*
X166683496Y-98353731D01*
X166751933Y-98304009D01*
X166855466Y-98228789D01*
X166855468Y-98228786D01*
X166855472Y-98228784D01*
X167005784Y-98078472D01*
X167005786Y-98078468D01*
X167005789Y-98078466D01*
X167130728Y-97906500D01*
X167130727Y-97906500D01*
X167130731Y-97906496D01*
X167227237Y-97717092D01*
X167292926Y-97514923D01*
X167326180Y-97304967D01*
X167326180Y-97092393D01*
X167292926Y-96882437D01*
X167227237Y-96680268D01*
X167130731Y-96490864D01*
X167130729Y-96490861D01*
X167130728Y-96490859D01*
X167005789Y-96318893D01*
X166855466Y-96168570D01*
X166683497Y-96043629D01*
X166674184Y-96038884D01*
X166623387Y-95990910D01*
X166606592Y-95923089D01*
X166629129Y-95856954D01*
X166674187Y-95817912D01*
X166683235Y-95813302D01*
X166737396Y-95773950D01*
X166737397Y-95773950D01*
X166105088Y-95141642D01*
X166168673Y-95124605D01*
X166282687Y-95058779D01*
X166375779Y-94965687D01*
X166441605Y-94851673D01*
X166458642Y-94788089D01*
X167090950Y-95420397D01*
X167090950Y-95420396D01*
X167130302Y-95366234D01*
X167226775Y-95176897D01*
X167292437Y-94974810D01*
X167292437Y-94974807D01*
X167325680Y-94764926D01*
X167325680Y-94552433D01*
X167292437Y-94342552D01*
X167292437Y-94342549D01*
X167226775Y-94140462D01*
X167130304Y-93951129D01*
X167090950Y-93896962D01*
X167090949Y-93896962D01*
X166458642Y-94529270D01*
X166441605Y-94465687D01*
X166375779Y-94351673D01*
X166282687Y-94258581D01*
X166168673Y-94192755D01*
X166105089Y-94175717D01*
X166737396Y-93543408D01*
X166683227Y-93504053D01*
X166683227Y-93504052D01*
X166674180Y-93499443D01*
X166623386Y-93451468D01*
X166606592Y-93383646D01*
X166629131Y-93317512D01*
X166674188Y-93278473D01*
X166683496Y-93273731D01*
X166787496Y-93198171D01*
X166855466Y-93148789D01*
X166855468Y-93148786D01*
X166855472Y-93148784D01*
X167005784Y-92998472D01*
X167005786Y-92998468D01*
X167005789Y-92998466D01*
X167130728Y-92826500D01*
X167130727Y-92826500D01*
X167130731Y-92826496D01*
X167227237Y-92637092D01*
X167292926Y-92434923D01*
X167326180Y-92224967D01*
X167326180Y-92012393D01*
X167292926Y-91802437D01*
X167227237Y-91600268D01*
X167130731Y-91410864D01*
X167130729Y-91410861D01*
X167130728Y-91410859D01*
X167005789Y-91238893D01*
X166855466Y-91088570D01*
X166683500Y-90963631D01*
X166682795Y-90963271D01*
X166674734Y-90959165D01*
X166623939Y-90911192D01*
X166607143Y-90843372D01*
X166629679Y-90777236D01*
X166674734Y-90738195D01*
X166683496Y-90733731D01*
X166728836Y-90700790D01*
X166855466Y-90608789D01*
X166855468Y-90608786D01*
X166855472Y-90608784D01*
X167005784Y-90458472D01*
X167005786Y-90458468D01*
X167005789Y-90458466D01*
X167130728Y-90286500D01*
X167130727Y-90286500D01*
X167130731Y-90286496D01*
X167227237Y-90097092D01*
X167292926Y-89894923D01*
X167326180Y-89684967D01*
X167326180Y-89472393D01*
X167292926Y-89262437D01*
X167227237Y-89060268D01*
X167130731Y-88870864D01*
X167130729Y-88870861D01*
X167130728Y-88870859D01*
X167005789Y-88698893D01*
X166855466Y-88548570D01*
X166683500Y-88423631D01*
X166682795Y-88423271D01*
X166674734Y-88419165D01*
X166623939Y-88371192D01*
X166607143Y-88303372D01*
X166629679Y-88237236D01*
X166674734Y-88198195D01*
X166683496Y-88193731D01*
X166737656Y-88154382D01*
X166855466Y-88068789D01*
X166855468Y-88068786D01*
X166855472Y-88068784D01*
X167005784Y-87918472D01*
X167005786Y-87918468D01*
X167005789Y-87918466D01*
X167130728Y-87746500D01*
X167130727Y-87746500D01*
X167130731Y-87746496D01*
X167227237Y-87557092D01*
X167292926Y-87354923D01*
X167326180Y-87144967D01*
X167326180Y-86932393D01*
X167292926Y-86722437D01*
X167227237Y-86520268D01*
X167130731Y-86330864D01*
X167130729Y-86330861D01*
X167130728Y-86330859D01*
X167005789Y-86158893D01*
X166855466Y-86008570D01*
X166683500Y-85883631D01*
X166682795Y-85883271D01*
X166674734Y-85879165D01*
X166623939Y-85831192D01*
X166607143Y-85763372D01*
X166629679Y-85697236D01*
X166674734Y-85658195D01*
X166683496Y-85653731D01*
X166705469Y-85637766D01*
X166855466Y-85528789D01*
X166855468Y-85528786D01*
X166855472Y-85528784D01*
X167005784Y-85378472D01*
X167005786Y-85378468D01*
X167005789Y-85378466D01*
X167130728Y-85206500D01*
X167130727Y-85206500D01*
X167130731Y-85206496D01*
X167227237Y-85017092D01*
X167292926Y-84814923D01*
X167326180Y-84604967D01*
X167326180Y-84392393D01*
X167292926Y-84182437D01*
X167227237Y-83980268D01*
X167130731Y-83790864D01*
X167130729Y-83790861D01*
X167130728Y-83790859D01*
X167005789Y-83618893D01*
X166855466Y-83468570D01*
X166683500Y-83343631D01*
X166682795Y-83343271D01*
X166674734Y-83339165D01*
X166623939Y-83291192D01*
X166607143Y-83223372D01*
X166629679Y-83157236D01*
X166674734Y-83118195D01*
X166683496Y-83113731D01*
X166705469Y-83097766D01*
X166855466Y-82988789D01*
X166855468Y-82988786D01*
X166855472Y-82988784D01*
X167005784Y-82838472D01*
X167005786Y-82838468D01*
X167005789Y-82838466D01*
X167130728Y-82666500D01*
X167130727Y-82666500D01*
X167130731Y-82666496D01*
X167227237Y-82477092D01*
X167292926Y-82274923D01*
X167326180Y-82064967D01*
X167326180Y-81852393D01*
X167292926Y-81642437D01*
X167227237Y-81440268D01*
X167130731Y-81250864D01*
X167130729Y-81250861D01*
X167130728Y-81250859D01*
X167005789Y-81078893D01*
X166855466Y-80928570D01*
X166683500Y-80803631D01*
X166682795Y-80803271D01*
X166674734Y-80799165D01*
X166623939Y-80751192D01*
X166607143Y-80683372D01*
X166629679Y-80617236D01*
X166674734Y-80578195D01*
X166683496Y-80573731D01*
X166771540Y-80509764D01*
X166855466Y-80448789D01*
X166855468Y-80448786D01*
X166855472Y-80448784D01*
X167005784Y-80298472D01*
X167005786Y-80298468D01*
X167005789Y-80298466D01*
X167130728Y-80126500D01*
X167130727Y-80126500D01*
X167130731Y-80126496D01*
X167227237Y-79937092D01*
X167292926Y-79734923D01*
X167326180Y-79524967D01*
X167326180Y-79312393D01*
X167292926Y-79102437D01*
X167227237Y-78900268D01*
X167130731Y-78710864D01*
X167130729Y-78710861D01*
X167130728Y-78710859D01*
X167005789Y-78538893D01*
X166855466Y-78388570D01*
X166683500Y-78263631D01*
X166682795Y-78263271D01*
X166674734Y-78259165D01*
X166623939Y-78211192D01*
X166607143Y-78143372D01*
X166629679Y-78077236D01*
X166674734Y-78038195D01*
X166683496Y-78033731D01*
X166756054Y-77981015D01*
X166855466Y-77908789D01*
X166855468Y-77908786D01*
X166855472Y-77908784D01*
X167005784Y-77758472D01*
X167005786Y-77758468D01*
X167005789Y-77758466D01*
X167130728Y-77586500D01*
X167130727Y-77586500D01*
X167130731Y-77586496D01*
X167227237Y-77397092D01*
X167292926Y-77194923D01*
X167326180Y-76984967D01*
X167326180Y-76772393D01*
X167292926Y-76562437D01*
X167227237Y-76360268D01*
X167130731Y-76170864D01*
X167130729Y-76170861D01*
X167130728Y-76170859D01*
X167005789Y-75998893D01*
X166855466Y-75848570D01*
X166683500Y-75723631D01*
X166494094Y-75627124D01*
X166494093Y-75627123D01*
X166494092Y-75627123D01*
X166291923Y-75561434D01*
X166291921Y-75561433D01*
X166291920Y-75561433D01*
X166130637Y-75535888D01*
X166081967Y-75528180D01*
X165869393Y-75528180D01*
X165820722Y-75535888D01*
X165659440Y-75561433D01*
X165457265Y-75627124D01*
X165267859Y-75723631D01*
X165095895Y-75848569D01*
X164982353Y-75962111D01*
X164921030Y-75995595D01*
X164851338Y-75990611D01*
X164795405Y-75948739D01*
X164778490Y-75917762D01*
X164729477Y-75786351D01*
X164729473Y-75786344D01*
X164643227Y-75671135D01*
X164643224Y-75671132D01*
X164528015Y-75584886D01*
X164528008Y-75584882D01*
X164393162Y-75534588D01*
X164393163Y-75534588D01*
X164333563Y-75528181D01*
X164333561Y-75528180D01*
X164333553Y-75528180D01*
X164333544Y-75528180D01*
X162537809Y-75528180D01*
X162537803Y-75528181D01*
X162478196Y-75534588D01*
X162343351Y-75584882D01*
X162343344Y-75584886D01*
X162228135Y-75671132D01*
X162228132Y-75671135D01*
X162141886Y-75786344D01*
X162141882Y-75786351D01*
X162091588Y-75921197D01*
X162085181Y-75980796D01*
X162085180Y-75980815D01*
X162085180Y-76154180D01*
X162065495Y-76221219D01*
X162012691Y-76266974D01*
X161961180Y-76278180D01*
X156635480Y-76278180D01*
X156568441Y-76258495D01*
X156522686Y-76205691D01*
X156511480Y-76154180D01*
X156511480Y-75994080D01*
X154011480Y-75994080D01*
X154011480Y-76241924D01*
X154017881Y-76301452D01*
X154017883Y-76301459D01*
X154030405Y-76335032D01*
X154035389Y-76404723D01*
X154030405Y-76421697D01*
X154017389Y-76456594D01*
X154017388Y-76456596D01*
X154010981Y-76516196D01*
X154010980Y-76516215D01*
X154010980Y-77511950D01*
X154010981Y-77511956D01*
X154017388Y-77571561D01*
X154030139Y-77605749D01*
X154035122Y-77675441D01*
X154030139Y-77692411D01*
X154017388Y-77726598D01*
X154010981Y-77786196D01*
X154010980Y-77786215D01*
X154010980Y-78781950D01*
X154010981Y-78781956D01*
X154017388Y-78841561D01*
X154030139Y-78875749D01*
X154035122Y-78945441D01*
X154030139Y-78962411D01*
X154017388Y-78996598D01*
X154010981Y-79056196D01*
X154010980Y-79056215D01*
X154010980Y-80051950D01*
X154010981Y-80051956D01*
X154017388Y-80111561D01*
X154030139Y-80145749D01*
X154035122Y-80215441D01*
X154030139Y-80232411D01*
X154017388Y-80266598D01*
X154010981Y-80326196D01*
X154010980Y-80326215D01*
X154010980Y-81321950D01*
X154010981Y-81321956D01*
X154017388Y-81381561D01*
X154030139Y-81415749D01*
X154035122Y-81485441D01*
X154030139Y-81502411D01*
X154017388Y-81536598D01*
X154010981Y-81596196D01*
X154010980Y-81596215D01*
X154010980Y-82591950D01*
X154010981Y-82591956D01*
X154017388Y-82651561D01*
X154030139Y-82685749D01*
X154035122Y-82755441D01*
X154030139Y-82772411D01*
X154017388Y-82806598D01*
X154010981Y-82866196D01*
X154010980Y-82866215D01*
X154010980Y-83861950D01*
X154010981Y-83861956D01*
X154017388Y-83921561D01*
X154030139Y-83955749D01*
X154035122Y-84025441D01*
X154030139Y-84042411D01*
X154017388Y-84076598D01*
X154010981Y-84136196D01*
X154010980Y-84136215D01*
X154010980Y-85131950D01*
X154010981Y-85131956D01*
X154017388Y-85191561D01*
X154030139Y-85225749D01*
X154035122Y-85295441D01*
X154030139Y-85312411D01*
X154017388Y-85346598D01*
X154010981Y-85406196D01*
X154010980Y-85406215D01*
X154010980Y-86401950D01*
X154010981Y-86401956D01*
X154017388Y-86461561D01*
X154030139Y-86495749D01*
X154035122Y-86565441D01*
X154030139Y-86582411D01*
X154017388Y-86616598D01*
X154010981Y-86676196D01*
X154010980Y-86676215D01*
X154010980Y-87671950D01*
X154010981Y-87671956D01*
X154017388Y-87731561D01*
X154030139Y-87765749D01*
X154035122Y-87835441D01*
X154030139Y-87852411D01*
X154017388Y-87886598D01*
X154010981Y-87946196D01*
X154010980Y-87946215D01*
X154010980Y-88941950D01*
X154010981Y-88941956D01*
X154017388Y-89001561D01*
X154030139Y-89035749D01*
X154035122Y-89105441D01*
X154030139Y-89122411D01*
X154017388Y-89156598D01*
X154010981Y-89216196D01*
X154010981Y-89216203D01*
X154010980Y-89216215D01*
X154010980Y-90211950D01*
X154010981Y-90211956D01*
X154017388Y-90271561D01*
X154030139Y-90305749D01*
X154035122Y-90375441D01*
X154030139Y-90392411D01*
X154017388Y-90426598D01*
X154011190Y-90484250D01*
X154010981Y-90486203D01*
X154010980Y-90486215D01*
X154010980Y-91481950D01*
X154010981Y-91481956D01*
X154017388Y-91541561D01*
X154030139Y-91575749D01*
X154035122Y-91645441D01*
X154030139Y-91662411D01*
X154017388Y-91696598D01*
X154014777Y-91720889D01*
X154010981Y-91756203D01*
X154010980Y-91756215D01*
X154010980Y-92129580D01*
X153991295Y-92196619D01*
X153938491Y-92242374D01*
X153886980Y-92253580D01*
X152998609Y-92253580D01*
X152998603Y-92253581D01*
X152938998Y-92259988D01*
X152904811Y-92272739D01*
X152835119Y-92277722D01*
X152818149Y-92272739D01*
X152783960Y-92259988D01*
X152783962Y-92259988D01*
X152724363Y-92253581D01*
X152724361Y-92253580D01*
X152724353Y-92253580D01*
X152724344Y-92253580D01*
X151728609Y-92253580D01*
X151728603Y-92253581D01*
X151694233Y-92257276D01*
X151625474Y-92244869D01*
X151574337Y-92197258D01*
X151556980Y-92133986D01*
X151556980Y-90543677D01*
X151565624Y-90514236D01*
X151572148Y-90484250D01*
X151575902Y-90479234D01*
X151576665Y-90476638D01*
X151593299Y-90455996D01*
X151600996Y-90448299D01*
X151662319Y-90414814D01*
X151688677Y-90411980D01*
X151722348Y-90411980D01*
X151722349Y-90411979D01*
X151886662Y-90379296D01*
X152041443Y-90315183D01*
X152180742Y-90222106D01*
X152299206Y-90103642D01*
X152392283Y-89964343D01*
X152456396Y-89809562D01*
X152489080Y-89645247D01*
X152489080Y-89477713D01*
X152456396Y-89313398D01*
X152400635Y-89178781D01*
X152392284Y-89158619D01*
X152387150Y-89150936D01*
X152361117Y-89111974D01*
X152299206Y-89019317D01*
X152180742Y-88900853D01*
X152041440Y-88807775D01*
X151886662Y-88743664D01*
X151886654Y-88743662D01*
X151722351Y-88710980D01*
X151722347Y-88710980D01*
X151554813Y-88710980D01*
X151554808Y-88710980D01*
X151390505Y-88743662D01*
X151390497Y-88743664D01*
X151235719Y-88807775D01*
X151096417Y-88900853D01*
X150977953Y-89019317D01*
X150884875Y-89158619D01*
X150820764Y-89313397D01*
X150820762Y-89313405D01*
X150788080Y-89477708D01*
X150788080Y-89511382D01*
X150768395Y-89578421D01*
X150751761Y-89599063D01*
X150475961Y-89874862D01*
X150475959Y-89874865D01*
X150434970Y-89945862D01*
X150434969Y-89945863D01*
X150424300Y-89964343D01*
X150396903Y-90011795D01*
X150355979Y-90164523D01*
X150355979Y-90164525D01*
X150355979Y-90332626D01*
X150355980Y-90332639D01*
X150355980Y-92133986D01*
X150336295Y-92201025D01*
X150283491Y-92246780D01*
X150218727Y-92257275D01*
X150184353Y-92253580D01*
X150184345Y-92253580D01*
X149188609Y-92253580D01*
X149188603Y-92253581D01*
X149128998Y-92259988D01*
X149094811Y-92272739D01*
X149025119Y-92277722D01*
X149008149Y-92272739D01*
X148973960Y-92259988D01*
X148973962Y-92259988D01*
X148914363Y-92253581D01*
X148914361Y-92253580D01*
X148914353Y-92253580D01*
X148914344Y-92253580D01*
X147918609Y-92253580D01*
X147918603Y-92253581D01*
X147858998Y-92259988D01*
X147824811Y-92272739D01*
X147755119Y-92277722D01*
X147738149Y-92272739D01*
X147703960Y-92259988D01*
X147703962Y-92259988D01*
X147644363Y-92253581D01*
X147644361Y-92253580D01*
X147644353Y-92253580D01*
X147644344Y-92253580D01*
X146648609Y-92253580D01*
X146648603Y-92253581D01*
X146588998Y-92259988D01*
X146554811Y-92272739D01*
X146485119Y-92277722D01*
X146468149Y-92272739D01*
X146433960Y-92259988D01*
X146433962Y-92259988D01*
X146374363Y-92253581D01*
X146374361Y-92253580D01*
X146374353Y-92253580D01*
X146374344Y-92253580D01*
X145378609Y-92253580D01*
X145378603Y-92253581D01*
X145344233Y-92257276D01*
X145275474Y-92244869D01*
X145224337Y-92197258D01*
X145206980Y-92133986D01*
X145206980Y-90994922D01*
X145205110Y-90987943D01*
X145205109Y-90987938D01*
X145166057Y-90842195D01*
X145123324Y-90768180D01*
X145087000Y-90705264D01*
X144975196Y-90593460D01*
X144975195Y-90593459D01*
X144970865Y-90589129D01*
X144970854Y-90589119D01*
X144295176Y-89913441D01*
X144261691Y-89852118D01*
X144261240Y-89801567D01*
X144276180Y-89726463D01*
X144276180Y-89560895D01*
X144276179Y-89560893D01*
X144243882Y-89398522D01*
X144243879Y-89398513D01*
X144180525Y-89245560D01*
X144180518Y-89245547D01*
X144088539Y-89107892D01*
X144088536Y-89107888D01*
X143971471Y-88990823D01*
X143971467Y-88990820D01*
X143833812Y-88898841D01*
X143833799Y-88898834D01*
X143680846Y-88835480D01*
X143680837Y-88835477D01*
X143518465Y-88803180D01*
X143518462Y-88803180D01*
X143402080Y-88803180D01*
X143335041Y-88783495D01*
X143289286Y-88730691D01*
X143278080Y-88679180D01*
X143278080Y-80967539D01*
X143278081Y-80967526D01*
X143278081Y-80799425D01*
X143278081Y-80799423D01*
X143237157Y-80646695D01*
X143195031Y-80573731D01*
X143158100Y-80509764D01*
X143046296Y-80397960D01*
X143046295Y-80397959D01*
X143041965Y-80393629D01*
X143041954Y-80393619D01*
X139300770Y-76652435D01*
X139300768Y-76652432D01*
X139181897Y-76533561D01*
X139181896Y-76533560D01*
X139095084Y-76483440D01*
X139095084Y-76483439D01*
X139095080Y-76483438D01*
X139056010Y-76460880D01*
X139007795Y-76410312D01*
X138994574Y-76341705D01*
X139001832Y-76310156D01*
X139005078Y-76301452D01*
X139011479Y-76241924D01*
X139011480Y-76241907D01*
X139011480Y-75994080D01*
X136511480Y-75994080D01*
X136511480Y-76241919D01*
X136515180Y-76276322D01*
X136502776Y-76345082D01*
X136455167Y-76396220D01*
X136391891Y-76413580D01*
X135842220Y-76413580D01*
X135801299Y-76424544D01*
X135801299Y-76424545D01*
X135764031Y-76434531D01*
X135689494Y-76454503D01*
X135689489Y-76454506D01*
X135552570Y-76533555D01*
X135552562Y-76533561D01*
X135440758Y-76645366D01*
X134682564Y-77403561D01*
X134621241Y-77437046D01*
X134594883Y-77439880D01*
X134286730Y-77439880D01*
X134219691Y-77420195D01*
X134173936Y-77367391D01*
X134163992Y-77298233D01*
X134168799Y-77277562D01*
X134192437Y-77204810D01*
X134192437Y-77204807D01*
X134225680Y-76994926D01*
X134225680Y-76782433D01*
X134192437Y-76572552D01*
X134192437Y-76572549D01*
X134126775Y-76370462D01*
X134030304Y-76181129D01*
X133990950Y-76126962D01*
X133990949Y-76126962D01*
X133358642Y-76759269D01*
X133341605Y-76695687D01*
X133275779Y-76581673D01*
X133182687Y-76488581D01*
X133068673Y-76422755D01*
X133005089Y-76405717D01*
X133637396Y-75773408D01*
X133583230Y-75734055D01*
X133393897Y-75637584D01*
X133191809Y-75571922D01*
X132981926Y-75538680D01*
X132769434Y-75538680D01*
X132559552Y-75571922D01*
X132559549Y-75571922D01*
X132357462Y-75637584D01*
X132168119Y-75734060D01*
X132113962Y-75773407D01*
X132113962Y-75773408D01*
X132746271Y-76405717D01*
X132682687Y-76422755D01*
X132568673Y-76488581D01*
X132475581Y-76581673D01*
X132409755Y-76695687D01*
X132392717Y-76759271D01*
X131722498Y-76089052D01*
X131689013Y-76027729D01*
X131689010Y-76027716D01*
X131686179Y-76014695D01*
X131686179Y-75990808D01*
X131679771Y-75931197D01*
X131651606Y-75855682D01*
X131629478Y-75796353D01*
X131629473Y-75796344D01*
X131543227Y-75681135D01*
X131543224Y-75681132D01*
X131428015Y-75594886D01*
X131428008Y-75594882D01*
X131293162Y-75544588D01*
X131293163Y-75544588D01*
X131233563Y-75538181D01*
X131233561Y-75538180D01*
X131233553Y-75538180D01*
X131233544Y-75538180D01*
X129437809Y-75538180D01*
X129437803Y-75538181D01*
X129378196Y-75544588D01*
X129243351Y-75594882D01*
X129243344Y-75594886D01*
X129128135Y-75681132D01*
X129128132Y-75681135D01*
X129041886Y-75796344D01*
X129041882Y-75796351D01*
X128991588Y-75931197D01*
X128985181Y-75990796D01*
X128985180Y-75990815D01*
X128985180Y-77786550D01*
X128985181Y-77786556D01*
X128991588Y-77846163D01*
X129041882Y-77981008D01*
X129041886Y-77981015D01*
X129128132Y-78096224D01*
X129128135Y-78096227D01*
X129243344Y-78182473D01*
X129243351Y-78182477D01*
X129374762Y-78231490D01*
X129430696Y-78273361D01*
X129455113Y-78338825D01*
X129440262Y-78407098D01*
X129419111Y-78435353D01*
X129305569Y-78548895D01*
X129180631Y-78720859D01*
X129084124Y-78910265D01*
X129018433Y-79112440D01*
X128985180Y-79322393D01*
X128985180Y-79534966D01*
X129016849Y-79734919D01*
X129018434Y-79744923D01*
X129080874Y-79937094D01*
X129084124Y-79947094D01*
X129180631Y-80136500D01*
X129305570Y-80308466D01*
X129455893Y-80458789D01*
X129627862Y-80583730D01*
X129636626Y-80588196D01*
X129687422Y-80636171D01*
X129704216Y-80703992D01*
X129681678Y-80770127D01*
X129636626Y-80809164D01*
X129627862Y-80813629D01*
X129455893Y-80938570D01*
X129305570Y-81088893D01*
X129180631Y-81260859D01*
X129084124Y-81450265D01*
X129018433Y-81652440D01*
X128985180Y-81862393D01*
X128985180Y-82074966D01*
X129016849Y-82274919D01*
X129018434Y-82284923D01*
X129080874Y-82477094D01*
X129084124Y-82487094D01*
X129180631Y-82676500D01*
X129305570Y-82848466D01*
X129455893Y-82998789D01*
X129627862Y-83123730D01*
X129636626Y-83128196D01*
X129687422Y-83176171D01*
X129704216Y-83243992D01*
X129681678Y-83310127D01*
X129636626Y-83349164D01*
X129627862Y-83353629D01*
X129455893Y-83478570D01*
X129305570Y-83628893D01*
X129180631Y-83800859D01*
X129084124Y-83990265D01*
X129018433Y-84192440D01*
X128985180Y-84402393D01*
X128985180Y-84614966D01*
X129016849Y-84814919D01*
X129018434Y-84824923D01*
X129080874Y-85017094D01*
X129084124Y-85027094D01*
X129180631Y-85216500D01*
X129305570Y-85388466D01*
X129455893Y-85538789D01*
X129627862Y-85663730D01*
X129636626Y-85668196D01*
X129687422Y-85716171D01*
X129704216Y-85783992D01*
X129681678Y-85850127D01*
X129636626Y-85889164D01*
X129627862Y-85893629D01*
X129455893Y-86018570D01*
X129305570Y-86168893D01*
X129180631Y-86340859D01*
X129084124Y-86530265D01*
X129018433Y-86732440D01*
X128985180Y-86942393D01*
X128985180Y-87154966D01*
X129016849Y-87354919D01*
X129018434Y-87364923D01*
X129080874Y-87557094D01*
X129084124Y-87567094D01*
X129180631Y-87756500D01*
X129305570Y-87928466D01*
X129455893Y-88078789D01*
X129627862Y-88203730D01*
X129636626Y-88208196D01*
X129687422Y-88256171D01*
X129704216Y-88323992D01*
X129681678Y-88390127D01*
X129636626Y-88429164D01*
X129627862Y-88433629D01*
X129455893Y-88558570D01*
X129305570Y-88708893D01*
X129180631Y-88880859D01*
X129084124Y-89070265D01*
X129018433Y-89272440D01*
X128985180Y-89482393D01*
X128985180Y-89694966D01*
X129018434Y-89904924D01*
X129018434Y-89904927D01*
X129032171Y-89947203D01*
X129034166Y-90017044D01*
X129001921Y-90073202D01*
X127685986Y-91389137D01*
X127685980Y-91389143D01*
X127682566Y-91392558D01*
X127682564Y-91392560D01*
X127570760Y-91504364D01*
X127541815Y-91554499D01*
X127536098Y-91564400D01*
X127536098Y-91564401D01*
X127509617Y-91610268D01*
X127491703Y-91641295D01*
X127450779Y-91794023D01*
X127450779Y-91794025D01*
X127450779Y-91962126D01*
X127450780Y-91962139D01*
X127450780Y-99444000D01*
X127431095Y-99511039D01*
X127378291Y-99556794D01*
X127326780Y-99568000D01*
X126600180Y-99568000D01*
X126533141Y-99548315D01*
X126487386Y-99495511D01*
X126476180Y-99444000D01*
X126476180Y-77317160D01*
X126476375Y-77310207D01*
X126477681Y-77286939D01*
X126492766Y-77018376D01*
X126494320Y-77004578D01*
X126542698Y-76719855D01*
X126545792Y-76706299D01*
X126563347Y-76645364D01*
X126625748Y-76428769D01*
X126630328Y-76415678D01*
X126740860Y-76148835D01*
X126746887Y-76136322D01*
X126886593Y-75883543D01*
X126893981Y-75871788D01*
X127061108Y-75636245D01*
X127069754Y-75625402D01*
X127262220Y-75410032D01*
X127272032Y-75400220D01*
X127487402Y-75207754D01*
X127498245Y-75199108D01*
X127733788Y-75031981D01*
X127745543Y-75024593D01*
X127998329Y-74884883D01*
X128010835Y-74878860D01*
X128277678Y-74768328D01*
X128290769Y-74763748D01*
X128568300Y-74683791D01*
X128581856Y-74680698D01*
X128866578Y-74632320D01*
X128880376Y-74630766D01*
X129147962Y-74615736D01*
X129172211Y-74614375D01*
X129179164Y-74614180D01*
X129223277Y-74614180D01*
X136716766Y-74614180D01*
X136783805Y-74633865D01*
G37*
%TD.AperFunction*%
%TA.AperFunction,Conductor*%
G36*
X153193719Y-104958365D02*
G01*
X153239474Y-105011169D01*
X153250680Y-105062680D01*
X153250680Y-105913679D01*
X153349820Y-105913679D01*
X153349834Y-105913678D01*
X153450832Y-105903360D01*
X153614480Y-105849133D01*
X153614491Y-105849128D01*
X153761213Y-105758628D01*
X153788997Y-105730844D01*
X153850320Y-105697358D01*
X153920012Y-105702342D01*
X153975946Y-105744212D01*
X154000364Y-105809676D01*
X154000680Y-105818522D01*
X154000680Y-105887818D01*
X154000681Y-105887835D01*
X154010999Y-105988832D01*
X154065226Y-106152480D01*
X154065231Y-106152490D01*
X154065355Y-106152691D01*
X154065397Y-106152847D01*
X154068281Y-106159031D01*
X154067224Y-106159523D01*
X154083793Y-106220084D01*
X154062868Y-106286747D01*
X154009224Y-106331515D01*
X153998829Y-106335485D01*
X153951969Y-106351014D01*
X153946664Y-106352772D01*
X153946661Y-106352773D01*
X153799828Y-106443341D01*
X153685861Y-106557309D01*
X153624538Y-106590794D01*
X153554846Y-106585810D01*
X153510499Y-106557309D01*
X153396531Y-106443341D01*
X153396530Y-106443340D01*
X153286101Y-106375227D01*
X153249698Y-106352773D01*
X153249693Y-106352771D01*
X153244391Y-106351014D01*
X153085933Y-106298506D01*
X153085931Y-106298505D01*
X152984858Y-106288180D01*
X152386510Y-106288180D01*
X152386492Y-106288181D01*
X152285427Y-106298505D01*
X152121664Y-106352772D01*
X152121661Y-106352773D01*
X151974828Y-106443341D01*
X151852841Y-106565328D01*
X151762273Y-106712161D01*
X151762271Y-106712166D01*
X151748768Y-106752916D01*
X151708006Y-106875927D01*
X151708006Y-106875928D01*
X151708005Y-106875928D01*
X151697680Y-106976995D01*
X151697680Y-107351082D01*
X151677995Y-107418121D01*
X151661361Y-107438763D01*
X151312860Y-107787264D01*
X151251537Y-107820749D01*
X151181845Y-107815765D01*
X151125912Y-107773893D01*
X151101495Y-107708429D01*
X151101179Y-107699583D01*
X151101179Y-107065809D01*
X151101178Y-107065803D01*
X151101177Y-107065796D01*
X151094771Y-107006197D01*
X151089032Y-106990809D01*
X151044479Y-106871356D01*
X151044477Y-106871353D01*
X151044476Y-106871349D01*
X151044472Y-106871344D01*
X151042170Y-106867128D01*
X151027314Y-106798855D01*
X151036437Y-106760243D01*
X151052412Y-106721679D01*
X151085480Y-106555432D01*
X151085480Y-106385928D01*
X151052412Y-106219681D01*
X150996886Y-106085630D01*
X150989418Y-106016162D01*
X151020693Y-105953683D01*
X151080782Y-105918031D01*
X151111442Y-105914179D01*
X151624856Y-105914179D01*
X151624864Y-105914178D01*
X151624867Y-105914178D01*
X151680210Y-105908524D01*
X151725933Y-105903854D01*
X151889696Y-105849588D01*
X152036530Y-105759020D01*
X152050851Y-105744698D01*
X152112169Y-105711213D01*
X152181861Y-105716194D01*
X152226214Y-105744697D01*
X152240141Y-105758624D01*
X152240145Y-105758627D01*
X152386868Y-105849128D01*
X152386879Y-105849133D01*
X152550527Y-105903360D01*
X152651531Y-105913679D01*
X152750680Y-105913678D01*
X152750680Y-105062680D01*
X152770365Y-104995641D01*
X152823169Y-104949886D01*
X152874680Y-104938680D01*
X153126680Y-104938680D01*
X153193719Y-104958365D01*
G37*
%TD.AperFunction*%
%TA.AperFunction,Conductor*%
G36*
X147857136Y-102867845D02*
G01*
X148031786Y-102911279D01*
X148031787Y-102911279D01*
X148031791Y-102911280D01*
X148074557Y-102914180D01*
X148776180Y-102914179D01*
X148843219Y-102933863D01*
X148888974Y-102986667D01*
X148900180Y-103038179D01*
X148900180Y-103950228D01*
X148898145Y-103957157D01*
X148899382Y-103964273D01*
X148888432Y-103990236D01*
X148880495Y-104017267D01*
X148874373Y-104023570D01*
X148872231Y-104028651D01*
X148853540Y-104045023D01*
X148846246Y-104052535D01*
X148843791Y-104054216D01*
X148739830Y-104118340D01*
X148717379Y-104140790D01*
X148707892Y-104147288D01*
X148685162Y-104154691D01*
X148664181Y-104166148D01*
X148652547Y-104165315D01*
X148641458Y-104168928D01*
X148618335Y-104162868D01*
X148594489Y-104161162D01*
X148582552Y-104153490D01*
X148573871Y-104151215D01*
X148566450Y-104143141D01*
X148550145Y-104132662D01*
X148536218Y-104118735D01*
X148536214Y-104118732D01*
X148389491Y-104028231D01*
X148389480Y-104028226D01*
X148225832Y-103973999D01*
X148124834Y-103963680D01*
X148025680Y-103963680D01*
X148025680Y-105913679D01*
X148124820Y-105913679D01*
X148124834Y-105913678D01*
X148225832Y-105903360D01*
X148389480Y-105849133D01*
X148389491Y-105849128D01*
X148536215Y-105758627D01*
X148550140Y-105744701D01*
X148611462Y-105711213D01*
X148681153Y-105716194D01*
X148725507Y-105744697D01*
X148739830Y-105759020D01*
X148886664Y-105849588D01*
X149050427Y-105903854D01*
X149151503Y-105914180D01*
X149338511Y-105914179D01*
X149405550Y-105933863D01*
X149451305Y-105986667D01*
X149461249Y-106055825D01*
X149453072Y-106085631D01*
X149397549Y-106219676D01*
X149397546Y-106219688D01*
X149364480Y-106385923D01*
X149364480Y-106555435D01*
X149368257Y-106574426D01*
X149362027Y-106644017D01*
X149320951Y-106697879D01*
X149243132Y-106756135D01*
X149156886Y-106871344D01*
X149156882Y-106871351D01*
X149106588Y-107006197D01*
X149100462Y-107063180D01*
X149100181Y-107065803D01*
X149100180Y-107065815D01*
X149100180Y-107614582D01*
X149080495Y-107681621D01*
X149027691Y-107727376D01*
X148958533Y-107737320D01*
X148894977Y-107708295D01*
X148888499Y-107702263D01*
X147309214Y-106122978D01*
X147275729Y-106061655D01*
X147280713Y-105991963D01*
X147322585Y-105936030D01*
X147388049Y-105911613D01*
X147409502Y-105911940D01*
X147426516Y-105913678D01*
X147426537Y-105913679D01*
X147525680Y-105913678D01*
X147525680Y-105188680D01*
X146738181Y-105188680D01*
X146738181Y-105225319D01*
X146738182Y-105225341D01*
X146739921Y-105242367D01*
X146727150Y-105311059D01*
X146679269Y-105361943D01*
X146611478Y-105378862D01*
X146545302Y-105356445D01*
X146528882Y-105342647D01*
X145922792Y-104736557D01*
X145838260Y-104652025D01*
X146738180Y-104652025D01*
X146738180Y-104688680D01*
X147525680Y-104688680D01*
X147525680Y-103963679D01*
X147426540Y-103963680D01*
X147426524Y-103963681D01*
X147325527Y-103973999D01*
X147161879Y-104028226D01*
X147161868Y-104028231D01*
X147015145Y-104118732D01*
X147015141Y-104118735D01*
X146893235Y-104240641D01*
X146893232Y-104240645D01*
X146802731Y-104387368D01*
X146802726Y-104387379D01*
X146748499Y-104551027D01*
X146738180Y-104652025D01*
X145838260Y-104652025D01*
X145287498Y-104101262D01*
X145254013Y-104039939D01*
X145251179Y-104013581D01*
X145251179Y-103639510D01*
X145251178Y-103639493D01*
X145240854Y-103538427D01*
X145232967Y-103514626D01*
X145186588Y-103374664D01*
X145096020Y-103227830D01*
X144974030Y-103105840D01*
X144954377Y-103093717D01*
X144907654Y-103041771D01*
X144896431Y-102972808D01*
X144924275Y-102908726D01*
X144982344Y-102869870D01*
X145019475Y-102864180D01*
X147827210Y-102864180D01*
X147857136Y-102867845D01*
G37*
%TD.AperFunction*%
%TA.AperFunction,Conductor*%
G36*
X143337190Y-106304325D02*
G01*
X143373769Y-106342283D01*
X143454199Y-106472680D01*
X143455341Y-106474531D01*
X143503724Y-106522914D01*
X143537209Y-106584237D01*
X143532225Y-106653929D01*
X143515310Y-106684906D01*
X143431884Y-106796348D01*
X143431882Y-106796351D01*
X143381588Y-106931197D01*
X143376665Y-106976995D01*
X143375181Y-106990803D01*
X143375180Y-106990815D01*
X143375180Y-107396871D01*
X143374319Y-107399801D01*
X143375040Y-107402771D01*
X143364535Y-107433123D01*
X143355495Y-107463910D01*
X143353187Y-107465909D01*
X143352188Y-107468798D01*
X143326940Y-107488653D01*
X143302691Y-107509665D01*
X143299668Y-107510099D01*
X143297267Y-107511988D01*
X143265313Y-107515039D01*
X143233533Y-107519609D01*
X143230753Y-107518339D01*
X143227713Y-107518630D01*
X143199186Y-107503923D01*
X143169977Y-107490584D01*
X143167505Y-107487590D01*
X143165611Y-107486614D01*
X143143793Y-107458871D01*
X143106930Y-107395023D01*
X143106929Y-107395022D01*
X143063292Y-107319439D01*
X143046680Y-107257440D01*
X143046680Y-107230395D01*
X143046679Y-107230393D01*
X143014382Y-107068022D01*
X143014379Y-107068013D01*
X142951025Y-106915060D01*
X142951018Y-106915047D01*
X142859039Y-106777392D01*
X142859036Y-106777388D01*
X142741973Y-106660325D01*
X142739794Y-106658537D01*
X142738958Y-106657310D01*
X142737661Y-106656013D01*
X142737906Y-106655767D01*
X142700456Y-106600793D01*
X142698581Y-106530949D01*
X142734765Y-106471178D01*
X142797519Y-106440459D01*
X142818453Y-106438679D01*
X142823987Y-106438679D01*
X142824003Y-106438678D01*
X142923287Y-106428535D01*
X143084161Y-106375227D01*
X143084168Y-106375224D01*
X143203134Y-106301844D01*
X143270526Y-106283403D01*
X143337190Y-106304325D01*
G37*
%TD.AperFunction*%
%TA.AperFunction,Conductor*%
G36*
X141037115Y-102416480D02*
G01*
X141045343Y-102424000D01*
X141329133Y-102707791D01*
X141329138Y-102707795D01*
X141393869Y-102751046D01*
X141438675Y-102804658D01*
X141448980Y-102854149D01*
X141448980Y-103375810D01*
X141448979Y-103375828D01*
X141448979Y-103541534D01*
X141448978Y-103541534D01*
X141471427Y-103625312D01*
X141489903Y-103694265D01*
X141497195Y-103706895D01*
X141515489Y-103738582D01*
X141533567Y-103769893D01*
X141550180Y-103831893D01*
X141550180Y-104212017D01*
X141550181Y-104212035D01*
X141560330Y-104311387D01*
X141560331Y-104311390D01*
X141613676Y-104472374D01*
X141613681Y-104472385D01*
X141702709Y-104616720D01*
X141702712Y-104616724D01*
X141712340Y-104626352D01*
X141745825Y-104687675D01*
X141740841Y-104757367D01*
X141728859Y-104781251D01*
X141602972Y-104976398D01*
X141582691Y-104993910D01*
X141564986Y-105014021D01*
X141556589Y-105016450D01*
X141550090Y-105022063D01*
X141524761Y-105025660D01*
X141498772Y-105033180D01*
X141409195Y-105033180D01*
X141246822Y-105065477D01*
X141246813Y-105065480D01*
X141097131Y-105127480D01*
X141027662Y-105134949D01*
X140965183Y-105103673D01*
X140929531Y-105043584D01*
X140925679Y-105012919D01*
X140925679Y-104363708D01*
X140925678Y-104363693D01*
X140915185Y-104260982D01*
X140860038Y-104094560D01*
X140860036Y-104094555D01*
X140767995Y-103945334D01*
X140644025Y-103821364D01*
X140494804Y-103729323D01*
X140494799Y-103729321D01*
X140328377Y-103674174D01*
X140328370Y-103674173D01*
X140225666Y-103663680D01*
X139525680Y-103663680D01*
X139525680Y-105289680D01*
X139505995Y-105356719D01*
X139453191Y-105402474D01*
X139401680Y-105413680D01*
X139149680Y-105413680D01*
X139082641Y-105393995D01*
X139036886Y-105341191D01*
X139025680Y-105289680D01*
X139025680Y-103663680D01*
X138325708Y-103663680D01*
X138325692Y-103663681D01*
X138222982Y-103674174D01*
X138056560Y-103729321D01*
X138056555Y-103729323D01*
X137907334Y-103821364D01*
X137783364Y-103945334D01*
X137691323Y-104094555D01*
X137691321Y-104094560D01*
X137636174Y-104260982D01*
X137636173Y-104260989D01*
X137625680Y-104363693D01*
X137625680Y-104864940D01*
X137619437Y-104886199D01*
X137617851Y-104908302D01*
X137609785Y-104919071D01*
X137605995Y-104931979D01*
X137589250Y-104946488D01*
X137575966Y-104964225D01*
X137563358Y-104968923D01*
X137553191Y-104977734D01*
X137531258Y-104980887D01*
X137510496Y-104988626D01*
X137497350Y-104985763D01*
X137484033Y-104987678D01*
X137463877Y-104978473D01*
X137442226Y-104973758D01*
X137424529Y-104960503D01*
X137420477Y-104958653D01*
X137413987Y-104952609D01*
X137358941Y-104897536D01*
X137358720Y-104897284D01*
X137295785Y-104834349D01*
X137241513Y-104780050D01*
X137241399Y-104779963D01*
X137241396Y-104779960D01*
X137171489Y-104739599D01*
X137171463Y-104739584D01*
X137171462Y-104739584D01*
X137104603Y-104700961D01*
X137104531Y-104700941D01*
X137104464Y-104700903D01*
X137088106Y-104696520D01*
X137028554Y-104680563D01*
X137028525Y-104680555D01*
X136970852Y-104665086D01*
X136951886Y-104659999D01*
X136951885Y-104659998D01*
X136951882Y-104659998D01*
X136951751Y-104659980D01*
X136951737Y-104659980D01*
X136874856Y-104659980D01*
X136785873Y-104659958D01*
X136785537Y-104659980D01*
X135996054Y-104659980D01*
X135929015Y-104640295D01*
X135883260Y-104587491D01*
X135873316Y-104518333D01*
X135902341Y-104454777D01*
X135908380Y-104448292D01*
X136095720Y-104260982D01*
X136619372Y-103737413D01*
X136619396Y-103737400D01*
X136681342Y-103675454D01*
X136730305Y-103626498D01*
X136731105Y-103625718D01*
X136731158Y-103625645D01*
X136731170Y-103625634D01*
X136731177Y-103625619D01*
X136731182Y-103625612D01*
X136731200Y-103625596D01*
X136731218Y-103625563D01*
X136731404Y-103625312D01*
X136732278Y-103623727D01*
X136774268Y-103551000D01*
X136810238Y-103488709D01*
X136810239Y-103488704D01*
X136810247Y-103488691D01*
X136810253Y-103488676D01*
X136810255Y-103488666D01*
X136810257Y-103488664D01*
X136831926Y-103407794D01*
X136831926Y-103407793D01*
X136831927Y-103407793D01*
X136831927Y-103407789D01*
X136851174Y-103335985D01*
X136851174Y-103335977D01*
X136851180Y-103335938D01*
X136851180Y-103260636D01*
X136851187Y-103177871D01*
X136851180Y-103177844D01*
X136851180Y-102688180D01*
X136870865Y-102621141D01*
X136923669Y-102575386D01*
X136975180Y-102564180D01*
X137114373Y-102564180D01*
X137114374Y-102564179D01*
X137172362Y-102552644D01*
X137288338Y-102529576D01*
X137288341Y-102529574D01*
X137288346Y-102529574D01*
X137452227Y-102461693D01*
X137526824Y-102411848D01*
X137593499Y-102390971D01*
X137660880Y-102409455D01*
X137701252Y-102449853D01*
X137782968Y-102582336D01*
X137907024Y-102706392D01*
X138056346Y-102798494D01*
X138222883Y-102853679D01*
X138325671Y-102864180D01*
X140225688Y-102864179D01*
X140328477Y-102853679D01*
X140495014Y-102798494D01*
X140644336Y-102706392D01*
X140768392Y-102582336D01*
X140852123Y-102446584D01*
X140904071Y-102399860D01*
X140973033Y-102388637D01*
X141037115Y-102416480D01*
G37*
%TD.AperFunction*%
%TA.AperFunction,Conductor*%
G36*
X154596406Y-94349078D02*
G01*
X154645812Y-94398483D01*
X154660980Y-94457911D01*
X154660980Y-95255882D01*
X154641295Y-95322921D01*
X154624661Y-95343563D01*
X153211161Y-96757062D01*
X153211159Y-96757065D01*
X153169073Y-96829962D01*
X153169072Y-96829963D01*
X153132103Y-96893994D01*
X153132103Y-96893995D01*
X153091179Y-97046723D01*
X153091179Y-97046725D01*
X153091179Y-97214826D01*
X153091180Y-97214839D01*
X153091180Y-102783415D01*
X153071495Y-102850454D01*
X153054861Y-102871096D01*
X153019304Y-102906652D01*
X153019301Y-102906656D01*
X152924587Y-103048405D01*
X152924582Y-103048415D01*
X152859340Y-103205922D01*
X152859338Y-103205930D01*
X152826080Y-103373131D01*
X152826080Y-103543628D01*
X152859338Y-103710829D01*
X152859340Y-103710837D01*
X152893053Y-103792227D01*
X152900522Y-103861697D01*
X152869247Y-103924176D01*
X152809158Y-103959828D01*
X152778493Y-103963680D01*
X152651541Y-103963680D01*
X152651524Y-103963681D01*
X152550527Y-103973999D01*
X152386879Y-104028226D01*
X152386868Y-104028231D01*
X152240145Y-104118732D01*
X152226212Y-104132665D01*
X152164888Y-104166148D01*
X152095196Y-104161162D01*
X152050852Y-104132662D01*
X152036531Y-104118341D01*
X152036530Y-104118340D01*
X151929843Y-104052535D01*
X151889698Y-104027773D01*
X151889693Y-104027771D01*
X151857994Y-104017267D01*
X151725933Y-103973506D01*
X151725931Y-103973505D01*
X151624858Y-103963180D01*
X150926510Y-103963180D01*
X150926492Y-103963181D01*
X150825427Y-103973505D01*
X150661664Y-104027772D01*
X150661661Y-104027773D01*
X150514828Y-104118341D01*
X150475861Y-104157309D01*
X150414538Y-104190794D01*
X150344846Y-104185810D01*
X150314904Y-104169661D01*
X150307228Y-104164038D01*
X150261530Y-104118340D01*
X150155888Y-104053180D01*
X150151904Y-104050261D01*
X150133553Y-104026271D01*
X150113358Y-104003818D01*
X150112081Y-103998199D01*
X150109454Y-103994765D01*
X150108412Y-103982054D01*
X150101180Y-103950228D01*
X150101180Y-102608300D01*
X150120865Y-102541261D01*
X150128534Y-102530611D01*
X150129368Y-102529574D01*
X150142710Y-102512976D01*
X150227321Y-102342373D01*
X150273280Y-102157569D01*
X150276180Y-102114803D01*
X150276179Y-101212558D01*
X150273280Y-101169791D01*
X150227321Y-100984987D01*
X150189486Y-100908699D01*
X150142712Y-100814387D01*
X150142710Y-100814384D01*
X150023402Y-100665958D01*
X150023401Y-100665957D01*
X149954194Y-100610327D01*
X149914275Y-100552984D01*
X149911695Y-100483162D01*
X149947274Y-100423029D01*
X149954194Y-100417033D01*
X149975614Y-100399815D01*
X150023402Y-100361402D01*
X150142710Y-100212976D01*
X150227321Y-100042373D01*
X150273280Y-99857569D01*
X150276180Y-99814803D01*
X150276179Y-98912558D01*
X150273280Y-98869791D01*
X150227321Y-98684987D01*
X150161084Y-98551431D01*
X150142712Y-98514387D01*
X150142710Y-98514384D01*
X150023404Y-98365960D01*
X150020631Y-98363731D01*
X149953792Y-98310004D01*
X149913876Y-98252665D01*
X149911296Y-98182843D01*
X149946874Y-98122710D01*
X149953795Y-98116713D01*
X150023046Y-98061047D01*
X150023047Y-98061046D01*
X150142287Y-97912705D01*
X150142289Y-97912702D01*
X150226848Y-97742203D01*
X150272782Y-97557504D01*
X150275680Y-97514776D01*
X150275680Y-97313680D01*
X147275680Y-97313680D01*
X147275680Y-97514776D01*
X147278577Y-97557504D01*
X147324511Y-97742203D01*
X147409070Y-97912702D01*
X147409072Y-97912705D01*
X147528310Y-98061044D01*
X147597564Y-98116711D01*
X147637483Y-98174055D01*
X147640063Y-98243877D01*
X147604485Y-98304009D01*
X147597565Y-98310006D01*
X147530733Y-98363728D01*
X147527956Y-98365960D01*
X147408649Y-98514384D01*
X147408647Y-98514387D01*
X147321052Y-98691009D01*
X147319144Y-98690062D01*
X147283549Y-98738090D01*
X147218202Y-98762820D01*
X147208764Y-98763180D01*
X145854908Y-98763180D01*
X145787869Y-98743495D01*
X145742114Y-98690691D01*
X145732170Y-98621533D01*
X145737202Y-98600176D01*
X145753354Y-98551433D01*
X145763680Y-98450357D01*
X145763679Y-97877004D01*
X145761629Y-97856939D01*
X145753354Y-97775927D01*
X145737172Y-97727094D01*
X145699088Y-97612164D01*
X145680889Y-97582659D01*
X145662450Y-97515268D01*
X145683373Y-97448605D01*
X145737015Y-97403835D01*
X145806346Y-97395174D01*
X145810577Y-97395938D01*
X145849998Y-97403780D01*
X146015564Y-97403780D01*
X146015565Y-97403779D01*
X146069689Y-97393013D01*
X146177937Y-97371482D01*
X146177940Y-97371480D01*
X146177945Y-97371480D01*
X146330906Y-97308122D01*
X146468568Y-97216139D01*
X146509470Y-97175236D01*
X146516782Y-97170382D01*
X146519952Y-97165879D01*
X146534993Y-97158296D01*
X146550418Y-97148060D01*
X146557577Y-97145146D01*
X146640765Y-97122857D01*
X146701182Y-97087975D01*
X146777696Y-97043800D01*
X146889500Y-96931996D01*
X146889500Y-96931994D01*
X146899703Y-96921792D01*
X146899707Y-96921786D01*
X147064001Y-96757492D01*
X147125322Y-96724009D01*
X147195014Y-96728993D01*
X147250947Y-96770865D01*
X147261703Y-96799703D01*
X147275680Y-96813680D01*
X148525680Y-96813680D01*
X149025680Y-96813680D01*
X150275680Y-96813680D01*
X150275680Y-96612583D01*
X150272782Y-96569855D01*
X150226848Y-96385156D01*
X150142289Y-96214657D01*
X150142287Y-96214654D01*
X150023047Y-96066313D01*
X150023046Y-96066312D01*
X149874705Y-95947072D01*
X149874702Y-95947070D01*
X149704203Y-95862511D01*
X149519504Y-95816577D01*
X149476777Y-95813680D01*
X149025680Y-95813680D01*
X149025680Y-96813680D01*
X148525680Y-96813680D01*
X148525680Y-95813680D01*
X148307176Y-95813680D01*
X148240137Y-95793995D01*
X148194382Y-95741191D01*
X148184438Y-95672033D01*
X148213463Y-95608477D01*
X148219477Y-95602018D01*
X148897000Y-94924496D01*
X148944092Y-94842928D01*
X148994659Y-94794713D01*
X149063266Y-94781489D01*
X149128131Y-94807457D01*
X149158867Y-94842927D01*
X149205960Y-94924496D01*
X149317764Y-95036300D01*
X149317766Y-95036301D01*
X149317770Y-95036304D01*
X149421430Y-95096151D01*
X149454696Y-95115357D01*
X149607423Y-95156280D01*
X150167377Y-95156280D01*
X150234416Y-95175965D01*
X150280171Y-95228769D01*
X150288995Y-95256093D01*
X150289863Y-95260458D01*
X150289864Y-95260462D01*
X150353975Y-95415240D01*
X150447053Y-95554542D01*
X150565517Y-95673006D01*
X150657071Y-95734180D01*
X150704817Y-95766083D01*
X150859598Y-95830196D01*
X151020298Y-95862161D01*
X151023908Y-95862879D01*
X151023912Y-95862880D01*
X151023913Y-95862880D01*
X151191448Y-95862880D01*
X151191449Y-95862879D01*
X151355762Y-95830196D01*
X151510543Y-95766083D01*
X151649842Y-95673006D01*
X151768306Y-95554542D01*
X151861383Y-95415243D01*
X151925496Y-95260462D01*
X151958180Y-95096147D01*
X151958180Y-94928613D01*
X151953040Y-94902770D01*
X151959267Y-94833179D01*
X152002130Y-94778001D01*
X152068020Y-94754757D01*
X152074657Y-94754579D01*
X152724351Y-94754579D01*
X152724352Y-94754579D01*
X152783963Y-94748171D01*
X152818147Y-94735420D01*
X152887838Y-94730437D01*
X152904807Y-94735418D01*
X152938997Y-94748171D01*
X152998607Y-94754580D01*
X153994352Y-94754579D01*
X154053963Y-94748171D01*
X154188811Y-94697876D01*
X154304026Y-94611626D01*
X154390276Y-94496411D01*
X154418788Y-94419966D01*
X154420798Y-94414578D01*
X154462669Y-94358644D01*
X154528133Y-94334227D01*
X154596406Y-94349078D01*
G37*
%TD.AperFunction*%
%TA.AperFunction,Conductor*%
G36*
X137622159Y-93224264D02*
G01*
X137667914Y-93277068D01*
X137676746Y-93330006D01*
X137678980Y-93330006D01*
X137678980Y-93501666D01*
X137711277Y-93664037D01*
X137711280Y-93664046D01*
X137774634Y-93816999D01*
X137774641Y-93817012D01*
X137866620Y-93954667D01*
X137866622Y-93954670D01*
X137882659Y-93970706D01*
X137897365Y-93997637D01*
X137913957Y-94023454D01*
X137914848Y-94029651D01*
X137916146Y-94032028D01*
X137918980Y-94058389D01*
X137918980Y-94101510D01*
X137918979Y-94101528D01*
X137918979Y-94267234D01*
X137918978Y-94267234D01*
X137918979Y-94267237D01*
X137959903Y-94419965D01*
X137984792Y-94463074D01*
X138038957Y-94556892D01*
X138038961Y-94556897D01*
X138157829Y-94675765D01*
X138157835Y-94675770D01*
X138402219Y-94920154D01*
X138402229Y-94920165D01*
X138406559Y-94924495D01*
X138406560Y-94924496D01*
X138518364Y-95036300D01*
X138592169Y-95078911D01*
X138655295Y-95115357D01*
X138808023Y-95156281D01*
X138808026Y-95156281D01*
X138973733Y-95156281D01*
X138973749Y-95156280D01*
X142145535Y-95156280D01*
X142145537Y-95156280D01*
X142298264Y-95115357D01*
X142421579Y-95044161D01*
X142489477Y-95027689D01*
X142555504Y-95050541D01*
X142598695Y-95105463D01*
X142599322Y-95107063D01*
X142603127Y-95116965D01*
X142607480Y-95138845D01*
X142663751Y-95274696D01*
X142664342Y-95276234D01*
X142667053Y-95309499D01*
X142670627Y-95342738D01*
X142669884Y-95344221D01*
X142670019Y-95345873D01*
X142654311Y-95375330D01*
X142639351Y-95405217D01*
X142637924Y-95406063D01*
X142637145Y-95407525D01*
X142608014Y-95423809D01*
X142579262Y-95440869D01*
X142576676Y-95441328D01*
X142576158Y-95441618D01*
X142575332Y-95441567D01*
X142561199Y-95444078D01*
X142513027Y-95448999D01*
X142349379Y-95503226D01*
X142349368Y-95503231D01*
X142202645Y-95593732D01*
X142202641Y-95593735D01*
X142080735Y-95715641D01*
X142080732Y-95715645D01*
X141990231Y-95862368D01*
X141990226Y-95862379D01*
X141935999Y-96026027D01*
X141925680Y-96127025D01*
X141925680Y-96163680D01*
X142826680Y-96163680D01*
X142893719Y-96183365D01*
X142939474Y-96236169D01*
X142950680Y-96287680D01*
X142950680Y-96539680D01*
X142930995Y-96606719D01*
X142878191Y-96652474D01*
X142826680Y-96663680D01*
X141925681Y-96663680D01*
X141925681Y-96700334D01*
X141935999Y-96801332D01*
X141990226Y-96964980D01*
X141990231Y-96964991D01*
X142080732Y-97111714D01*
X142080735Y-97111718D01*
X142188412Y-97219395D01*
X142221897Y-97280718D01*
X142216913Y-97350410D01*
X142188413Y-97394757D01*
X142117839Y-97465331D01*
X142027273Y-97612161D01*
X142027271Y-97612166D01*
X142003732Y-97683202D01*
X141973006Y-97775927D01*
X141973006Y-97775928D01*
X141973005Y-97775928D01*
X141962680Y-97876995D01*
X141962680Y-98450349D01*
X141962681Y-98450367D01*
X141973005Y-98551432D01*
X141989158Y-98600176D01*
X142018943Y-98690062D01*
X142027272Y-98715195D01*
X142027273Y-98715198D01*
X142041393Y-98738090D01*
X142117840Y-98862030D01*
X142239830Y-98984020D01*
X142291277Y-99015752D01*
X142298100Y-99023337D01*
X142307383Y-99027577D01*
X142321069Y-99048873D01*
X142338001Y-99067697D01*
X142340645Y-99079335D01*
X142345157Y-99086355D01*
X142350180Y-99121290D01*
X142350180Y-99172771D01*
X142330495Y-99239810D01*
X142286411Y-99278321D01*
X142287493Y-99280075D01*
X142281347Y-99283865D01*
X142281346Y-99283866D01*
X142188535Y-99341112D01*
X142132022Y-99375969D01*
X142007969Y-99500022D01*
X141915867Y-99649343D01*
X141915866Y-99649346D01*
X141860681Y-99815883D01*
X141860681Y-99815884D01*
X141860680Y-99815884D01*
X141850180Y-99918663D01*
X141850180Y-100908681D01*
X141850181Y-100908699D01*
X141853311Y-100939332D01*
X141840541Y-101008025D01*
X141792660Y-101058909D01*
X141724870Y-101075829D01*
X141658694Y-101053413D01*
X141642272Y-101039614D01*
X141172225Y-100569567D01*
X141057488Y-100492903D01*
X141002726Y-100470220D01*
X140948322Y-100426378D01*
X140926258Y-100360084D01*
X140926179Y-100355659D01*
X140926179Y-100063678D01*
X140926178Y-100063661D01*
X140915679Y-99960883D01*
X140915678Y-99960880D01*
X140901691Y-99918671D01*
X140860494Y-99794346D01*
X140768392Y-99645024D01*
X140644336Y-99520968D01*
X140495014Y-99428866D01*
X140451178Y-99414340D01*
X140350218Y-99380885D01*
X140292773Y-99341112D01*
X140265950Y-99276596D01*
X140278265Y-99207820D01*
X140325808Y-99156620D01*
X140389219Y-99139179D01*
X140824856Y-99139179D01*
X140824864Y-99139178D01*
X140824867Y-99139178D01*
X140913539Y-99130120D01*
X140925933Y-99128854D01*
X141089696Y-99074588D01*
X141236530Y-98984020D01*
X141358520Y-98862030D01*
X141449088Y-98715196D01*
X141503354Y-98551433D01*
X141513680Y-98450357D01*
X141513679Y-97877004D01*
X141511629Y-97856939D01*
X141503354Y-97775927D01*
X141487172Y-97727094D01*
X141449088Y-97612164D01*
X141358520Y-97465330D01*
X141250801Y-97357611D01*
X141217316Y-97296288D01*
X141222300Y-97226596D01*
X141250801Y-97182249D01*
X141284990Y-97148060D01*
X141321020Y-97112030D01*
X141411588Y-96965196D01*
X141465854Y-96801433D01*
X141476180Y-96700357D01*
X141476179Y-96127004D01*
X141469979Y-96066313D01*
X141465854Y-96025927D01*
X141460618Y-96010127D01*
X141411588Y-95862164D01*
X141321020Y-95715330D01*
X141199030Y-95593340D01*
X141107809Y-95537075D01*
X141052198Y-95502773D01*
X141052193Y-95502771D01*
X141050749Y-95502292D01*
X140888433Y-95448506D01*
X140888431Y-95448505D01*
X140787358Y-95438180D01*
X140114010Y-95438180D01*
X140113992Y-95438181D01*
X140012927Y-95448505D01*
X139849164Y-95502772D01*
X139849161Y-95502773D01*
X139702328Y-95593341D01*
X139663006Y-95632663D01*
X139601683Y-95666148D01*
X139531991Y-95661162D01*
X139487645Y-95632662D01*
X139448718Y-95593735D01*
X139448714Y-95593732D01*
X139301991Y-95503231D01*
X139301980Y-95503226D01*
X139138332Y-95448999D01*
X139037334Y-95438680D01*
X138950680Y-95438680D01*
X138950680Y-96289680D01*
X138930995Y-96356719D01*
X138878191Y-96402474D01*
X138826680Y-96413680D01*
X138700680Y-96413680D01*
X138700680Y-96539680D01*
X138680995Y-96606719D01*
X138628191Y-96652474D01*
X138576680Y-96663680D01*
X137675681Y-96663680D01*
X137675681Y-96700334D01*
X137685999Y-96801332D01*
X137740226Y-96964980D01*
X137740231Y-96964991D01*
X137830732Y-97111714D01*
X137830735Y-97111718D01*
X137938412Y-97219395D01*
X137971897Y-97280718D01*
X137966913Y-97350410D01*
X137938413Y-97394757D01*
X137867839Y-97465331D01*
X137777273Y-97612161D01*
X137777271Y-97612166D01*
X137753732Y-97683202D01*
X137723006Y-97775927D01*
X137723006Y-97775928D01*
X137723005Y-97775928D01*
X137712680Y-97876995D01*
X137712680Y-98450349D01*
X137712681Y-98450367D01*
X137723005Y-98551432D01*
X137739158Y-98600176D01*
X137768943Y-98690062D01*
X137777272Y-98715195D01*
X137777273Y-98715198D01*
X137791393Y-98738090D01*
X137867840Y-98862030D01*
X137989830Y-98984020D01*
X138041277Y-99015752D01*
X138048100Y-99023337D01*
X138057383Y-99027577D01*
X138071069Y-99048873D01*
X138088001Y-99067697D01*
X138090645Y-99079335D01*
X138095157Y-99086355D01*
X138100180Y-99121290D01*
X138100180Y-99332622D01*
X138080495Y-99399661D01*
X138041278Y-99438159D01*
X137954889Y-99491444D01*
X137907022Y-99520969D01*
X137782969Y-99645022D01*
X137690867Y-99794343D01*
X137690866Y-99794346D01*
X137635681Y-99960883D01*
X137635681Y-99960884D01*
X137635680Y-99960884D01*
X137625180Y-100063663D01*
X137625180Y-100751727D01*
X137605495Y-100818766D01*
X137552691Y-100864521D01*
X137483533Y-100874465D01*
X137453728Y-100866288D01*
X137288347Y-100797786D01*
X137288338Y-100797783D01*
X137114374Y-100763180D01*
X137114371Y-100763180D01*
X136975180Y-100763180D01*
X136908141Y-100743495D01*
X136862386Y-100690691D01*
X136851180Y-100639180D01*
X136851180Y-96127025D01*
X137675680Y-96127025D01*
X137675680Y-96163680D01*
X138450680Y-96163680D01*
X138450680Y-95438680D01*
X138450679Y-95438679D01*
X138364040Y-95438680D01*
X138364023Y-95438681D01*
X138263027Y-95448999D01*
X138099379Y-95503226D01*
X138099368Y-95503231D01*
X137952645Y-95593732D01*
X137952641Y-95593735D01*
X137830735Y-95715641D01*
X137830732Y-95715645D01*
X137740231Y-95862368D01*
X137740226Y-95862379D01*
X137685999Y-96026027D01*
X137675680Y-96127025D01*
X136851180Y-96127025D01*
X136851180Y-93328579D01*
X136870865Y-93261540D01*
X136923669Y-93215785D01*
X136975175Y-93204579D01*
X137555120Y-93204579D01*
X137622159Y-93224264D01*
G37*
%TD.AperFunction*%
%TA.AperFunction,Conductor*%
G36*
X147376644Y-100183365D02*
G01*
X147406252Y-100209993D01*
X147523964Y-100356434D01*
X147527958Y-100361402D01*
X147597818Y-100417557D01*
X147598450Y-100418079D01*
X147617578Y-100446355D01*
X147637085Y-100474376D01*
X147637116Y-100475237D01*
X147637599Y-100475950D01*
X147638404Y-100510075D01*
X147639665Y-100544198D01*
X147639226Y-100544938D01*
X147639247Y-100545800D01*
X147621458Y-100574968D01*
X147604086Y-100604331D01*
X147602954Y-100605310D01*
X147602869Y-100605452D01*
X147602694Y-100605536D01*
X147597166Y-100610327D01*
X147527958Y-100665957D01*
X147527954Y-100665961D01*
X147523194Y-100671883D01*
X147465849Y-100711799D01*
X147396026Y-100714374D01*
X147338871Y-100681871D01*
X147320680Y-100663680D01*
X146149680Y-100663680D01*
X146082641Y-100643995D01*
X146036886Y-100591191D01*
X146025680Y-100539680D01*
X146025680Y-100287680D01*
X146045365Y-100220641D01*
X146098169Y-100174886D01*
X146149680Y-100163680D01*
X147309605Y-100163680D01*
X147376644Y-100183365D01*
G37*
%TD.AperFunction*%
%TA.AperFunction,Conductor*%
G36*
X135283705Y-91364497D02*
G01*
X135341568Y-91403659D01*
X135369073Y-91467887D01*
X135357487Y-91536790D01*
X135333636Y-91570287D01*
X135320151Y-91583772D01*
X135320037Y-91583921D01*
X135281457Y-91650800D01*
X135281435Y-91650838D01*
X135241099Y-91720702D01*
X135241021Y-91720889D01*
X135220314Y-91798279D01*
X135220303Y-91798321D01*
X135200180Y-91873423D01*
X135200180Y-91873529D01*
X135200151Y-91873638D01*
X135200151Y-91873669D01*
X135200150Y-91873673D01*
X135200180Y-91953657D01*
X135200180Y-99444000D01*
X135180495Y-99511039D01*
X135127691Y-99556794D01*
X135076180Y-99568000D01*
X128775780Y-99568000D01*
X128708741Y-99548315D01*
X128662986Y-99495511D01*
X128651780Y-99444000D01*
X128651780Y-92173176D01*
X128660424Y-92143735D01*
X128666948Y-92113749D01*
X128670702Y-92108733D01*
X128671465Y-92106137D01*
X128688095Y-92085499D01*
X128773500Y-92000094D01*
X128834822Y-91966610D01*
X128904514Y-91971594D01*
X128960447Y-92013466D01*
X128984864Y-92078930D01*
X128985180Y-92087776D01*
X128985180Y-92234967D01*
X128989143Y-92259988D01*
X129016849Y-92434919D01*
X129018434Y-92444923D01*
X129080874Y-92637094D01*
X129084124Y-92647094D01*
X129180631Y-92836500D01*
X129305570Y-93008466D01*
X129455893Y-93158789D01*
X129627862Y-93283730D01*
X129636626Y-93288196D01*
X129687422Y-93336171D01*
X129704216Y-93403992D01*
X129681678Y-93470127D01*
X129636626Y-93509164D01*
X129627862Y-93513629D01*
X129455893Y-93638570D01*
X129305570Y-93788893D01*
X129180631Y-93960859D01*
X129084124Y-94150265D01*
X129018433Y-94352440D01*
X128986051Y-94556892D01*
X128985180Y-94562393D01*
X128985180Y-94774967D01*
X128990326Y-94807457D01*
X129016849Y-94974919D01*
X129018434Y-94984923D01*
X129080874Y-95177094D01*
X129084124Y-95187094D01*
X129180631Y-95376500D01*
X129305570Y-95548466D01*
X129455893Y-95698789D01*
X129627862Y-95823730D01*
X129636626Y-95828196D01*
X129687422Y-95876171D01*
X129704216Y-95943992D01*
X129681678Y-96010127D01*
X129636626Y-96049164D01*
X129627862Y-96053629D01*
X129455893Y-96178570D01*
X129305570Y-96328893D01*
X129180631Y-96500859D01*
X129084124Y-96690265D01*
X129018433Y-96892440D01*
X128985180Y-97102393D01*
X128985180Y-97314966D01*
X129016904Y-97515268D01*
X129018434Y-97524923D01*
X129080874Y-97717094D01*
X129084124Y-97727094D01*
X129180631Y-97916500D01*
X129305570Y-98088466D01*
X129455893Y-98238789D01*
X129627859Y-98363728D01*
X129627861Y-98363729D01*
X129627864Y-98363731D01*
X129817268Y-98460237D01*
X130019437Y-98525926D01*
X130229393Y-98559180D01*
X130229394Y-98559180D01*
X130441966Y-98559180D01*
X130441967Y-98559180D01*
X130651923Y-98525926D01*
X130854092Y-98460237D01*
X131043496Y-98363731D01*
X131125697Y-98304009D01*
X131215466Y-98238789D01*
X131215468Y-98238786D01*
X131215472Y-98238784D01*
X131365784Y-98088472D01*
X131365786Y-98088468D01*
X131365789Y-98088466D01*
X131490728Y-97916500D01*
X131490727Y-97916500D01*
X131490731Y-97916496D01*
X131495194Y-97907734D01*
X131543168Y-97856939D01*
X131610988Y-97840143D01*
X131677124Y-97862679D01*
X131716164Y-97907734D01*
X131720271Y-97915795D01*
X131720631Y-97916500D01*
X131845570Y-98088466D01*
X131995893Y-98238789D01*
X132167859Y-98363728D01*
X132167861Y-98363729D01*
X132167864Y-98363731D01*
X132357268Y-98460237D01*
X132559437Y-98525926D01*
X132769393Y-98559180D01*
X132769394Y-98559180D01*
X132981966Y-98559180D01*
X132981967Y-98559180D01*
X133191923Y-98525926D01*
X133394092Y-98460237D01*
X133583496Y-98363731D01*
X133665697Y-98304009D01*
X133755466Y-98238789D01*
X133755468Y-98238786D01*
X133755472Y-98238784D01*
X133905784Y-98088472D01*
X133905786Y-98088468D01*
X133905789Y-98088466D01*
X134030728Y-97916500D01*
X134030727Y-97916500D01*
X134030731Y-97916496D01*
X134127237Y-97727092D01*
X134192926Y-97524923D01*
X134226180Y-97314967D01*
X134226180Y-97102393D01*
X134192926Y-96892437D01*
X134127237Y-96690268D01*
X134030731Y-96500864D01*
X134030729Y-96500861D01*
X134030728Y-96500859D01*
X133905789Y-96328893D01*
X133755466Y-96178570D01*
X133583500Y-96053631D01*
X133582795Y-96053271D01*
X133574734Y-96049165D01*
X133523939Y-96001192D01*
X133507143Y-95933372D01*
X133529679Y-95867236D01*
X133574734Y-95828195D01*
X133583496Y-95823731D01*
X133624424Y-95793995D01*
X133755466Y-95698789D01*
X133755468Y-95698786D01*
X133755472Y-95698784D01*
X133905784Y-95548472D01*
X133905786Y-95548468D01*
X133905789Y-95548466D01*
X134030728Y-95376500D01*
X134030727Y-95376500D01*
X134030731Y-95376496D01*
X134127237Y-95187092D01*
X134192926Y-94984923D01*
X134226180Y-94774967D01*
X134226180Y-94562393D01*
X134192926Y-94352437D01*
X134127237Y-94150268D01*
X134030731Y-93960864D01*
X134030729Y-93960861D01*
X134030728Y-93960859D01*
X133905789Y-93788893D01*
X133755466Y-93638570D01*
X133583500Y-93513631D01*
X133582795Y-93513271D01*
X133574734Y-93509165D01*
X133523939Y-93461192D01*
X133507143Y-93393372D01*
X133529679Y-93327236D01*
X133574734Y-93288195D01*
X133583496Y-93283731D01*
X133665346Y-93224264D01*
X133755466Y-93158789D01*
X133755468Y-93158786D01*
X133755472Y-93158784D01*
X133905784Y-93008472D01*
X133905786Y-93008468D01*
X133905789Y-93008466D01*
X134030728Y-92836500D01*
X134030727Y-92836500D01*
X134030731Y-92836496D01*
X134127237Y-92647092D01*
X134192926Y-92444923D01*
X134226180Y-92234967D01*
X134226180Y-92022393D01*
X134192926Y-91812437D01*
X134127237Y-91610268D01*
X134118297Y-91592722D01*
X134105688Y-91567974D01*
X134092792Y-91499305D01*
X134119069Y-91434565D01*
X134176175Y-91394308D01*
X134216173Y-91387680D01*
X134955411Y-91387680D01*
X134955427Y-91387681D01*
X134963023Y-91387681D01*
X135121135Y-91387681D01*
X135121137Y-91387681D01*
X135213858Y-91362836D01*
X135283705Y-91364497D01*
G37*
%TD.AperFunction*%
%TA.AperFunction,Conductor*%
G36*
X165509755Y-94851673D02*
G01*
X165575581Y-94965687D01*
X165668673Y-95058779D01*
X165782687Y-95124605D01*
X165846270Y-95141642D01*
X165213962Y-95773949D01*
X165213962Y-95773950D01*
X165268132Y-95813306D01*
X165268131Y-95813306D01*
X165277175Y-95817914D01*
X165327972Y-95865888D01*
X165344767Y-95933709D01*
X165322230Y-95999844D01*
X165277179Y-96038882D01*
X165267862Y-96043629D01*
X165095893Y-96168570D01*
X164945570Y-96318893D01*
X164820629Y-96490862D01*
X164816164Y-96499626D01*
X164768189Y-96550422D01*
X164700368Y-96567216D01*
X164634233Y-96544678D01*
X164595196Y-96499626D01*
X164590730Y-96490862D01*
X164465789Y-96318893D01*
X164315466Y-96168570D01*
X164143500Y-96043631D01*
X164142795Y-96043271D01*
X164134734Y-96039165D01*
X164083939Y-95991192D01*
X164067143Y-95923372D01*
X164089679Y-95857236D01*
X164134734Y-95818195D01*
X164143496Y-95813731D01*
X164209077Y-95766084D01*
X164315466Y-95688789D01*
X164315468Y-95688786D01*
X164315472Y-95688784D01*
X164465784Y-95538472D01*
X164465786Y-95538468D01*
X164465789Y-95538466D01*
X164551570Y-95420397D01*
X164590731Y-95366496D01*
X164595473Y-95357188D01*
X164643443Y-95306391D01*
X164711263Y-95289591D01*
X164777399Y-95312125D01*
X164816443Y-95357180D01*
X164821053Y-95366227D01*
X164860408Y-95420396D01*
X165492717Y-94788088D01*
X165509755Y-94851673D01*
G37*
%TD.AperFunction*%
%TA.AperFunction,Conductor*%
G36*
X164777124Y-92772679D02*
G01*
X164816166Y-92817736D01*
X164820631Y-92826500D01*
X164945570Y-92998466D01*
X165095893Y-93148789D01*
X165267859Y-93273728D01*
X165267861Y-93273729D01*
X165267864Y-93273731D01*
X165277173Y-93278474D01*
X165327970Y-93326446D01*
X165344767Y-93394267D01*
X165322232Y-93460402D01*
X165277185Y-93499440D01*
X165268126Y-93504056D01*
X165268120Y-93504060D01*
X165213962Y-93543407D01*
X165213962Y-93543408D01*
X165846271Y-94175717D01*
X165782687Y-94192755D01*
X165668673Y-94258581D01*
X165575581Y-94351673D01*
X165509755Y-94465687D01*
X165492717Y-94529271D01*
X164860408Y-93896962D01*
X164860407Y-93896962D01*
X164821060Y-93951120D01*
X164821056Y-93951126D01*
X164816440Y-93960185D01*
X164768461Y-94010977D01*
X164700639Y-94027767D01*
X164634506Y-94005223D01*
X164595474Y-93960173D01*
X164590731Y-93950864D01*
X164590729Y-93950861D01*
X164590728Y-93950859D01*
X164465789Y-93778893D01*
X164315466Y-93628570D01*
X164143500Y-93503631D01*
X164139643Y-93501666D01*
X164134734Y-93499165D01*
X164083939Y-93451192D01*
X164067143Y-93383372D01*
X164089679Y-93317236D01*
X164134734Y-93278195D01*
X164143496Y-93273731D01*
X164211582Y-93224264D01*
X164315466Y-93148789D01*
X164315468Y-93148786D01*
X164315472Y-93148784D01*
X164465784Y-92998472D01*
X164465786Y-92998468D01*
X164465789Y-92998466D01*
X164590728Y-92826500D01*
X164590727Y-92826500D01*
X164590731Y-92826496D01*
X164595194Y-92817734D01*
X164643168Y-92766939D01*
X164710988Y-92750143D01*
X164777124Y-92772679D01*
G37*
%TD.AperFunction*%
%TD*%
M02*
