%TF.GenerationSoftware,KiCad,Pcbnew,9.0.6*%
%TF.CreationDate,2026-05-20T01:10:37+05:30*%
%TF.ProjectId,bio-microcontroller,62696f2d-6d69-4637-926f-636f6e74726f,rev?*%
%TF.SameCoordinates,Original*%
%TF.FileFunction,Soldermask,Top*%
%TF.FilePolarity,Negative*%
%FSLAX46Y46*%
G04 Gerber Fmt 4.6, Leading zero omitted, Abs format (unit mm)*
G04 Created by KiCad (PCBNEW 9.0.6) date 2026-05-20 01:10:37*
%MOMM*%
%LPD*%
G01*
G04 APERTURE LIST*
G04 Aperture macros list*
%AMRoundRect*
0 Rectangle with rounded corners*
0 $1 Rounding radius*
0 $2 $3 $4 $5 $6 $7 $8 $9 X,Y pos of 4 corners*
0 Add a 4 corners polygon primitive as box body*
4,1,4,$2,$3,$4,$5,$6,$7,$8,$9,$2,$3,0*
0 Add four circle primitives for the rounded corners*
1,1,$1+$1,$2,$3*
1,1,$1+$1,$4,$5*
1,1,$1+$1,$6,$7*
1,1,$1+$1,$8,$9*
0 Add four rect primitives between the rounded corners*
20,1,$1+$1,$2,$3,$4,$5,0*
20,1,$1+$1,$4,$5,$6,$7,0*
20,1,$1+$1,$6,$7,$8,$9,0*
20,1,$1+$1,$8,$9,$2,$3,0*%
G04 Aperture macros list end*
%ADD10RoundRect,0.100000X-0.637500X-0.100000X0.637500X-0.100000X0.637500X0.100000X-0.637500X0.100000X0*%
%ADD11C,0.600000*%
%ADD12R,3.900000X3.900000*%
%ADD13R,1.500000X0.900000*%
%ADD14R,0.900000X1.500000*%
%ADD15R,1.700000X1.700000*%
%ADD16C,1.700000*%
%ADD17RoundRect,0.237500X-0.237500X0.250000X-0.237500X-0.250000X0.237500X-0.250000X0.237500X0.250000X0*%
%ADD18RoundRect,0.237500X0.250000X0.237500X-0.250000X0.237500X-0.250000X-0.237500X0.250000X-0.237500X0*%
%ADD19RoundRect,0.237500X-0.250000X-0.237500X0.250000X-0.237500X0.250000X0.237500X-0.250000X0.237500X0*%
%ADD20RoundRect,0.237500X-0.287500X-0.237500X0.287500X-0.237500X0.287500X0.237500X-0.287500X0.237500X0*%
%ADD21RoundRect,0.237500X0.300000X0.237500X-0.300000X0.237500X-0.300000X-0.237500X0.300000X-0.237500X0*%
%ADD22RoundRect,0.250000X-0.545000X-0.445000X0.545000X-0.445000X0.545000X0.445000X-0.545000X0.445000X0*%
%ADD23RoundRect,0.237500X-0.237500X0.300000X-0.237500X-0.300000X0.237500X-0.300000X0.237500X0.300000X0*%
%ADD24RoundRect,0.237500X-0.300000X-0.237500X0.300000X-0.237500X0.300000X0.237500X-0.300000X0.237500X0*%
%ADD25RoundRect,0.250000X-0.900000X1.000000X-0.900000X-1.000000X0.900000X-1.000000X0.900000X1.000000X0*%
%ADD26R,1.000000X1.250000*%
%ADD27R,0.250000X1.100000*%
%ADD28RoundRect,0.250000X-1.000000X-0.900000X1.000000X-0.900000X1.000000X0.900000X-1.000000X0.900000X0*%
%ADD29RoundRect,0.237500X0.237500X-0.250000X0.237500X0.250000X-0.237500X0.250000X-0.237500X-0.250000X0*%
%ADD30RoundRect,0.375000X-0.625000X-0.375000X0.625000X-0.375000X0.625000X0.375000X-0.625000X0.375000X0*%
%ADD31RoundRect,0.500000X-0.500000X-1.400000X0.500000X-1.400000X0.500000X1.400000X-0.500000X1.400000X0*%
%ADD32RoundRect,0.150000X-0.425000X0.150000X-0.425000X-0.150000X0.425000X-0.150000X0.425000X0.150000X0*%
%ADD33RoundRect,0.075000X-0.500000X0.075000X-0.500000X-0.075000X0.500000X-0.075000X0.500000X0.075000X0*%
%ADD34O,2.100000X1.000000*%
%ADD35O,1.800000X1.000000*%
%ADD36RoundRect,0.225000X-0.250000X0.225000X-0.250000X-0.225000X0.250000X-0.225000X0.250000X0.225000X0*%
G04 APERTURE END LIST*
D10*
%TO.C,U3*%
X159225680Y-108638680D03*
X159225680Y-109288680D03*
X159225680Y-109938680D03*
X159225680Y-110588680D03*
X159225680Y-111238680D03*
X159225680Y-111888680D03*
X159225680Y-112538680D03*
X159225680Y-113188680D03*
X159225680Y-113838680D03*
X159225680Y-114488680D03*
X159225680Y-115138680D03*
X159225680Y-115788680D03*
X153500680Y-115788680D03*
X153500680Y-115138680D03*
X153500680Y-114488680D03*
X153500680Y-113838680D03*
X153500680Y-113188680D03*
X153500680Y-112538680D03*
X153500680Y-111888680D03*
X153500680Y-111238680D03*
X153500680Y-110588680D03*
X153500680Y-109938680D03*
X153500680Y-109288680D03*
X153500680Y-108638680D03*
%TD*%
D11*
%TO.C,U1*%
X146411480Y-84164080D03*
X146411480Y-82764080D03*
X145711480Y-84864080D03*
X145711480Y-83464080D03*
X145711480Y-82064080D03*
X145011480Y-84164080D03*
D12*
X145011480Y-83464080D03*
D11*
X145011480Y-82764080D03*
X144311480Y-84864080D03*
X144311480Y-83464080D03*
X144311480Y-82064080D03*
X143611480Y-84164080D03*
X143611480Y-82764080D03*
D13*
X155261480Y-75744080D03*
X155261480Y-77014080D03*
X155261480Y-78284080D03*
X155261480Y-79554080D03*
X155261480Y-80824080D03*
X155261480Y-82094080D03*
X155261480Y-83364080D03*
X155261480Y-84634080D03*
X155261480Y-85904080D03*
X155261480Y-87174080D03*
X155261480Y-88444080D03*
X155261480Y-89714080D03*
X155261480Y-90984080D03*
X155261480Y-92254080D03*
D14*
X153496480Y-93504080D03*
X152226480Y-93504080D03*
X150956480Y-93504080D03*
X149686480Y-93504080D03*
X148416480Y-93504080D03*
X147146480Y-93504080D03*
X145876480Y-93504080D03*
X144606480Y-93504080D03*
X143336480Y-93504080D03*
X142066480Y-93504080D03*
X140796480Y-93504080D03*
X139526480Y-93504080D03*
D13*
X137761480Y-92254080D03*
X137761480Y-90984080D03*
X137761480Y-89714080D03*
X137761480Y-88444080D03*
X137761480Y-87174080D03*
X137761480Y-85904080D03*
X137761480Y-84634080D03*
X137761480Y-83364080D03*
X137761480Y-82094080D03*
X137761480Y-80824080D03*
X137761480Y-79554080D03*
X137761480Y-78284080D03*
X137761480Y-77014080D03*
X137761480Y-75744080D03*
%TD*%
D15*
%TO.C,J5*%
X163435680Y-76878680D03*
D16*
X165975680Y-76878680D03*
X163435680Y-79418680D03*
X165975680Y-79418680D03*
X163435680Y-81958680D03*
X165975680Y-81958680D03*
X163435680Y-84498680D03*
X165975680Y-84498680D03*
X163435680Y-87038680D03*
X165975680Y-87038680D03*
X163435680Y-89578680D03*
X165975680Y-89578680D03*
X163435680Y-92118680D03*
X165975680Y-92118680D03*
X163435680Y-94658680D03*
X165975680Y-94658680D03*
X163435680Y-97198680D03*
X165975680Y-97198680D03*
%TD*%
D17*
%TO.C,R1*%
X136025680Y-107338680D03*
X136025680Y-109163680D03*
%TD*%
D18*
%TO.C,R14*%
X146450680Y-119963680D03*
X144625680Y-119963680D03*
%TD*%
D19*
%TO.C,R11*%
X159510680Y-118963680D03*
X161335680Y-118963680D03*
%TD*%
D20*
%TO.C,D6*%
X142950680Y-96413680D03*
X144700680Y-96413680D03*
%TD*%
D17*
%TO.C,R2*%
X135775680Y-112338680D03*
X135775680Y-114163680D03*
%TD*%
D21*
%TO.C,C9*%
X143375680Y-123363680D03*
X141650680Y-123363680D03*
%TD*%
D18*
%TO.C,R4*%
X144775680Y-98163680D03*
X142950680Y-98163680D03*
%TD*%
D21*
%TO.C,C4*%
X149500680Y-104938680D03*
X147775680Y-104938680D03*
%TD*%
D18*
%TO.C,R8*%
X157585680Y-118963680D03*
X155760680Y-118963680D03*
%TD*%
D15*
%TO.C,J2*%
X130335680Y-76888680D03*
D16*
X132875680Y-76888680D03*
X130335680Y-79428680D03*
X132875680Y-79428680D03*
X130335680Y-81968680D03*
X132875680Y-81968680D03*
X130335680Y-84508680D03*
X132875680Y-84508680D03*
X130335680Y-87048680D03*
X132875680Y-87048680D03*
X130335680Y-89588680D03*
X132875680Y-89588680D03*
X130335680Y-92128680D03*
X132875680Y-92128680D03*
X130335680Y-94668680D03*
X132875680Y-94668680D03*
X130335680Y-97208680D03*
X132875680Y-97208680D03*
%TD*%
D19*
%TO.C,R15*%
X140975680Y-118488680D03*
X142800680Y-118488680D03*
%TD*%
D15*
%TO.C,ENB2*%
X154475680Y-123088680D03*
D16*
X151935680Y-123088680D03*
%TD*%
D21*
%TO.C,C6*%
X146325680Y-117688680D03*
X144600680Y-117688680D03*
%TD*%
D22*
%TO.C,C1*%
X143145680Y-100413680D03*
X146025680Y-100413680D03*
%TD*%
D23*
%TO.C,C2*%
X154975680Y-103813680D03*
X154975680Y-105538680D03*
%TD*%
D15*
%TO.C,ENB1*%
X158560680Y-123113680D03*
D16*
X161100680Y-123113680D03*
%TD*%
D24*
%TO.C,C8*%
X141575680Y-121763680D03*
X143300680Y-121763680D03*
%TD*%
D17*
%TO.C,R13*%
X159475680Y-103713680D03*
X159475680Y-105538680D03*
%TD*%
D25*
%TO.C,D1*%
X139275680Y-101113680D03*
X139275680Y-105413680D03*
%TD*%
D18*
%TO.C,R9*%
X157685680Y-117313680D03*
X155860680Y-117313680D03*
%TD*%
D19*
%TO.C,R7*%
X140950680Y-116763680D03*
X142775680Y-116763680D03*
%TD*%
D24*
%TO.C,C3*%
X151275680Y-104938680D03*
X153000680Y-104938680D03*
%TD*%
D26*
%TO.C,SW1*%
X150100680Y-115488680D03*
X150100680Y-107738680D03*
%TD*%
%TO.C,SW2*%
X144375680Y-115413680D03*
X144375680Y-107663680D03*
%TD*%
D25*
%TO.C,D3*%
X139275680Y-108863680D03*
X139275680Y-113163680D03*
%TD*%
D15*
%TO.C,J3*%
X166800680Y-101673680D03*
D16*
X164260680Y-101673680D03*
X166800680Y-104213680D03*
X164260680Y-104213680D03*
X166800680Y-106753680D03*
X164260680Y-106753680D03*
X166800680Y-109293680D03*
X164260680Y-109293680D03*
X166800680Y-111833680D03*
X164260680Y-111833680D03*
X166800680Y-114373680D03*
X164260680Y-114373680D03*
X166800680Y-116913680D03*
X164260680Y-116913680D03*
X166800680Y-119453680D03*
X164260680Y-119453680D03*
%TD*%
D18*
%TO.C,R3*%
X140525680Y-98163680D03*
X138700680Y-98163680D03*
%TD*%
D24*
%TO.C,FB1*%
X141100680Y-120013680D03*
X142825680Y-120013680D03*
%TD*%
D27*
%TO.C,U4*%
X137375680Y-120963680D03*
X137875680Y-120963680D03*
X138375680Y-120963680D03*
X138875680Y-120963680D03*
X139375680Y-120963680D03*
X139375680Y-116663680D03*
X138875680Y-116663680D03*
X138375680Y-116663680D03*
X137875680Y-116663680D03*
X137375680Y-116663680D03*
%TD*%
D24*
%TO.C,FB2*%
X137375680Y-123163680D03*
X139100680Y-123163680D03*
%TD*%
D20*
%TO.C,D4*%
X138700680Y-96413680D03*
X140450680Y-96413680D03*
%TD*%
D15*
%TO.C,J6*%
X129035680Y-120163680D03*
D16*
X129035680Y-117623680D03*
X131575680Y-120163680D03*
X131575680Y-117623680D03*
X134115680Y-120163680D03*
X134115680Y-117623680D03*
%TD*%
D28*
%TO.C,D2*%
X128725680Y-112663680D03*
X133025680Y-112663680D03*
%TD*%
D19*
%TO.C,R12*%
X152685680Y-107263680D03*
X154510680Y-107263680D03*
%TD*%
D29*
%TO.C,R6*%
X144275680Y-105763680D03*
X144275680Y-103938680D03*
%TD*%
D30*
%TO.C,U2*%
X148775680Y-97063680D03*
X148775680Y-99363680D03*
D31*
X155075680Y-99363680D03*
D30*
X148775680Y-101663680D03*
%TD*%
D32*
%TO.C,J1*%
X134047480Y-101577680D03*
X134047480Y-102377680D03*
D33*
X134047480Y-103527680D03*
X134047480Y-104527680D03*
X134047480Y-105027680D03*
X134047480Y-106027680D03*
D32*
X134047480Y-107177680D03*
X134047480Y-107977680D03*
X134047480Y-107977680D03*
X134047480Y-107177680D03*
D33*
X134047480Y-106527680D03*
X134047480Y-105527680D03*
X134047480Y-104027680D03*
X134047480Y-103027680D03*
D32*
X134047480Y-102377680D03*
X134047480Y-101577680D03*
D34*
X133472480Y-100457680D03*
D35*
X129292480Y-100457680D03*
D34*
X133472480Y-109097680D03*
D35*
X129292480Y-109097680D03*
%TD*%
D23*
%TO.C,C7*%
X153335680Y-117213680D03*
X153335680Y-118938680D03*
%TD*%
D36*
%TO.C,C5*%
X142525680Y-103938680D03*
X142525680Y-105488680D03*
%TD*%
D18*
%TO.C,R10*%
X158085680Y-107213680D03*
X156260680Y-107213680D03*
%TD*%
M02*
