%TF.GenerationSoftware,KiCad,Pcbnew,9.0.6*%
%TF.CreationDate,2026-05-20T01:10:37+05:30*%
%TF.ProjectId,bio-microcontroller,62696f2d-6d69-4637-926f-636f6e74726f,rev?*%
%TF.SameCoordinates,Original*%
%TF.FileFunction,Copper,L2,Bot*%
%TF.FilePolarity,Positive*%
%FSLAX46Y46*%
G04 Gerber Fmt 4.6, Leading zero omitted, Abs format (unit mm)*
G04 Created by KiCad (PCBNEW 9.0.6) date 2026-05-20 01:10:37*
%MOMM*%
%LPD*%
G01*
G04 APERTURE LIST*
G04 Aperture macros list*
%AMFreePoly0*
4,1,23,0.500000,-0.750000,0.000000,-0.750000,0.000000,-0.745722,-0.065263,-0.745722,-0.191342,-0.711940,-0.304381,-0.646677,-0.396677,-0.554381,-0.461940,-0.441342,-0.495722,-0.315263,-0.495722,-0.250000,-0.500000,-0.250000,-0.500000,0.250000,-0.495722,0.250000,-0.495722,0.315263,-0.461940,0.441342,-0.396677,0.554381,-0.304381,0.646677,-0.191342,0.711940,-0.065263,0.745722,0.000000,0.745722,
0.000000,0.750000,0.500000,0.750000,0.500000,-0.750000,0.500000,-0.750000,$1*%
%AMFreePoly1*
4,1,23,0.000000,0.745722,0.065263,0.745722,0.191342,0.711940,0.304381,0.646677,0.396677,0.554381,0.461940,0.441342,0.495722,0.315263,0.495722,0.250000,0.500000,0.250000,0.500000,-0.250000,0.495722,-0.250000,0.495722,-0.315263,0.461940,-0.441342,0.396677,-0.554381,0.304381,-0.646677,0.191342,-0.711940,0.065263,-0.745722,0.000000,-0.745722,0.000000,-0.750000,-0.500000,-0.750000,
-0.500000,0.750000,0.000000,0.750000,0.000000,0.745722,0.000000,0.745722,$1*%
%AMFreePoly2*
4,1,23,0.000000,0.745722,0.065263,0.745722,0.191342,0.711940,0.304381,0.646677,0.396677,0.554381,0.461940,0.441342,0.495722,0.315263,0.495722,0.250000,0.500000,0.250000,0.500000,-0.250000,0.495722,-0.250000,0.495722,-0.315263,0.461940,-0.441342,0.396677,-0.554381,0.304381,-0.646677,0.191342,-0.711940,0.065263,-0.745722,0.000000,-0.745722,0.000000,-0.750000,-0.550000,-0.750000,
-0.550000,0.750000,0.000000,0.750000,0.000000,0.745722,0.000000,0.745722,$1*%
%AMFreePoly3*
4,1,23,0.550000,-0.750000,0.000000,-0.750000,0.000000,-0.745722,-0.065263,-0.745722,-0.191342,-0.711940,-0.304381,-0.646677,-0.396677,-0.554381,-0.461940,-0.441342,-0.495722,-0.315263,-0.495722,-0.250000,-0.500000,-0.250000,-0.500000,0.250000,-0.495722,0.250000,-0.495722,0.315263,-0.461940,0.441342,-0.396677,0.554381,-0.304381,0.646677,-0.191342,0.711940,-0.065263,0.745722,0.000000,0.745722,
0.000000,0.750000,0.550000,0.750000,0.550000,-0.750000,0.550000,-0.750000,$1*%
G04 Aperture macros list end*
%TA.AperFunction,SMDPad,CuDef*%
%ADD10FreePoly0,0.000000*%
%TD*%
%TA.AperFunction,SMDPad,CuDef*%
%ADD11FreePoly1,0.000000*%
%TD*%
%TA.AperFunction,SMDPad,CuDef*%
%ADD12FreePoly2,90.000000*%
%TD*%
%TA.AperFunction,SMDPad,CuDef*%
%ADD13R,1.500000X1.000000*%
%TD*%
%TA.AperFunction,SMDPad,CuDef*%
%ADD14FreePoly3,90.000000*%
%TD*%
%TA.AperFunction,SMDPad,CuDef*%
%ADD15FreePoly0,180.000000*%
%TD*%
%TA.AperFunction,SMDPad,CuDef*%
%ADD16FreePoly1,180.000000*%
%TD*%
%TA.AperFunction,HeatsinkPad*%
%ADD17C,0.600000*%
%TD*%
%TA.AperFunction,ComponentPad*%
%ADD18R,1.700000X1.700000*%
%TD*%
%TA.AperFunction,ComponentPad*%
%ADD19C,1.700000*%
%TD*%
%TA.AperFunction,HeatsinkPad*%
%ADD20O,2.100000X1.000000*%
%TD*%
%TA.AperFunction,HeatsinkPad*%
%ADD21O,1.800000X1.000000*%
%TD*%
%TA.AperFunction,ViaPad*%
%ADD22C,0.680000*%
%TD*%
%TA.AperFunction,ViaPad*%
%ADD23C,0.800000*%
%TD*%
%TA.AperFunction,ViaPad*%
%ADD24C,0.750000*%
%TD*%
%TA.AperFunction,ViaPad*%
%ADD25C,0.670000*%
%TD*%
%TA.AperFunction,ViaPad*%
%ADD26C,0.700000*%
%TD*%
%TA.AperFunction,ViaPad*%
%ADD27C,0.720000*%
%TD*%
%TA.AperFunction,ViaPad*%
%ADD28C,0.730000*%
%TD*%
%TA.AperFunction,Conductor*%
%ADD29C,0.200000*%
%TD*%
%TA.AperFunction,Conductor*%
%ADD30C,0.300000*%
%TD*%
G04 APERTURE END LIST*
D10*
%TO.P,JP3,1,A*%
%TO.N,3.3V*%
X146731200Y-108077000D03*
D11*
%TO.P,JP3,2,B*%
%TO.N,Net-(JP3-B)*%
X148031200Y-108077000D03*
%TD*%
D12*
%TO.P,JP4,3,B*%
%TO.N,vdd*%
X145135600Y-113605000D03*
D13*
%TO.P,JP4,2,C*%
%TO.N,Net-(J6-Pin_1)*%
X145135600Y-114905000D03*
D14*
%TO.P,JP4,1,A*%
%TO.N,Net-(JP4-A)*%
X145135600Y-116205000D03*
%TD*%
D15*
%TO.P,JP2,1,A*%
%TO.N,3.3V*%
X155295600Y-107543600D03*
D16*
%TO.P,JP2,2,B*%
%TO.N,Net-(JP2-B)*%
X153995600Y-107543600D03*
%TD*%
D10*
%TO.P,JP1,1,A*%
%TO.N,3.3V*%
X150084000Y-107848400D03*
D11*
%TO.P,JP1,2,B*%
%TO.N,Net-(JP1-B)*%
X151384000Y-107848400D03*
%TD*%
D17*
%TO.P,U1,41,GND*%
%TO.N,GND*%
X146411480Y-84164080D03*
X146411480Y-82764080D03*
X145711480Y-84864080D03*
X145711480Y-83464080D03*
X145711480Y-82064080D03*
X145011480Y-84164080D03*
X145011480Y-82764080D03*
X144311480Y-84864080D03*
X144311480Y-83464080D03*
X144311480Y-82064080D03*
X143611480Y-84164080D03*
X143611480Y-82764080D03*
%TD*%
D18*
%TO.P,J5,1,Pin_1*%
%TO.N,GPIO1*%
X163435680Y-76878680D03*
D19*
%TO.P,J5,2,Pin_2*%
%TO.N,GPIO2*%
X165975680Y-76878680D03*
%TO.P,J5,3,Pin_3*%
%TO.N,GPIO43*%
X163435680Y-79418680D03*
%TO.P,J5,4,Pin_4*%
%TO.N,GPIO44*%
X165975680Y-79418680D03*
%TO.P,J5,5,Pin_5*%
%TO.N,GPIO42*%
X163435680Y-81958680D03*
%TO.P,J5,6,Pin_6*%
%TO.N,GPIO41*%
X165975680Y-81958680D03*
%TO.P,J5,7,Pin_7*%
%TO.N,GPIO40*%
X163435680Y-84498680D03*
%TO.P,J5,8,Pin_8*%
%TO.N,GPIO39*%
X165975680Y-84498680D03*
%TO.P,J5,9,Pin_9*%
%TO.N,GPIO38*%
X163435680Y-87038680D03*
%TO.P,J5,10,Pin_10*%
%TO.N,GPIO37*%
X165975680Y-87038680D03*
%TO.P,J5,11,Pin_11*%
%TO.N,unconnected-(J5-Pin_11-Pad11)*%
X163435680Y-89578680D03*
%TO.P,J5,12,Pin_12*%
%TO.N,unconnected-(J5-Pin_12-Pad12)*%
X165975680Y-89578680D03*
%TO.P,J5,13,Pin_13*%
%TO.N,unconnected-(J5-Pin_13-Pad13)*%
X163435680Y-92118680D03*
%TO.P,J5,14,Pin_14*%
%TO.N,GPIO47*%
X165975680Y-92118680D03*
%TO.P,J5,15,Pin_15*%
%TO.N,GPIO21*%
X163435680Y-94658680D03*
%TO.P,J5,16,Pin_16*%
%TO.N,GND*%
X165975680Y-94658680D03*
%TO.P,J5,17,Pin_17*%
%TO.N,3.3V*%
X163435680Y-97198680D03*
%TO.P,J5,18,Pin_18*%
%TO.N,EN*%
X165975680Y-97198680D03*
%TD*%
D18*
%TO.P,J2,1,Pin_1*%
%TO.N,3.3V*%
X130335680Y-76888680D03*
D19*
%TO.P,J2,2,Pin_2*%
%TO.N,GND*%
X132875680Y-76888680D03*
%TO.P,J2,3,Pin_3*%
%TO.N,GPIO4*%
X130335680Y-79428680D03*
%TO.P,J2,4,Pin_4*%
%TO.N,GPIO5*%
X132875680Y-79428680D03*
%TO.P,J2,5,Pin_5*%
%TO.N,GPIO6*%
X130335680Y-81968680D03*
%TO.P,J2,6,Pin_6*%
%TO.N,GPIO7*%
X132875680Y-81968680D03*
%TO.P,J2,7,Pin_7*%
%TO.N,GPIO15*%
X130335680Y-84508680D03*
%TO.P,J2,8,Pin_8*%
%TO.N,GPIO16*%
X132875680Y-84508680D03*
%TO.P,J2,9,Pin_9*%
%TO.N,GPIO17*%
X130335680Y-87048680D03*
%TO.P,J2,10,Pin_10*%
%TO.N,GPIO18*%
X132875680Y-87048680D03*
%TO.P,J2,11,Pin_11*%
%TO.N,GPIO8*%
X130335680Y-89588680D03*
%TO.P,J2,12,Pin_12*%
%TO.N,GPIO3*%
X132875680Y-89588680D03*
%TO.P,J2,13,Pin_13*%
%TO.N,GPIO9*%
X130335680Y-92128680D03*
%TO.P,J2,14,Pin_14*%
%TO.N,GPIO10*%
X132875680Y-92128680D03*
%TO.P,J2,15,Pin_15*%
%TO.N,GPIO11*%
X130335680Y-94668680D03*
%TO.P,J2,16,Pin_16*%
%TO.N,GPIO12*%
X132875680Y-94668680D03*
%TO.P,J2,17,Pin_17*%
%TO.N,GPIO13*%
X130335680Y-97208680D03*
%TO.P,J2,18,Pin_18*%
%TO.N,GPIO14*%
X132875680Y-97208680D03*
%TD*%
D18*
%TO.P,ENB2,1,Pin_1*%
%TO.N,GPIO8*%
X154475680Y-123088680D03*
D19*
%TO.P,ENB2,2,Pin_2*%
%TO.N,Net-(ENB2-Pin_2)*%
X151935680Y-123088680D03*
%TD*%
D18*
%TO.P,ENB1,1,Pin_1*%
%TO.N,GPIO8*%
X158560680Y-123113680D03*
D19*
%TO.P,ENB1,2,Pin_2*%
%TO.N,Net-(ENB1-Pin_2)*%
X161100680Y-123113680D03*
%TD*%
D18*
%TO.P,J3,1,Pin_1*%
%TO.N,Net-(J3-Pin_1)*%
X166800680Y-101673680D03*
D19*
%TO.P,J3,2,Pin_2*%
%TO.N,Net-(J3-Pin_2)*%
X164260680Y-101673680D03*
%TO.P,J3,3,Pin_3*%
%TO.N,Net-(J3-Pin_3)*%
X166800680Y-104213680D03*
%TO.P,J3,4,Pin_4*%
%TO.N,Net-(J3-Pin_4)*%
X164260680Y-104213680D03*
%TO.P,J3,5,Pin_5*%
%TO.N,Net-(J3-Pin_5)*%
X166800680Y-106753680D03*
%TO.P,J3,6,Pin_6*%
%TO.N,Net-(J3-Pin_6)*%
X164260680Y-106753680D03*
%TO.P,J3,7,Pin_7*%
%TO.N,Net-(J3-Pin_7)*%
X166800680Y-109293680D03*
%TO.P,J3,8,Pin_8*%
%TO.N,Net-(J3-Pin_8)*%
X164260680Y-109293680D03*
%TO.P,J3,9,Pin_9*%
%TO.N,Net-(J3-Pin_9)*%
X166800680Y-111833680D03*
%TO.P,J3,10,Pin_10*%
%TO.N,Net-(J3-Pin_10)*%
X164260680Y-111833680D03*
%TO.P,J3,11,Pin_11*%
%TO.N,Net-(J3-Pin_11)*%
X166800680Y-114373680D03*
%TO.P,J3,12,Pin_12*%
%TO.N,Net-(J3-Pin_12)*%
X164260680Y-114373680D03*
%TO.P,J3,13,Pin_13*%
%TO.N,Net-(J3-Pin_13)*%
X166800680Y-116913680D03*
%TO.P,J3,14,Pin_14*%
%TO.N,Net-(J3-Pin_14)*%
X164260680Y-116913680D03*
%TO.P,J3,15,Pin_15*%
%TO.N,Net-(J3-Pin_15)*%
X166800680Y-119453680D03*
%TO.P,J3,16,Pin_16*%
%TO.N,Net-(J3-Pin_16)*%
X164260680Y-119453680D03*
%TD*%
D18*
%TO.P,J6,1,Pin_1*%
%TO.N,Net-(J6-Pin_1)*%
X129035680Y-120163680D03*
D19*
%TO.P,J6,2,Pin_2*%
%TO.N,Net-(J6-Pin_2)*%
X129035680Y-117623680D03*
%TO.P,J6,3,Pin_3*%
%TO.N,Net-(J6-Pin_3)*%
X131575680Y-120163680D03*
%TO.P,J6,4,Pin_4*%
%TO.N,Net-(J6-Pin_4)*%
X131575680Y-117623680D03*
%TO.P,J6,5,Pin_5*%
%TO.N,Net-(J6-Pin_5)*%
X134115680Y-120163680D03*
%TO.P,J6,6,Pin_6*%
%TO.N,Net-(J6-Pin_6)*%
X134115680Y-117623680D03*
%TD*%
D20*
%TO.P,J1,S1,SHIELD*%
%TO.N,GND*%
X133472480Y-100457680D03*
D21*
X129292480Y-100457680D03*
D20*
X133472480Y-109097680D03*
D21*
X129292480Y-109097680D03*
%TD*%
D22*
%TO.N,3.3V*%
X144480280Y-101103980D03*
X142206180Y-107313180D03*
X142345680Y-91903680D03*
X150565680Y-109153680D03*
X156175680Y-106163680D03*
%TO.N,GND*%
X134179680Y-98424380D03*
X137156580Y-98273580D03*
X154595680Y-93363680D03*
D23*
%TO.N,Vin*%
X132125680Y-107838680D03*
X137025680Y-101663680D03*
X132275680Y-102863680D03*
D22*
%TO.N,EN*%
X141670280Y-89776880D03*
X143517680Y-102975680D03*
%TO.N,Net-(JP4-A)*%
X140395680Y-122083680D03*
%TO.N,GPIO8*%
X128897580Y-110317580D03*
%TO.N,Net-(ENB2-Pin_2)*%
X137057780Y-112784280D03*
D24*
%TO.N,vdd*%
X143205680Y-114433680D03*
D22*
X141285680Y-114313680D03*
D23*
%TO.N,Net-(J1-CC2)*%
X132775680Y-106613680D03*
X135775680Y-110913680D03*
%TO.N,Net-(J1-CC1)*%
X136376680Y-106112980D03*
X132175680Y-103863680D03*
D22*
%TO.N,GPIO13*%
X145925680Y-95553680D03*
X131815680Y-95874180D03*
%TO.N,GPIO12*%
X143415680Y-94893680D03*
%TO.N,GPIO10*%
X143543180Y-91732780D03*
%TO.N,GPIO9*%
X141865680Y-113323680D03*
X136705680Y-114813680D03*
X157060880Y-108013880D03*
X138519480Y-93418880D03*
X141491980Y-105873680D03*
%TO.N,GPIO14*%
X145932780Y-96563280D03*
%TO.N,GPIO4*%
X134260380Y-79022280D03*
%TO.N,GPIO3*%
X139607680Y-89980080D03*
%TO.N,GPIO11*%
X143435680Y-89643680D03*
%TO.N,Net-(J3-Pin_4)*%
X154835680Y-111733680D03*
%TO.N,Net-(J3-Pin_6)*%
X155225680Y-112556680D03*
%TO.N,Net-(J3-Pin_2)*%
X156982930Y-109000930D03*
%TO.N,Net-(J3-Pin_5)*%
X152105680Y-115043680D03*
%TO.N,Net-(J3-Pin_1)*%
X156168980Y-112432580D03*
%TO.N,Net-(J3-Pin_12)*%
X157615680Y-114843680D03*
%TO.N,Net-(J3-Pin_14)*%
X161735680Y-117163680D03*
D25*
%TO.N,Net-(J3-Pin_8)*%
X155335680Y-113443680D03*
D22*
%TO.N,Net-(J3-Pin_7)*%
X154773779Y-116703181D03*
%TO.N,Net-(J3-Pin_11)*%
X161055680Y-116443680D03*
%TO.N,Net-(J3-Pin_9)*%
X160843130Y-114441130D03*
D26*
%TO.N,Net-(J3-Pin_3)*%
X151889380Y-113827180D03*
X169505680Y-119992780D03*
%TO.N,Net-(J3-Pin_10)*%
X156225680Y-114273680D03*
X156241630Y-116177730D03*
X160346380Y-115788680D03*
%TO.N,GPIO21*%
X151107680Y-95012380D03*
%TO.N,GPIO47*%
X151638580Y-89561480D03*
%TO.N,Net-(J6-Pin_3)*%
X140235680Y-121113680D03*
%TO.N,Net-(J6-Pin_2)*%
X135085580Y-118782280D03*
X139175680Y-119683680D03*
%TO.N,Net-(J6-Pin_6)*%
X139525680Y-118522580D03*
%TO.N,Net-(JP1-B)*%
X161715680Y-105373680D03*
X161205680Y-102873680D03*
X157195680Y-110383680D03*
%TO.N,Net-(JP2-B)*%
X158345680Y-106103680D03*
X157744534Y-115729769D03*
X159460380Y-107010880D03*
X151634380Y-110953680D03*
D27*
%TO.N,Net-(JP3-B)*%
X160025680Y-116803680D03*
D23*
X154905680Y-109433680D03*
D27*
X151555680Y-111883680D03*
%TO.N,BOOT*%
X150224980Y-106470680D03*
D28*
X153691580Y-103458380D03*
%TD*%
D29*
%TO.N,Net-(J3-Pin_1)*%
X156898080Y-112432580D02*
X163728680Y-105601980D01*
%TO.N,3.3V*%
X142902180Y-92340180D02*
X142935780Y-92373780D01*
X142345680Y-91903680D02*
X142545680Y-91903680D01*
X142781680Y-107888680D02*
X146650680Y-107888680D01*
X150100680Y-107963680D02*
X150100680Y-108352880D01*
X150819680Y-109071880D02*
X150834280Y-109071880D01*
X146408580Y-107003080D02*
X146650680Y-107003080D01*
X154875680Y-108403980D02*
X154207780Y-109071880D01*
X146650680Y-107003080D02*
X146820580Y-106833180D01*
X142786880Y-103381380D02*
X146408580Y-107003080D01*
X142902180Y-92260180D02*
X142902180Y-92340180D01*
X142545680Y-91903680D02*
X142902180Y-92260180D01*
X142206180Y-107313180D02*
X142781680Y-107888680D01*
X146820580Y-106833180D02*
X148970180Y-106833180D01*
X146684880Y-95390780D02*
X146684880Y-98899380D01*
X146650680Y-107003080D02*
X146650680Y-107888680D01*
X142786880Y-102797380D02*
X142786880Y-103381380D01*
X150100680Y-108352880D02*
X150819680Y-109071880D01*
X142935780Y-92373780D02*
X143667880Y-92373780D01*
X156012880Y-106163680D02*
X154875680Y-107300880D01*
X156175680Y-106163680D02*
X156012880Y-106163680D01*
X144480280Y-101103980D02*
X142786880Y-102797380D01*
X150647480Y-109071880D02*
X150565680Y-109153680D01*
X148970180Y-106833180D02*
X150100680Y-107963680D01*
X154875680Y-107963680D02*
X154875680Y-108403980D01*
X154207780Y-109071880D02*
X150834280Y-109071880D01*
X154875680Y-107300880D02*
X154875680Y-107963680D01*
X143667880Y-92373780D02*
X146684880Y-95390780D01*
X146684880Y-98899380D02*
X144480280Y-101103980D01*
X150834280Y-109071880D02*
X150647480Y-109071880D01*
%TO.N,GND*%
X129292480Y-100457680D02*
X133472480Y-100457680D01*
X144311480Y-84164080D02*
X145011480Y-84164080D01*
X146411480Y-84164080D02*
X145011480Y-84164080D01*
X154513780Y-93281780D02*
X154129180Y-93281780D01*
X137005780Y-98424380D02*
X137156580Y-98273580D01*
X146411480Y-82764080D02*
X145011480Y-82764080D01*
X154595680Y-93363680D02*
X154677580Y-93281780D01*
X144311480Y-84864080D02*
X145711480Y-84864080D01*
X144311480Y-83464080D02*
X145711480Y-83464080D01*
X164598780Y-93281780D02*
X165975680Y-94658680D01*
X154129180Y-93281780D02*
X145711480Y-84864080D01*
X134179680Y-98424380D02*
X137005780Y-98424380D01*
X132875680Y-76888680D02*
X139136080Y-76888680D01*
X143611480Y-84164080D02*
X144311480Y-84164080D01*
X139136080Y-76888680D02*
X144311480Y-82064080D01*
X129292480Y-109097680D02*
X133472480Y-109097680D01*
X144311480Y-84164080D02*
X144311480Y-83464080D01*
X145711480Y-82064080D02*
X144311480Y-82064080D01*
X154595680Y-93363680D02*
X154513780Y-93281780D01*
X154677580Y-93281780D02*
X164598780Y-93281780D01*
%TO.N,Vin*%
X132154680Y-102863680D02*
X132275680Y-102863680D01*
D30*
X132275680Y-102863680D02*
X135825680Y-102863680D01*
D29*
X132225680Y-102913680D02*
X132275680Y-102863680D01*
D30*
X132154680Y-102863680D02*
X132275680Y-102863680D01*
D29*
X131400680Y-102863680D02*
X132154680Y-102863680D01*
X132125680Y-107838680D02*
X130050680Y-105763680D01*
D30*
X135825680Y-102863680D02*
X137025680Y-101663680D01*
D29*
X130050680Y-104213680D02*
X131400680Y-102863680D01*
X130050680Y-105763680D02*
X130050680Y-104213680D01*
%TO.N,EN*%
X149302280Y-96008080D02*
X149061680Y-96248680D01*
X141670280Y-89776880D02*
X142436180Y-89776880D01*
X143517680Y-102975680D02*
X149061680Y-97431680D01*
X143943280Y-91130280D02*
X149061680Y-96248680D01*
X149061680Y-97431680D02*
X149061680Y-96248680D01*
X143789580Y-91130280D02*
X143943280Y-91130280D01*
X164785080Y-96008080D02*
X149302280Y-96008080D01*
X165975680Y-97198680D02*
X164785080Y-96008080D01*
X142436180Y-89776880D02*
X143789580Y-91130280D01*
%TO.N,Net-(JP4-A)*%
X140395680Y-122083680D02*
X140395680Y-122014880D01*
X140395680Y-122014880D02*
X145175680Y-117234880D01*
X145175680Y-117234880D02*
X145175680Y-116038680D01*
%TO.N,GPIO8*%
X128897580Y-110317580D02*
X130373280Y-111793280D01*
X145490980Y-111793280D02*
X154475680Y-120777980D01*
X130373280Y-111793280D02*
X145490980Y-111793280D01*
X155652380Y-123113680D02*
X155627380Y-123088680D01*
X154475680Y-120777980D02*
X154475680Y-121936980D01*
X158560680Y-123113680D02*
X155652380Y-123113680D01*
X154475680Y-123088680D02*
X154475680Y-121936980D01*
X154475680Y-123088680D02*
X155627380Y-123088680D01*
%TO.N,Net-(ENB2-Pin_2)*%
X151935680Y-118808080D02*
X151935680Y-123088680D01*
X137236680Y-112605380D02*
X145732980Y-112605380D01*
X137057780Y-112784280D02*
X137236680Y-112605380D01*
X145732980Y-112605380D02*
X151935680Y-118808080D01*
%TO.N,vdd*%
X143968180Y-113438680D02*
X145175680Y-113438680D01*
X143205680Y-114433680D02*
X143205680Y-114201180D01*
X143055880Y-114350980D02*
X141322980Y-114350980D01*
X143205680Y-114433680D02*
X143138580Y-114433680D01*
X141322980Y-114350980D02*
X141285680Y-114313680D01*
X143205680Y-114201180D02*
X143968180Y-113438680D01*
X143138580Y-114433680D02*
X143055880Y-114350980D01*
%TO.N,Net-(J1-CC2)*%
X133275680Y-106913680D02*
X135775680Y-109413680D01*
X135775680Y-109413680D02*
X135775680Y-110913680D01*
X132775680Y-106913680D02*
X133275680Y-106913680D01*
X132775680Y-106613680D02*
X132775680Y-106913680D01*
%TO.N,Net-(J1-CC1)*%
X133375680Y-104763680D02*
X132475680Y-103863680D01*
X132475680Y-103863680D02*
X132175680Y-103863680D01*
X132275680Y-103663680D02*
X132175680Y-103763680D01*
X132175680Y-103763680D02*
X132175680Y-103863680D01*
X136376680Y-105814380D02*
X135325680Y-104763680D01*
X135325680Y-104763680D02*
X133375680Y-104763680D01*
X136376680Y-106112980D02*
X136376680Y-105814380D01*
X132175680Y-103763680D02*
X132125680Y-103813680D01*
%TO.N,GPIO13*%
X145925680Y-95762580D02*
X145814080Y-95874180D01*
X145814080Y-95874180D02*
X131815680Y-95874180D01*
X145925680Y-95553680D02*
X145925680Y-95762580D01*
%TO.N,GPIO12*%
X143415680Y-94879980D02*
X143204380Y-94668680D01*
X143204380Y-94668680D02*
X132875680Y-94668680D01*
X143415680Y-94893680D02*
X143415680Y-94879980D01*
%TO.N,GPIO10*%
X132875680Y-92128680D02*
X133870680Y-91133680D01*
X133870680Y-91133680D02*
X142944080Y-91133680D01*
X142944080Y-91133680D02*
X143543180Y-91732780D01*
%TO.N,GPIO9*%
X135664980Y-99279880D02*
X133251480Y-99279880D01*
X136705680Y-114751680D02*
X136705680Y-114813680D01*
X156005680Y-108353680D02*
X156005680Y-109380470D01*
X141772580Y-113230580D02*
X138226780Y-113230580D01*
X131036180Y-96123280D02*
X131036180Y-95625080D01*
X131625880Y-93418880D02*
X130335680Y-92128680D01*
X141491980Y-107538780D02*
X141491980Y-105873680D01*
X131625880Y-95035380D02*
X131625880Y-93418880D01*
X138226780Y-113230580D02*
X136705680Y-114751680D01*
X131708580Y-97736980D02*
X131708580Y-96795580D01*
X155088270Y-110297880D02*
X144251080Y-110297880D01*
X141865680Y-113323680D02*
X141772580Y-113230580D01*
X157032470Y-108353680D02*
X156005680Y-108353680D01*
X157060880Y-108013880D02*
X157070480Y-108023480D01*
X131708480Y-96795580D02*
X131036180Y-96123280D01*
X138519480Y-93418880D02*
X131625880Y-93418880D01*
X156005680Y-109380470D02*
X155088270Y-110297880D01*
X133251480Y-99279880D02*
X131708580Y-97736980D01*
X141491980Y-105873680D02*
X141491980Y-105106880D01*
X131036180Y-95625080D02*
X131625880Y-95035380D01*
X144251080Y-110297880D02*
X141491980Y-107538780D01*
X157070480Y-108023480D02*
X157070480Y-108315670D01*
X141491980Y-105106880D02*
X135664980Y-99279880D01*
X131708580Y-96795580D02*
X131708480Y-96795580D01*
X157070480Y-108315670D02*
X157032470Y-108353680D01*
%TO.N,GPIO14*%
X145287380Y-97208680D02*
X145932780Y-96563280D01*
X132875680Y-97208680D02*
X145287380Y-97208680D01*
%TO.N,GPIO4*%
X131503380Y-78260980D02*
X133499080Y-78260980D01*
X130335680Y-79428680D02*
X131503380Y-78260980D01*
X133499080Y-78260980D02*
X134260380Y-79022280D01*
%TO.N,GPIO3*%
X133267080Y-89980080D02*
X132875680Y-89588680D01*
X139607680Y-89980080D02*
X133267080Y-89980080D01*
%TO.N,GPIO11*%
X143176180Y-89643680D02*
X141934480Y-88401980D01*
X129123280Y-89076680D02*
X129123280Y-93456280D01*
X143435680Y-89643680D02*
X143176180Y-89643680D01*
X141934480Y-88401980D02*
X129797980Y-88401980D01*
X129123280Y-93456280D02*
X130335680Y-94668680D01*
X129797980Y-88401980D02*
X129123280Y-89076680D01*
%TO.N,Net-(J3-Pin_4)*%
X161485880Y-106988480D02*
X164260680Y-104213680D01*
X154835680Y-111733680D02*
X154839880Y-111729480D01*
X161485880Y-107033480D02*
X161485880Y-106988480D01*
X154839880Y-111729480D02*
X156789880Y-111729480D01*
X156789880Y-111729480D02*
X161485880Y-107033480D01*
%TO.N,Net-(J3-Pin_6)*%
X156779580Y-113167780D02*
X163193680Y-106753680D01*
X155968980Y-113167780D02*
X156779580Y-113167780D01*
X163193680Y-106753680D02*
X164260680Y-106753680D01*
X155357880Y-112556680D02*
X155968980Y-113167780D01*
X155225680Y-112556680D02*
X155357880Y-112556680D01*
%TO.N,Net-(J3-Pin_2)*%
X159260580Y-106359880D02*
X163946780Y-101673680D01*
X158809380Y-106741226D02*
X159190726Y-106359880D01*
X158809380Y-106811080D02*
X158809380Y-106741226D01*
X156982930Y-109000930D02*
X158151780Y-107832080D01*
X158151780Y-107468680D02*
X158809380Y-106811080D01*
X159190726Y-106359880D02*
X159260580Y-106359880D01*
X163946780Y-101673680D02*
X164260680Y-101673680D01*
X158151780Y-107832080D02*
X158151780Y-107468680D01*
%TO.N,Net-(J3-Pin_5)*%
X166323280Y-118266880D02*
X167132680Y-118266880D01*
X168445480Y-108398480D02*
X166800680Y-106753680D01*
X152209180Y-115043680D02*
X157794380Y-120628880D01*
X165530780Y-119059380D02*
X166323280Y-118266880D01*
X165530780Y-119869480D02*
X165530780Y-119059380D01*
X157794380Y-120628880D02*
X164771380Y-120628880D01*
X164771380Y-120628880D02*
X165530780Y-119869480D01*
X167132680Y-118266880D02*
X168445480Y-116954080D01*
X152105680Y-115043680D02*
X152209180Y-115043680D01*
X168445480Y-116954080D02*
X168445480Y-108398480D01*
%TO.N,Net-(J3-Pin_1)*%
X165648980Y-103689080D02*
X166512680Y-102825380D01*
X156168980Y-112432580D02*
X156898080Y-112432580D01*
X166800680Y-101673680D02*
X166800680Y-102825380D01*
X163728680Y-105601980D02*
X164560780Y-105601980D01*
X166512680Y-102825380D02*
X166800680Y-102825380D01*
X164560780Y-105601980D02*
X165648980Y-104513780D01*
X165648980Y-104513780D02*
X165648980Y-103689080D01*
%TO.N,Net-(J3-Pin_12)*%
X160076726Y-115137680D02*
X160616034Y-115137680D01*
X160070726Y-115143680D02*
X160076726Y-115137680D01*
X157653780Y-114843680D02*
X157888869Y-115078769D01*
X163490680Y-115143680D02*
X164260680Y-114373680D01*
X157615680Y-114843680D02*
X157825980Y-114843680D01*
X160622034Y-115143680D02*
X163490680Y-115143680D01*
X157615680Y-114843680D02*
X157653780Y-114843680D01*
X158014188Y-115078769D02*
X158079099Y-115143680D01*
X158079099Y-115143680D02*
X160070726Y-115143680D01*
X157888869Y-115078769D02*
X158014188Y-115078769D01*
X160616034Y-115137680D02*
X160622034Y-115143680D01*
X157884780Y-114784880D02*
X157739880Y-114929780D01*
X157825980Y-114843680D02*
X157884780Y-114784880D01*
%TO.N,Net-(J3-Pin_14)*%
X162500380Y-116913680D02*
X164260680Y-116913680D01*
X162250380Y-117163680D02*
X162500380Y-116913680D01*
X161735680Y-117163680D02*
X162250380Y-117163680D01*
%TO.N,Net-(J3-Pin_8)*%
X160819980Y-109695380D02*
X163858980Y-109695380D01*
X155335680Y-113443680D02*
X155461480Y-113569480D01*
X156945880Y-113569480D02*
X160819980Y-109695380D01*
X155461480Y-113569480D02*
X156945880Y-113569480D01*
X163858980Y-109695380D02*
X164260680Y-109293680D01*
%TO.N,Net-(J3-Pin_7)*%
X165648980Y-117213780D02*
X165648980Y-116415980D01*
X168000780Y-114828980D02*
X168000780Y-110493780D01*
X167186080Y-115643680D02*
X168000780Y-114828980D01*
X156263180Y-118066880D02*
X164795880Y-118066880D01*
X166421280Y-115643680D02*
X167186080Y-115643680D01*
X168000780Y-110493780D02*
X166800680Y-109293680D01*
X154899481Y-116703181D02*
X156263180Y-118066880D01*
X164795880Y-118066880D02*
X165648980Y-117213780D01*
X154773779Y-116703181D02*
X154899481Y-116703181D01*
X165648980Y-116415980D02*
X166421280Y-115643680D01*
%TO.N,Net-(J3-Pin_11)*%
X161055680Y-116443680D02*
X161055680Y-116013680D01*
X161425680Y-115643680D02*
X165530680Y-115643680D01*
X165530680Y-115643680D02*
X166800680Y-114373680D01*
X161055680Y-116013680D02*
X161425680Y-115643680D01*
%TO.N,Net-(J3-Pin_9)*%
X160932980Y-114351280D02*
X160955680Y-114351280D01*
X160843130Y-114441130D02*
X160932980Y-114351280D01*
X162201780Y-113105180D02*
X165529180Y-113105180D01*
X160865830Y-114441130D02*
X162201780Y-113105180D01*
X165529180Y-113105180D02*
X166800680Y-111833680D01*
X160843130Y-114441130D02*
X160865830Y-114441130D01*
%TO.N,Net-(J3-Pin_3)*%
X168417280Y-121081180D02*
X169505680Y-119992780D01*
X151268583Y-114447977D02*
X151268583Y-115668816D01*
X151268583Y-115668816D02*
X156680947Y-121081180D01*
X151889380Y-113827180D02*
X151268583Y-114447977D01*
X156680947Y-121081180D02*
X168417280Y-121081180D01*
%TO.N,Net-(J3-Pin_10)*%
X162254280Y-111833680D02*
X164260680Y-111833680D01*
X156225680Y-114273680D02*
X156328080Y-114171280D01*
X160201480Y-115643780D02*
X160346380Y-115788680D01*
X156328080Y-114171280D02*
X159916680Y-114171280D01*
X158729680Y-116732680D02*
X159818580Y-115643780D01*
X156241630Y-116177730D02*
X156796580Y-116732680D01*
X159916680Y-114171280D02*
X162254280Y-111833680D01*
X159818580Y-115643780D02*
X160201480Y-115643780D01*
X156796580Y-116732680D02*
X158729680Y-116732680D01*
%TO.N,GPIO21*%
X163435680Y-94658680D02*
X163081980Y-95012380D01*
X163081980Y-95012380D02*
X151107680Y-95012380D01*
%TO.N,GPIO47*%
X151638580Y-89561480D02*
X152925780Y-90848680D01*
X164705680Y-90848680D02*
X165975680Y-92118680D01*
X152925780Y-90848680D02*
X164705680Y-90848680D01*
%TO.N,Net-(J6-Pin_3)*%
X140235680Y-121113680D02*
X140039080Y-121113680D01*
X140039080Y-121113680D02*
X139837380Y-121315380D01*
X132727380Y-121315380D02*
X131575680Y-120163680D01*
X139837380Y-121315380D02*
X132727380Y-121315380D01*
%TO.N,Net-(J6-Pin_1)*%
X130187380Y-120163680D02*
X130187380Y-119875680D01*
X144123980Y-114738680D02*
X145175680Y-114738680D01*
X131051080Y-119011980D02*
X131875780Y-119011980D01*
X143378980Y-115483680D02*
X144123980Y-114738680D01*
X129035680Y-120163680D02*
X130187380Y-120163680D01*
X131875780Y-119011980D02*
X132845680Y-118042080D01*
X132845680Y-118042080D02*
X132845680Y-117248780D01*
X134610780Y-115483680D02*
X143378980Y-115483680D01*
X130187380Y-119875680D02*
X131051080Y-119011980D01*
X132845680Y-117248780D02*
X134610780Y-115483680D01*
%TO.N,Net-(J6-Pin_2)*%
X136209480Y-119542580D02*
X139034580Y-119542580D01*
X139034580Y-119542580D02*
X139175680Y-119683680D01*
X135449180Y-118782280D02*
X136209480Y-119542580D01*
X135085580Y-118782280D02*
X135449180Y-118782280D01*
%TO.N,Net-(J6-Pin_6)*%
X139525680Y-118065180D02*
X139084180Y-117623680D01*
X139084180Y-117623680D02*
X134115680Y-117623680D01*
X139525680Y-118522580D02*
X139525680Y-118065180D01*
%TO.N,Net-(JP1-B)*%
X160473380Y-107027580D02*
X157195680Y-110305280D01*
X161205680Y-102873680D02*
X160381880Y-103697480D01*
X161715680Y-105373680D02*
X160473380Y-106615980D01*
X160381880Y-103697480D02*
X155666880Y-103697480D01*
X157195680Y-110305280D02*
X157195680Y-110383680D01*
X160473380Y-106615980D02*
X160473380Y-107027580D01*
X155666880Y-103697480D02*
X151400680Y-107963680D01*
%TO.N,Net-(JP2-B)*%
X157326080Y-115677380D02*
X156859380Y-115677380D01*
X157234280Y-109670280D02*
X156979880Y-109670280D01*
X154142280Y-113278280D02*
X154142280Y-110899580D01*
X156207680Y-115343680D02*
X154142280Y-113278280D01*
X159460380Y-107010880D02*
X159460380Y-107444180D01*
X157861580Y-105514080D02*
X155581480Y-105514080D01*
X155581480Y-105514080D02*
X153575680Y-107519880D01*
X156525680Y-115343680D02*
X156207680Y-115343680D01*
X156979880Y-109670280D02*
X155750580Y-110899580D01*
X157378469Y-115729769D02*
X157326080Y-115677380D01*
X158345680Y-105998180D02*
X157861580Y-105514080D01*
X158473380Y-106125880D02*
X158345680Y-105998180D01*
X158345680Y-106103680D02*
X158345680Y-105998180D01*
X151688480Y-110899580D02*
X151634380Y-110953680D01*
X159460380Y-107444180D02*
X157234280Y-109670280D01*
X153575680Y-107519880D02*
X153575680Y-107963680D01*
X156859380Y-115677380D02*
X156525680Y-115343680D01*
X157744534Y-115729769D02*
X157378469Y-115729769D01*
X155750580Y-110899580D02*
X154142280Y-110899580D01*
X154142280Y-110899580D02*
X151688480Y-110899580D01*
%TO.N,Net-(JP3-B)*%
X154905680Y-109433680D02*
X154810380Y-109433680D01*
X154821015Y-109423045D02*
X154810380Y-109433680D01*
X154810380Y-109433680D02*
X154362580Y-109881480D01*
X159526480Y-116803680D02*
X160025680Y-116803680D01*
X154362580Y-109881480D02*
X149943480Y-109881480D01*
X151555680Y-112047080D02*
X151710880Y-112202280D01*
X154815065Y-109338680D02*
X154815065Y-109387395D01*
X151710880Y-112588880D02*
X156256380Y-117134380D01*
X154905380Y-109338680D02*
X154945180Y-109298880D01*
X154821015Y-109393345D02*
X154821015Y-109423045D01*
X159195780Y-117134380D02*
X159526480Y-116803680D01*
X149943480Y-109881480D02*
X147950680Y-107888680D01*
X156256380Y-117134380D02*
X159195780Y-117134380D01*
X154815065Y-109387395D02*
X154821015Y-109393345D01*
X154815065Y-109338680D02*
X154905380Y-109338680D01*
X151710880Y-112202280D02*
X151710880Y-112588880D01*
X151555680Y-111883680D02*
X151555680Y-112047080D01*
%TO.N,BOOT*%
X153691580Y-103458380D02*
X150679280Y-106470680D01*
X150679280Y-106470680D02*
X150224980Y-106470680D01*
%TD*%
%TA.AperFunction,Conductor*%
%TO.N,GND*%
G36*
X167503087Y-74614181D02*
G01*
X167547205Y-74614180D01*
X167554154Y-74614374D01*
X167845991Y-74630762D01*
X167859788Y-74632316D01*
X168144516Y-74680692D01*
X168158070Y-74683786D01*
X168435589Y-74763735D01*
X168448711Y-74768326D01*
X168715529Y-74878844D01*
X168728048Y-74884872D01*
X168854439Y-74954725D01*
X168980825Y-75024576D01*
X168992598Y-75031974D01*
X169228129Y-75199089D01*
X169239001Y-75207759D01*
X169454339Y-75400194D01*
X169464172Y-75410026D01*
X169656619Y-75625371D01*
X169665289Y-75636243D01*
X169832410Y-75871776D01*
X169839808Y-75883550D01*
X169979506Y-76136309D01*
X169985540Y-76148838D01*
X170096060Y-76415652D01*
X170100653Y-76428777D01*
X170180605Y-76706293D01*
X170183699Y-76719849D01*
X170232077Y-77004566D01*
X170233634Y-77018384D01*
X170249985Y-77309497D01*
X170250180Y-77316451D01*
X170250180Y-119236032D01*
X170230495Y-119303071D01*
X170177691Y-119348826D01*
X170108533Y-119358770D01*
X170053565Y-119334552D01*
X170052907Y-119335538D01*
X169908540Y-119239075D01*
X169753762Y-119174964D01*
X169753754Y-119174962D01*
X169589451Y-119142280D01*
X169589447Y-119142280D01*
X169421913Y-119142280D01*
X169421908Y-119142280D01*
X169257605Y-119174962D01*
X169257597Y-119174964D01*
X169102819Y-119239075D01*
X168963517Y-119332153D01*
X168845053Y-119450617D01*
X168751975Y-119589919D01*
X168687864Y-119744697D01*
X168687862Y-119744705D01*
X168655180Y-119909008D01*
X168655180Y-119942683D01*
X168635495Y-120009722D01*
X168618861Y-120030364D01*
X168204864Y-120444361D01*
X168177936Y-120459064D01*
X168152118Y-120475657D01*
X168145917Y-120476548D01*
X168143541Y-120477846D01*
X168117183Y-120480680D01*
X167967195Y-120480680D01*
X167900156Y-120460995D01*
X167854401Y-120408191D01*
X167844457Y-120339033D01*
X167866877Y-120283795D01*
X167951064Y-120167919D01*
X167955731Y-120161496D01*
X168052237Y-119972092D01*
X168117926Y-119769923D01*
X168151180Y-119559967D01*
X168151180Y-119347393D01*
X168117926Y-119137437D01*
X168052237Y-118935268D01*
X167955731Y-118745864D01*
X167955729Y-118745861D01*
X167955728Y-118745859D01*
X167827921Y-118569946D01*
X167829695Y-118568656D01*
X167804852Y-118513218D01*
X167815287Y-118444132D01*
X167840031Y-118408763D01*
X168024614Y-118224180D01*
X168926000Y-117322796D01*
X169005057Y-117185864D01*
X169045981Y-117033137D01*
X169045981Y-116875022D01*
X169045981Y-116867427D01*
X169045980Y-116867409D01*
X169045980Y-108319425D01*
X169045980Y-108319423D01*
X169005057Y-108166696D01*
X168963737Y-108095127D01*
X168926004Y-108029770D01*
X168926001Y-108029766D01*
X168926000Y-108029764D01*
X168814196Y-107917960D01*
X168814195Y-107917959D01*
X168809865Y-107913629D01*
X168809854Y-107913619D01*
X168134437Y-107238202D01*
X168100952Y-107176879D01*
X168104187Y-107112203D01*
X168117926Y-107069923D01*
X168151180Y-106859967D01*
X168151180Y-106647393D01*
X168117926Y-106437437D01*
X168052237Y-106235268D01*
X167955731Y-106045864D01*
X167955729Y-106045861D01*
X167955728Y-106045859D01*
X167830789Y-105873893D01*
X167680466Y-105723570D01*
X167508500Y-105598631D01*
X167507795Y-105598271D01*
X167499734Y-105594165D01*
X167448939Y-105546192D01*
X167432143Y-105478372D01*
X167454679Y-105412236D01*
X167499734Y-105373195D01*
X167508496Y-105368731D01*
X167582492Y-105314970D01*
X167680466Y-105243789D01*
X167680468Y-105243786D01*
X167680472Y-105243784D01*
X167830784Y-105093472D01*
X167830786Y-105093468D01*
X167830789Y-105093466D01*
X167955728Y-104921500D01*
X167955727Y-104921500D01*
X167955731Y-104921496D01*
X168052237Y-104732092D01*
X168117926Y-104529923D01*
X168151180Y-104319967D01*
X168151180Y-104107393D01*
X168117926Y-103897437D01*
X168052237Y-103695268D01*
X167955731Y-103505864D01*
X167955729Y-103505861D01*
X167955728Y-103505859D01*
X167830789Y-103333893D01*
X167717249Y-103220353D01*
X167683764Y-103159030D01*
X167688748Y-103089338D01*
X167730620Y-103033405D01*
X167761595Y-103016490D01*
X167893011Y-102967476D01*
X168008226Y-102881226D01*
X168094476Y-102766011D01*
X168144771Y-102631163D01*
X168151180Y-102571553D01*
X168151179Y-100775808D01*
X168144771Y-100716197D01*
X168143490Y-100712763D01*
X168094477Y-100581351D01*
X168094473Y-100581344D01*
X168008227Y-100466135D01*
X168008224Y-100466132D01*
X167893015Y-100379886D01*
X167893008Y-100379882D01*
X167758162Y-100329588D01*
X167758163Y-100329588D01*
X167698563Y-100323181D01*
X167698561Y-100323180D01*
X167698553Y-100323180D01*
X167698544Y-100323180D01*
X165902809Y-100323180D01*
X165902803Y-100323181D01*
X165843196Y-100329588D01*
X165708351Y-100379882D01*
X165708344Y-100379886D01*
X165593135Y-100466132D01*
X165593132Y-100466135D01*
X165506886Y-100581344D01*
X165506883Y-100581349D01*
X165457869Y-100712763D01*
X165415997Y-100768696D01*
X165350533Y-100793113D01*
X165282260Y-100778261D01*
X165254006Y-100757110D01*
X165140466Y-100643570D01*
X164968500Y-100518631D01*
X164779094Y-100422124D01*
X164779093Y-100422123D01*
X164779092Y-100422123D01*
X164576923Y-100356434D01*
X164576921Y-100356433D01*
X164576920Y-100356433D01*
X164415637Y-100330888D01*
X164366967Y-100323180D01*
X164154393Y-100323180D01*
X164105722Y-100330888D01*
X163944440Y-100356433D01*
X163742265Y-100422124D01*
X163552859Y-100518631D01*
X163380893Y-100643570D01*
X163230570Y-100793893D01*
X163105631Y-100965859D01*
X163009124Y-101155265D01*
X162943433Y-101357440D01*
X162910180Y-101567393D01*
X162910180Y-101779971D01*
X162911381Y-101787554D01*
X162902427Y-101856847D01*
X162876589Y-101894633D01*
X162190490Y-102580732D01*
X162129167Y-102614217D01*
X162059475Y-102609233D01*
X162003542Y-102567361D01*
X161988248Y-102540503D01*
X161959385Y-102470821D01*
X161959384Y-102470819D01*
X161953288Y-102461696D01*
X161928217Y-102424174D01*
X161866306Y-102331517D01*
X161747842Y-102213053D01*
X161608540Y-102119975D01*
X161453762Y-102055864D01*
X161453754Y-102055862D01*
X161289451Y-102023180D01*
X161289447Y-102023180D01*
X161121913Y-102023180D01*
X161121908Y-102023180D01*
X160957605Y-102055862D01*
X160957597Y-102055864D01*
X160802819Y-102119975D01*
X160663517Y-102213053D01*
X160545053Y-102331517D01*
X160451975Y-102470819D01*
X160387864Y-102625597D01*
X160387862Y-102625605D01*
X160355180Y-102789908D01*
X160355180Y-102823583D01*
X160346535Y-102853023D01*
X160340012Y-102883010D01*
X160336257Y-102888025D01*
X160335495Y-102890622D01*
X160318861Y-102911264D01*
X160169464Y-103060661D01*
X160108141Y-103094146D01*
X160081783Y-103096980D01*
X155753549Y-103096980D01*
X155753533Y-103096979D01*
X155745937Y-103096979D01*
X155587823Y-103096979D01*
X155480467Y-103125745D01*
X155435090Y-103137904D01*
X155435089Y-103137905D01*
X155389521Y-103164215D01*
X155389520Y-103164216D01*
X155364904Y-103178428D01*
X155298165Y-103216959D01*
X155298162Y-103216961D01*
X155186358Y-103328766D01*
X154743225Y-103771898D01*
X154681902Y-103805383D01*
X154612210Y-103800399D01*
X154556277Y-103758527D01*
X154531860Y-103693063D01*
X154533927Y-103660026D01*
X154557079Y-103543628D01*
X154557080Y-103543625D01*
X154557080Y-103373135D01*
X154557079Y-103373131D01*
X154541480Y-103294710D01*
X154523820Y-103205923D01*
X154458576Y-103048412D01*
X154458574Y-103048409D01*
X154458572Y-103048405D01*
X154363858Y-102906656D01*
X154363855Y-102906652D01*
X154243307Y-102786104D01*
X154243303Y-102786101D01*
X154101554Y-102691387D01*
X154101544Y-102691382D01*
X153944037Y-102626140D01*
X153944029Y-102626138D01*
X153776828Y-102592880D01*
X153776824Y-102592880D01*
X153606336Y-102592880D01*
X153606331Y-102592880D01*
X153439130Y-102626138D01*
X153439122Y-102626140D01*
X153281615Y-102691382D01*
X153281605Y-102691387D01*
X153139856Y-102786101D01*
X153139852Y-102786104D01*
X153019304Y-102906652D01*
X153019301Y-102906656D01*
X152924587Y-103048405D01*
X152924582Y-103048415D01*
X152859340Y-103205922D01*
X152859338Y-103205930D01*
X152826080Y-103373131D01*
X152826080Y-103423282D01*
X152806395Y-103490321D01*
X152789761Y-103510963D01*
X150662903Y-105637820D01*
X150601580Y-105671305D01*
X150531888Y-105666321D01*
X150527798Y-105664712D01*
X150475979Y-105643248D01*
X150475972Y-105643246D01*
X150475971Y-105643246D01*
X150475971Y-105643245D01*
X150309736Y-105610180D01*
X150309732Y-105610180D01*
X150140228Y-105610180D01*
X150140223Y-105610180D01*
X149973988Y-105643246D01*
X149973976Y-105643249D01*
X149817384Y-105708111D01*
X149817382Y-105708112D01*
X149676443Y-105802285D01*
X149676439Y-105802288D01*
X149556588Y-105922139D01*
X149556585Y-105922143D01*
X149462412Y-106063082D01*
X149395886Y-106223691D01*
X149352045Y-106278094D01*
X149285750Y-106300159D01*
X149219326Y-106283626D01*
X149201966Y-106273603D01*
X149201967Y-106273603D01*
X149140873Y-106257233D01*
X149049237Y-106232679D01*
X148891123Y-106232679D01*
X148883527Y-106232679D01*
X148883511Y-106232680D01*
X146907249Y-106232680D01*
X146907233Y-106232679D01*
X146899637Y-106232679D01*
X146741523Y-106232679D01*
X146610265Y-106267849D01*
X146540416Y-106266187D01*
X146490491Y-106235756D01*
X144056052Y-103801317D01*
X144022567Y-103739994D01*
X144027551Y-103670302D01*
X144056050Y-103625956D01*
X144170539Y-103511468D01*
X144262522Y-103373806D01*
X144325880Y-103220845D01*
X144328849Y-103205923D01*
X144352038Y-103089338D01*
X144358180Y-103058462D01*
X144358180Y-103035776D01*
X144377865Y-102968737D01*
X144394494Y-102948100D01*
X149430393Y-97912201D01*
X149430396Y-97912200D01*
X149542200Y-97800396D01*
X149592319Y-97713584D01*
X149621257Y-97663465D01*
X149662181Y-97510737D01*
X149662181Y-97352623D01*
X149662181Y-97345028D01*
X149662180Y-97345010D01*
X149662180Y-96732580D01*
X149681865Y-96665541D01*
X149734669Y-96619786D01*
X149786180Y-96608580D01*
X162036745Y-96608580D01*
X162103784Y-96628265D01*
X162149539Y-96681069D01*
X162159483Y-96750227D01*
X162154678Y-96770888D01*
X162118434Y-96882437D01*
X162118433Y-96882440D01*
X162118433Y-96882442D01*
X162085180Y-97092393D01*
X162085180Y-97304966D01*
X162117770Y-97510734D01*
X162118434Y-97514923D01*
X162182983Y-97713584D01*
X162184124Y-97717094D01*
X162280631Y-97906500D01*
X162405570Y-98078466D01*
X162555893Y-98228789D01*
X162727859Y-98353728D01*
X162727861Y-98353729D01*
X162727864Y-98353731D01*
X162917268Y-98450237D01*
X163119437Y-98515926D01*
X163329393Y-98549180D01*
X163329394Y-98549180D01*
X163541966Y-98549180D01*
X163541967Y-98549180D01*
X163751923Y-98515926D01*
X163954092Y-98450237D01*
X164143496Y-98353731D01*
X164283010Y-98252369D01*
X164315466Y-98228789D01*
X164315468Y-98228786D01*
X164315472Y-98228784D01*
X164465784Y-98078472D01*
X164465786Y-98078468D01*
X164465789Y-98078466D01*
X164590728Y-97906500D01*
X164590727Y-97906500D01*
X164590731Y-97906496D01*
X164595194Y-97897734D01*
X164643168Y-97846939D01*
X164710988Y-97830143D01*
X164777124Y-97852679D01*
X164816166Y-97897736D01*
X164820631Y-97906500D01*
X164945570Y-98078466D01*
X165095893Y-98228789D01*
X165267859Y-98353728D01*
X165267861Y-98353729D01*
X165267864Y-98353731D01*
X165457268Y-98450237D01*
X165659437Y-98515926D01*
X165869393Y-98549180D01*
X165869394Y-98549180D01*
X166081966Y-98549180D01*
X166081967Y-98549180D01*
X166291923Y-98515926D01*
X166494092Y-98450237D01*
X166683496Y-98353731D01*
X166823010Y-98252369D01*
X166855466Y-98228789D01*
X166855468Y-98228786D01*
X166855472Y-98228784D01*
X167005784Y-98078472D01*
X167005786Y-98078468D01*
X167005789Y-98078466D01*
X167130728Y-97906500D01*
X167130727Y-97906500D01*
X167130731Y-97906496D01*
X167227237Y-97717092D01*
X167292926Y-97514923D01*
X167326180Y-97304967D01*
X167326180Y-97092393D01*
X167292926Y-96882437D01*
X167227237Y-96680268D01*
X167130731Y-96490864D01*
X167130729Y-96490861D01*
X167130728Y-96490859D01*
X167005789Y-96318893D01*
X166855466Y-96168570D01*
X166683497Y-96043629D01*
X166674184Y-96038884D01*
X166623387Y-95990910D01*
X166606592Y-95923089D01*
X166629129Y-95856954D01*
X166674187Y-95817912D01*
X166683235Y-95813302D01*
X166737396Y-95773950D01*
X166737397Y-95773950D01*
X166105088Y-95141642D01*
X166168673Y-95124605D01*
X166282687Y-95058779D01*
X166375779Y-94965687D01*
X166441605Y-94851673D01*
X166458642Y-94788089D01*
X167090950Y-95420397D01*
X167090950Y-95420396D01*
X167130302Y-95366234D01*
X167226775Y-95176897D01*
X167292437Y-94974810D01*
X167292437Y-94974807D01*
X167325680Y-94764926D01*
X167325680Y-94552433D01*
X167292437Y-94342552D01*
X167292437Y-94342549D01*
X167226775Y-94140462D01*
X167130304Y-93951129D01*
X167090950Y-93896962D01*
X167090949Y-93896962D01*
X166458642Y-94529270D01*
X166441605Y-94465687D01*
X166375779Y-94351673D01*
X166282687Y-94258581D01*
X166168673Y-94192755D01*
X166105089Y-94175717D01*
X166737396Y-93543408D01*
X166683227Y-93504053D01*
X166683227Y-93504052D01*
X166674180Y-93499443D01*
X166623386Y-93451468D01*
X166606592Y-93383646D01*
X166629131Y-93317512D01*
X166674188Y-93278473D01*
X166683496Y-93273731D01*
X166821148Y-93173722D01*
X166855466Y-93148789D01*
X166855468Y-93148786D01*
X166855472Y-93148784D01*
X167005784Y-92998472D01*
X167005786Y-92998468D01*
X167005789Y-92998466D01*
X167130728Y-92826500D01*
X167130727Y-92826500D01*
X167130731Y-92826496D01*
X167227237Y-92637092D01*
X167292926Y-92434923D01*
X167326180Y-92224967D01*
X167326180Y-92012393D01*
X167292926Y-91802437D01*
X167227237Y-91600268D01*
X167130731Y-91410864D01*
X167130729Y-91410861D01*
X167130728Y-91410859D01*
X167005789Y-91238893D01*
X166855466Y-91088570D01*
X166683500Y-90963631D01*
X166682795Y-90963271D01*
X166674734Y-90959165D01*
X166623939Y-90911192D01*
X166607143Y-90843372D01*
X166629679Y-90777236D01*
X166674734Y-90738195D01*
X166683496Y-90733731D01*
X166799072Y-90649761D01*
X166855466Y-90608789D01*
X166855468Y-90608786D01*
X166855472Y-90608784D01*
X167005784Y-90458472D01*
X167005786Y-90458468D01*
X167005789Y-90458466D01*
X167130728Y-90286500D01*
X167130727Y-90286500D01*
X167130731Y-90286496D01*
X167227237Y-90097092D01*
X167292926Y-89894923D01*
X167326180Y-89684967D01*
X167326180Y-89472393D01*
X167292926Y-89262437D01*
X167227237Y-89060268D01*
X167130731Y-88870864D01*
X167130729Y-88870861D01*
X167130728Y-88870859D01*
X167005789Y-88698893D01*
X166855466Y-88548570D01*
X166683500Y-88423631D01*
X166682795Y-88423271D01*
X166674734Y-88419165D01*
X166623939Y-88371192D01*
X166607143Y-88303372D01*
X166629679Y-88237236D01*
X166674734Y-88198195D01*
X166683496Y-88193731D01*
X166852509Y-88070937D01*
X166855466Y-88068789D01*
X166855468Y-88068786D01*
X166855472Y-88068784D01*
X167005784Y-87918472D01*
X167005786Y-87918468D01*
X167005789Y-87918466D01*
X167130728Y-87746500D01*
X167130727Y-87746500D01*
X167130731Y-87746496D01*
X167227237Y-87557092D01*
X167292926Y-87354923D01*
X167326180Y-87144967D01*
X167326180Y-86932393D01*
X167292926Y-86722437D01*
X167227237Y-86520268D01*
X167130731Y-86330864D01*
X167130729Y-86330861D01*
X167130728Y-86330859D01*
X167005789Y-86158893D01*
X166855466Y-86008570D01*
X166683500Y-85883631D01*
X166682795Y-85883271D01*
X166674734Y-85879165D01*
X166623939Y-85831192D01*
X166607143Y-85763372D01*
X166629679Y-85697236D01*
X166674734Y-85658195D01*
X166683496Y-85653731D01*
X166705469Y-85637766D01*
X166855466Y-85528789D01*
X166855468Y-85528786D01*
X166855472Y-85528784D01*
X167005784Y-85378472D01*
X167005786Y-85378468D01*
X167005789Y-85378466D01*
X167130728Y-85206500D01*
X167130727Y-85206500D01*
X167130731Y-85206496D01*
X167227237Y-85017092D01*
X167292926Y-84814923D01*
X167326180Y-84604967D01*
X167326180Y-84392393D01*
X167292926Y-84182437D01*
X167227237Y-83980268D01*
X167130731Y-83790864D01*
X167130729Y-83790861D01*
X167130728Y-83790859D01*
X167005789Y-83618893D01*
X166855466Y-83468570D01*
X166683500Y-83343631D01*
X166682795Y-83343271D01*
X166674734Y-83339165D01*
X166623939Y-83291192D01*
X166607143Y-83223372D01*
X166629679Y-83157236D01*
X166674734Y-83118195D01*
X166683496Y-83113731D01*
X166705469Y-83097766D01*
X166855466Y-82988789D01*
X166855468Y-82988786D01*
X166855472Y-82988784D01*
X167005784Y-82838472D01*
X167005786Y-82838468D01*
X167005789Y-82838466D01*
X167130728Y-82666500D01*
X167130727Y-82666500D01*
X167130731Y-82666496D01*
X167227237Y-82477092D01*
X167292926Y-82274923D01*
X167326180Y-82064967D01*
X167326180Y-81852393D01*
X167292926Y-81642437D01*
X167227237Y-81440268D01*
X167130731Y-81250864D01*
X167130729Y-81250861D01*
X167130728Y-81250859D01*
X167005789Y-81078893D01*
X166855466Y-80928570D01*
X166683500Y-80803631D01*
X166682795Y-80803271D01*
X166674734Y-80799165D01*
X166623939Y-80751192D01*
X166607143Y-80683372D01*
X166629679Y-80617236D01*
X166674734Y-80578195D01*
X166683496Y-80573731D01*
X166705469Y-80557766D01*
X166855466Y-80448789D01*
X166855468Y-80448786D01*
X166855472Y-80448784D01*
X167005784Y-80298472D01*
X167005786Y-80298468D01*
X167005789Y-80298466D01*
X167130728Y-80126500D01*
X167130727Y-80126500D01*
X167130731Y-80126496D01*
X167227237Y-79937092D01*
X167292926Y-79734923D01*
X167326180Y-79524967D01*
X167326180Y-79312393D01*
X167292926Y-79102437D01*
X167227237Y-78900268D01*
X167130731Y-78710864D01*
X167130729Y-78710861D01*
X167130728Y-78710859D01*
X167005789Y-78538893D01*
X166855466Y-78388570D01*
X166683500Y-78263631D01*
X166682795Y-78263271D01*
X166674734Y-78259165D01*
X166623939Y-78211192D01*
X166607143Y-78143372D01*
X166629679Y-78077236D01*
X166674734Y-78038195D01*
X166683496Y-78033731D01*
X166756054Y-77981015D01*
X166855466Y-77908789D01*
X166855468Y-77908786D01*
X166855472Y-77908784D01*
X167005784Y-77758472D01*
X167005786Y-77758468D01*
X167005789Y-77758466D01*
X167130728Y-77586500D01*
X167130727Y-77586500D01*
X167130731Y-77586496D01*
X167227237Y-77397092D01*
X167292926Y-77194923D01*
X167326180Y-76984967D01*
X167326180Y-76772393D01*
X167292926Y-76562437D01*
X167227237Y-76360268D01*
X167130731Y-76170864D01*
X167130729Y-76170861D01*
X167130728Y-76170859D01*
X167005789Y-75998893D01*
X166855466Y-75848570D01*
X166683500Y-75723631D01*
X166494094Y-75627124D01*
X166494093Y-75627123D01*
X166494092Y-75627123D01*
X166291923Y-75561434D01*
X166291921Y-75561433D01*
X166291920Y-75561433D01*
X166130637Y-75535888D01*
X166081967Y-75528180D01*
X165869393Y-75528180D01*
X165820722Y-75535888D01*
X165659440Y-75561433D01*
X165457265Y-75627124D01*
X165267859Y-75723631D01*
X165095895Y-75848569D01*
X164982353Y-75962111D01*
X164921030Y-75995595D01*
X164851338Y-75990611D01*
X164795405Y-75948739D01*
X164778490Y-75917762D01*
X164729477Y-75786351D01*
X164729473Y-75786344D01*
X164643227Y-75671135D01*
X164643224Y-75671132D01*
X164528015Y-75584886D01*
X164528008Y-75584882D01*
X164393162Y-75534588D01*
X164393163Y-75534588D01*
X164333563Y-75528181D01*
X164333561Y-75528180D01*
X164333553Y-75528180D01*
X164333544Y-75528180D01*
X162537809Y-75528180D01*
X162537803Y-75528181D01*
X162478196Y-75534588D01*
X162343351Y-75584882D01*
X162343344Y-75584886D01*
X162228135Y-75671132D01*
X162228132Y-75671135D01*
X162141886Y-75786344D01*
X162141882Y-75786351D01*
X162091588Y-75921197D01*
X162085181Y-75980796D01*
X162085180Y-75980815D01*
X162085180Y-77776550D01*
X162085181Y-77776556D01*
X162091588Y-77836163D01*
X162141882Y-77971008D01*
X162141886Y-77971015D01*
X162228132Y-78086224D01*
X162228135Y-78086227D01*
X162343344Y-78172473D01*
X162343351Y-78172477D01*
X162474762Y-78221490D01*
X162530696Y-78263361D01*
X162555113Y-78328825D01*
X162540262Y-78397098D01*
X162519111Y-78425353D01*
X162405569Y-78538895D01*
X162280631Y-78710859D01*
X162184124Y-78900265D01*
X162118433Y-79102440D01*
X162085180Y-79312393D01*
X162085180Y-79524966D01*
X162108964Y-79675136D01*
X162118434Y-79734923D01*
X162160240Y-79863589D01*
X162184124Y-79937094D01*
X162280631Y-80126500D01*
X162405570Y-80298466D01*
X162555893Y-80448789D01*
X162727862Y-80573730D01*
X162736626Y-80578196D01*
X162787422Y-80626171D01*
X162804216Y-80693992D01*
X162781678Y-80760127D01*
X162736626Y-80799164D01*
X162727862Y-80803629D01*
X162555893Y-80928570D01*
X162405570Y-81078893D01*
X162280631Y-81250859D01*
X162184124Y-81440265D01*
X162118433Y-81642440D01*
X162085180Y-81852393D01*
X162085180Y-82064967D01*
X162118434Y-82274923D01*
X162121683Y-82284923D01*
X162184124Y-82477094D01*
X162280631Y-82666500D01*
X162405570Y-82838466D01*
X162555893Y-82988789D01*
X162727862Y-83113730D01*
X162736626Y-83118196D01*
X162787422Y-83166171D01*
X162804216Y-83233992D01*
X162781678Y-83300127D01*
X162736626Y-83339164D01*
X162727862Y-83343629D01*
X162555893Y-83468570D01*
X162405570Y-83618893D01*
X162280631Y-83790859D01*
X162184124Y-83980265D01*
X162118433Y-84182440D01*
X162085180Y-84392393D01*
X162085180Y-84604967D01*
X162118434Y-84814923D01*
X162121683Y-84824923D01*
X162184124Y-85017094D01*
X162280631Y-85206500D01*
X162405570Y-85378466D01*
X162555893Y-85528789D01*
X162727862Y-85653730D01*
X162736626Y-85658196D01*
X162787422Y-85706171D01*
X162804216Y-85773992D01*
X162781678Y-85840127D01*
X162736626Y-85879164D01*
X162727862Y-85883629D01*
X162555893Y-86008570D01*
X162405570Y-86158893D01*
X162280631Y-86330859D01*
X162184124Y-86520265D01*
X162118433Y-86722440D01*
X162085180Y-86932393D01*
X162085180Y-87144967D01*
X162118434Y-87354923D01*
X162121683Y-87364923D01*
X162184124Y-87557094D01*
X162280631Y-87746500D01*
X162405570Y-87918466D01*
X162555893Y-88068789D01*
X162727862Y-88193730D01*
X162736626Y-88198196D01*
X162787422Y-88246171D01*
X162804216Y-88313992D01*
X162781678Y-88380127D01*
X162736626Y-88419164D01*
X162727862Y-88423629D01*
X162555893Y-88548570D01*
X162405570Y-88698893D01*
X162280631Y-88870859D01*
X162184124Y-89060265D01*
X162118433Y-89262440D01*
X162096881Y-89398515D01*
X162085180Y-89472393D01*
X162085180Y-89684967D01*
X162086626Y-89694098D01*
X162118433Y-89894920D01*
X162180474Y-90085862D01*
X162182469Y-90155703D01*
X162146389Y-90215536D01*
X162083688Y-90246364D01*
X162062543Y-90248180D01*
X153225878Y-90248180D01*
X153158839Y-90228495D01*
X153138197Y-90211861D01*
X152525399Y-89599063D01*
X152491914Y-89537740D01*
X152489080Y-89511382D01*
X152489080Y-89477712D01*
X152489079Y-89477708D01*
X152473328Y-89398522D01*
X152456396Y-89313398D01*
X152392283Y-89158617D01*
X152361117Y-89111974D01*
X152299206Y-89019317D01*
X152180742Y-88900853D01*
X152041440Y-88807775D01*
X151886662Y-88743664D01*
X151886654Y-88743662D01*
X151722351Y-88710980D01*
X151722347Y-88710980D01*
X151554813Y-88710980D01*
X151554808Y-88710980D01*
X151390505Y-88743662D01*
X151390497Y-88743664D01*
X151235719Y-88807775D01*
X151096417Y-88900853D01*
X150977953Y-89019317D01*
X150884875Y-89158619D01*
X150820764Y-89313397D01*
X150820762Y-89313405D01*
X150788080Y-89477708D01*
X150788080Y-89645251D01*
X150820762Y-89809554D01*
X150820764Y-89809562D01*
X150884875Y-89964340D01*
X150977953Y-90103642D01*
X151096417Y-90222106D01*
X151135440Y-90248180D01*
X151235717Y-90315183D01*
X151390498Y-90379296D01*
X151525222Y-90406094D01*
X151554808Y-90411979D01*
X151554812Y-90411980D01*
X151554813Y-90411980D01*
X151588483Y-90411980D01*
X151655522Y-90431665D01*
X151676163Y-90448298D01*
X152557064Y-91329200D01*
X152557066Y-91329201D01*
X152557070Y-91329204D01*
X152693989Y-91408253D01*
X152693996Y-91408257D01*
X152846723Y-91449181D01*
X152846725Y-91449181D01*
X153012434Y-91449181D01*
X153012450Y-91449180D01*
X162062543Y-91449180D01*
X162129582Y-91468865D01*
X162175337Y-91521669D01*
X162185281Y-91590827D01*
X162180474Y-91611498D01*
X162118433Y-91802439D01*
X162089287Y-91986462D01*
X162085180Y-92012393D01*
X162085180Y-92224967D01*
X162118434Y-92434923D01*
X162175541Y-92610680D01*
X162184124Y-92637094D01*
X162280631Y-92826500D01*
X162405570Y-92998466D01*
X162555893Y-93148789D01*
X162727862Y-93273730D01*
X162736626Y-93278196D01*
X162787422Y-93326171D01*
X162804216Y-93393992D01*
X162781678Y-93460127D01*
X162736626Y-93499164D01*
X162727862Y-93503629D01*
X162555893Y-93628570D01*
X162405570Y-93778893D01*
X162280631Y-93950859D01*
X162184124Y-94140265D01*
X162184123Y-94140267D01*
X162184123Y-94140268D01*
X162123709Y-94326199D01*
X162084274Y-94383874D01*
X162019915Y-94411072D01*
X162005780Y-94411880D01*
X151761331Y-94411880D01*
X151694292Y-94392195D01*
X151673650Y-94375561D01*
X151649842Y-94351753D01*
X151510540Y-94258675D01*
X151355762Y-94194564D01*
X151355754Y-94194562D01*
X151191451Y-94161880D01*
X151191447Y-94161880D01*
X151023913Y-94161880D01*
X151023908Y-94161880D01*
X150859605Y-94194562D01*
X150859597Y-94194564D01*
X150704819Y-94258675D01*
X150565517Y-94351753D01*
X150447053Y-94470217D01*
X150353975Y-94609519D01*
X150289864Y-94764297D01*
X150289862Y-94764305D01*
X150257180Y-94928608D01*
X150257180Y-95096151D01*
X150289650Y-95259389D01*
X150283423Y-95328981D01*
X150240560Y-95384158D01*
X150174670Y-95407402D01*
X150168033Y-95407580D01*
X149388950Y-95407580D01*
X149388934Y-95407579D01*
X149381338Y-95407579D01*
X149223223Y-95407579D01*
X149171385Y-95421469D01*
X149101535Y-95419806D01*
X149051611Y-95389375D01*
X144430870Y-90768635D01*
X144430868Y-90768632D01*
X144311997Y-90649761D01*
X144311996Y-90649760D01*
X144225184Y-90599640D01*
X144175065Y-90570703D01*
X144070227Y-90542611D01*
X144064390Y-90540398D01*
X144047566Y-90527662D01*
X144020668Y-90512132D01*
X143975953Y-90467417D01*
X143942468Y-90406094D01*
X143947452Y-90336402D01*
X143975953Y-90292055D01*
X144088536Y-90179471D01*
X144088539Y-90179468D01*
X144180522Y-90041806D01*
X144243880Y-89888845D01*
X144276180Y-89726462D01*
X144276180Y-89560898D01*
X144276180Y-89560895D01*
X144276179Y-89560893D01*
X144243882Y-89398522D01*
X144243879Y-89398513D01*
X144180525Y-89245560D01*
X144180518Y-89245547D01*
X144088539Y-89107892D01*
X144088536Y-89107888D01*
X143971471Y-88990823D01*
X143971467Y-88990820D01*
X143833812Y-88898841D01*
X143833799Y-88898834D01*
X143680846Y-88835480D01*
X143680837Y-88835477D01*
X143518465Y-88803180D01*
X143518462Y-88803180D01*
X143352898Y-88803180D01*
X143352893Y-88803180D01*
X143277790Y-88818119D01*
X143208198Y-88811892D01*
X143165918Y-88784183D01*
X142422070Y-88040335D01*
X142422068Y-88040332D01*
X142303197Y-87921461D01*
X142303196Y-87921460D01*
X142216384Y-87871340D01*
X142216384Y-87871339D01*
X142216380Y-87871338D01*
X142166265Y-87842403D01*
X142013537Y-87801479D01*
X141855423Y-87801479D01*
X141847827Y-87801479D01*
X141847811Y-87801480D01*
X134210160Y-87801480D01*
X134143121Y-87781795D01*
X134097366Y-87728991D01*
X134087422Y-87659833D01*
X134099675Y-87621185D01*
X134127237Y-87567092D01*
X134192926Y-87364923D01*
X134226180Y-87154967D01*
X134226180Y-86942393D01*
X134192926Y-86732437D01*
X134127237Y-86530268D01*
X134030731Y-86340864D01*
X134030729Y-86340861D01*
X134030728Y-86340859D01*
X133905789Y-86168893D01*
X133755466Y-86018570D01*
X133583500Y-85893631D01*
X133582795Y-85893271D01*
X133574734Y-85889165D01*
X133523939Y-85841192D01*
X133507143Y-85773372D01*
X133529679Y-85707236D01*
X133574734Y-85668195D01*
X133583496Y-85663731D01*
X133605469Y-85647766D01*
X133755466Y-85538789D01*
X133755468Y-85538786D01*
X133755472Y-85538784D01*
X133905784Y-85388472D01*
X133905786Y-85388468D01*
X133905789Y-85388466D01*
X134030728Y-85216500D01*
X134030727Y-85216500D01*
X134030731Y-85216496D01*
X134127237Y-85027092D01*
X134192926Y-84824923D01*
X134226180Y-84614967D01*
X134226180Y-84402393D01*
X134192926Y-84192437D01*
X134127237Y-83990268D01*
X134030731Y-83800864D01*
X134030729Y-83800861D01*
X134030728Y-83800859D01*
X133905789Y-83628893D01*
X133755466Y-83478570D01*
X133583500Y-83353631D01*
X133582795Y-83353271D01*
X133574734Y-83349165D01*
X133523939Y-83301192D01*
X133507143Y-83233372D01*
X133529679Y-83167236D01*
X133574734Y-83128195D01*
X133583496Y-83123731D01*
X133605469Y-83107766D01*
X133755466Y-82998789D01*
X133755468Y-82998786D01*
X133755472Y-82998784D01*
X133905784Y-82848472D01*
X133905786Y-82848468D01*
X133905789Y-82848466D01*
X134030728Y-82676500D01*
X134030727Y-82676500D01*
X134030731Y-82676496D01*
X134127237Y-82487092D01*
X134192926Y-82284923D01*
X134226180Y-82074967D01*
X134226180Y-81862393D01*
X134192926Y-81652437D01*
X134127237Y-81450268D01*
X134030731Y-81260864D01*
X134030729Y-81260861D01*
X134030728Y-81260859D01*
X133905789Y-81088893D01*
X133755466Y-80938570D01*
X133583500Y-80813631D01*
X133582795Y-80813271D01*
X133574734Y-80809165D01*
X133523939Y-80761192D01*
X133507143Y-80693372D01*
X133529679Y-80627236D01*
X133574734Y-80588195D01*
X133583496Y-80583731D01*
X133605469Y-80567766D01*
X133755466Y-80458789D01*
X133755468Y-80458786D01*
X133755472Y-80458784D01*
X133905784Y-80308472D01*
X133905786Y-80308468D01*
X133905789Y-80308466D01*
X134030728Y-80136500D01*
X134030727Y-80136500D01*
X134030731Y-80136496D01*
X134127237Y-79947092D01*
X134129101Y-79942592D01*
X134130431Y-79943143D01*
X134166224Y-79890791D01*
X134230581Y-79863589D01*
X134244723Y-79862780D01*
X134343164Y-79862780D01*
X134343165Y-79862779D01*
X134397289Y-79852013D01*
X134505537Y-79830482D01*
X134505540Y-79830480D01*
X134505545Y-79830480D01*
X134658506Y-79767122D01*
X134796168Y-79675139D01*
X134913239Y-79558068D01*
X135005222Y-79420406D01*
X135068580Y-79267445D01*
X135100880Y-79105062D01*
X135100880Y-78939498D01*
X135100880Y-78939495D01*
X135100879Y-78939493D01*
X135068582Y-78777122D01*
X135068579Y-78777113D01*
X135005225Y-78624160D01*
X135005218Y-78624147D01*
X134913239Y-78486492D01*
X134913236Y-78486488D01*
X134796171Y-78369423D01*
X134796167Y-78369420D01*
X134658512Y-78277441D01*
X134658499Y-78277434D01*
X134505546Y-78214080D01*
X134505537Y-78214077D01*
X134343165Y-78181780D01*
X134343162Y-78181780D01*
X134320477Y-78181780D01*
X134253438Y-78162095D01*
X134232796Y-78145461D01*
X133986670Y-77899335D01*
X133979601Y-77892266D01*
X133979600Y-77892264D01*
X133959278Y-77871942D01*
X133925796Y-77810621D01*
X133929262Y-77762168D01*
X133930781Y-77740931D01*
X133946645Y-77711380D01*
X134030300Y-77596237D01*
X134126775Y-77406897D01*
X134192437Y-77204810D01*
X134192437Y-77204807D01*
X134225680Y-76994926D01*
X134225680Y-76782433D01*
X134192437Y-76572552D01*
X134192437Y-76572549D01*
X134126775Y-76370462D01*
X134030304Y-76181129D01*
X133990950Y-76126962D01*
X133990949Y-76126962D01*
X133358642Y-76759269D01*
X133341605Y-76695687D01*
X133275779Y-76581673D01*
X133182687Y-76488581D01*
X133068673Y-76422755D01*
X133005089Y-76405717D01*
X133637396Y-75773408D01*
X133583230Y-75734055D01*
X133393897Y-75637584D01*
X133191809Y-75571922D01*
X132981926Y-75538680D01*
X132769434Y-75538680D01*
X132559552Y-75571922D01*
X132559549Y-75571922D01*
X132357462Y-75637584D01*
X132168119Y-75734060D01*
X132113962Y-75773407D01*
X132113962Y-75773408D01*
X132746271Y-76405717D01*
X132682687Y-76422755D01*
X132568673Y-76488581D01*
X132475581Y-76581673D01*
X132409755Y-76695687D01*
X132392717Y-76759271D01*
X131722498Y-76089052D01*
X131689013Y-76027729D01*
X131689010Y-76027716D01*
X131686179Y-76014695D01*
X131686179Y-75990808D01*
X131679771Y-75931197D01*
X131651606Y-75855682D01*
X131629478Y-75796353D01*
X131629473Y-75796344D01*
X131543227Y-75681135D01*
X131543224Y-75681132D01*
X131428015Y-75594886D01*
X131428008Y-75594882D01*
X131293162Y-75544588D01*
X131293163Y-75544588D01*
X131233563Y-75538181D01*
X131233561Y-75538180D01*
X131233553Y-75538180D01*
X131233544Y-75538180D01*
X129437809Y-75538180D01*
X129437803Y-75538181D01*
X129378196Y-75544588D01*
X129243351Y-75594882D01*
X129243344Y-75594886D01*
X129128135Y-75681132D01*
X129128132Y-75681135D01*
X129041886Y-75796344D01*
X129041882Y-75796351D01*
X128991588Y-75931197D01*
X128985181Y-75990796D01*
X128985180Y-75990815D01*
X128985180Y-77786550D01*
X128985181Y-77786556D01*
X128991588Y-77846163D01*
X129041882Y-77981008D01*
X129041886Y-77981015D01*
X129128132Y-78096224D01*
X129128135Y-78096227D01*
X129243344Y-78182473D01*
X129243351Y-78182477D01*
X129374762Y-78231490D01*
X129430696Y-78273361D01*
X129455113Y-78338825D01*
X129440262Y-78407098D01*
X129419111Y-78435353D01*
X129305569Y-78548895D01*
X129180631Y-78720859D01*
X129084124Y-78910265D01*
X129018433Y-79112440D01*
X128985180Y-79322393D01*
X128985180Y-79534966D01*
X129016849Y-79734919D01*
X129018434Y-79744923D01*
X129080874Y-79937094D01*
X129084124Y-79947094D01*
X129180631Y-80136500D01*
X129305570Y-80308466D01*
X129455893Y-80458789D01*
X129627862Y-80583730D01*
X129636626Y-80588196D01*
X129687422Y-80636171D01*
X129704216Y-80703992D01*
X129681678Y-80770127D01*
X129636626Y-80809164D01*
X129627862Y-80813629D01*
X129455893Y-80938570D01*
X129305570Y-81088893D01*
X129180631Y-81260859D01*
X129084124Y-81450265D01*
X129018433Y-81652440D01*
X128985180Y-81862393D01*
X128985180Y-82074966D01*
X129016849Y-82274919D01*
X129018434Y-82284923D01*
X129080874Y-82477094D01*
X129084124Y-82487094D01*
X129180631Y-82676500D01*
X129305570Y-82848466D01*
X129455893Y-82998789D01*
X129627862Y-83123730D01*
X129636626Y-83128196D01*
X129687422Y-83176171D01*
X129704216Y-83243992D01*
X129681678Y-83310127D01*
X129636626Y-83349164D01*
X129627862Y-83353629D01*
X129455893Y-83478570D01*
X129305570Y-83628893D01*
X129180631Y-83800859D01*
X129084124Y-83990265D01*
X129018433Y-84192440D01*
X128985180Y-84402393D01*
X128985180Y-84614966D01*
X129016849Y-84814919D01*
X129018434Y-84824923D01*
X129080874Y-85017094D01*
X129084124Y-85027094D01*
X129180631Y-85216500D01*
X129305570Y-85388466D01*
X129455893Y-85538789D01*
X129627862Y-85663730D01*
X129636626Y-85668196D01*
X129687422Y-85716171D01*
X129704216Y-85783992D01*
X129681678Y-85850127D01*
X129636626Y-85889164D01*
X129627862Y-85893629D01*
X129455893Y-86018570D01*
X129305570Y-86168893D01*
X129180631Y-86340859D01*
X129084124Y-86530265D01*
X129018433Y-86732440D01*
X128985180Y-86942393D01*
X128985180Y-87154966D01*
X129016849Y-87354919D01*
X129018434Y-87364923D01*
X129080874Y-87557094D01*
X129084124Y-87567094D01*
X129180628Y-87756495D01*
X129292424Y-87910371D01*
X129315903Y-87976178D01*
X129300077Y-88044232D01*
X129279786Y-88070937D01*
X128757405Y-88593318D01*
X128757397Y-88593326D01*
X128754566Y-88596158D01*
X128754564Y-88596160D01*
X128642760Y-88707964D01*
X128622149Y-88743664D01*
X128616019Y-88754279D01*
X128616018Y-88754282D01*
X128569139Y-88835480D01*
X128563703Y-88844895D01*
X128522779Y-88997623D01*
X128522779Y-88997625D01*
X128522779Y-89165726D01*
X128522780Y-89165739D01*
X128522780Y-93369610D01*
X128522779Y-93369628D01*
X128522779Y-93535334D01*
X128522778Y-93535334D01*
X128563704Y-93688067D01*
X128574420Y-93706627D01*
X128574421Y-93706629D01*
X128642757Y-93824992D01*
X128642761Y-93824997D01*
X128761629Y-93943865D01*
X128761635Y-93943870D01*
X129001921Y-94184156D01*
X129035406Y-94245479D01*
X129032172Y-94310153D01*
X129018433Y-94352437D01*
X128985180Y-94562393D01*
X128985180Y-94774967D01*
X128990871Y-94810898D01*
X129017094Y-94976466D01*
X129018434Y-94984923D01*
X129080810Y-95176897D01*
X129084124Y-95187094D01*
X129180631Y-95376500D01*
X129305570Y-95548466D01*
X129455893Y-95698789D01*
X129627862Y-95823730D01*
X129636626Y-95828196D01*
X129687422Y-95876171D01*
X129704216Y-95943992D01*
X129681678Y-96010127D01*
X129636626Y-96049164D01*
X129627862Y-96053629D01*
X129455893Y-96178570D01*
X129305570Y-96328893D01*
X129180631Y-96500859D01*
X129084124Y-96690265D01*
X129018433Y-96892440D01*
X128985180Y-97102393D01*
X128985180Y-97314966D01*
X129016849Y-97514919D01*
X129018434Y-97524923D01*
X129080874Y-97717094D01*
X129084124Y-97727094D01*
X129180631Y-97916500D01*
X129305570Y-98088466D01*
X129455893Y-98238789D01*
X129627859Y-98363728D01*
X129627861Y-98363729D01*
X129627864Y-98363731D01*
X129817268Y-98460237D01*
X130019437Y-98525926D01*
X130229393Y-98559180D01*
X130229394Y-98559180D01*
X130441966Y-98559180D01*
X130441967Y-98559180D01*
X130651923Y-98525926D01*
X130854092Y-98460237D01*
X131043496Y-98363731D01*
X131196774Y-98252369D01*
X131214168Y-98239732D01*
X131279974Y-98216252D01*
X131348028Y-98232078D01*
X131374734Y-98252369D01*
X132478684Y-99356319D01*
X132512169Y-99417642D01*
X132507185Y-99487334D01*
X132465313Y-99543267D01*
X132399849Y-99567684D01*
X132391003Y-99568000D01*
X126600180Y-99568000D01*
X126533141Y-99548315D01*
X126487386Y-99495511D01*
X126476180Y-99444000D01*
X126476180Y-77317160D01*
X126476375Y-77310207D01*
X126489211Y-77081673D01*
X126492766Y-77018376D01*
X126494320Y-77004578D01*
X126542698Y-76719855D01*
X126545792Y-76706299D01*
X126548849Y-76695687D01*
X126625748Y-76428769D01*
X126630328Y-76415678D01*
X126740860Y-76148835D01*
X126746887Y-76136322D01*
X126886593Y-75883543D01*
X126893981Y-75871788D01*
X127061108Y-75636245D01*
X127069754Y-75625402D01*
X127262220Y-75410032D01*
X127272032Y-75400220D01*
X127487402Y-75207754D01*
X127498245Y-75199108D01*
X127733788Y-75031981D01*
X127745543Y-75024593D01*
X127998329Y-74884883D01*
X128010835Y-74878860D01*
X128277678Y-74768328D01*
X128290769Y-74763748D01*
X128568300Y-74683791D01*
X128581856Y-74680698D01*
X128866578Y-74632320D01*
X128880376Y-74630766D01*
X129147962Y-74615736D01*
X129172211Y-74614375D01*
X129179164Y-74614180D01*
X129223277Y-74614180D01*
X167503084Y-74614180D01*
X167503087Y-74614181D01*
G37*
%TD.AperFunction*%
%TA.AperFunction,Conductor*%
G36*
X146003714Y-97444094D02*
G01*
X146059648Y-97485966D01*
X146084064Y-97551431D01*
X146084380Y-97560276D01*
X146084380Y-98599283D01*
X146064695Y-98666322D01*
X146048061Y-98686964D01*
X144507864Y-100227161D01*
X144446541Y-100260646D01*
X144420183Y-100263480D01*
X144397495Y-100263480D01*
X144235122Y-100295777D01*
X144235113Y-100295780D01*
X144082160Y-100359134D01*
X144082147Y-100359141D01*
X143944492Y-100451120D01*
X143944488Y-100451123D01*
X143827423Y-100568188D01*
X143827420Y-100568192D01*
X143735441Y-100705847D01*
X143735434Y-100705860D01*
X143672080Y-100858813D01*
X143672077Y-100858822D01*
X143639780Y-101021193D01*
X143639780Y-101043882D01*
X143620095Y-101110921D01*
X143603461Y-101131563D01*
X142306361Y-102428662D01*
X142306360Y-102428664D01*
X142268082Y-102494964D01*
X142248100Y-102529574D01*
X142228121Y-102564179D01*
X142227303Y-102565595D01*
X142186379Y-102718323D01*
X142186379Y-102718325D01*
X142186379Y-102886426D01*
X142186380Y-102886439D01*
X142186380Y-103294710D01*
X142186379Y-103294728D01*
X142186379Y-103460434D01*
X142186378Y-103460434D01*
X142227304Y-103613169D01*
X142227305Y-103613170D01*
X142249250Y-103651179D01*
X142249251Y-103651180D01*
X142306357Y-103750092D01*
X142306361Y-103750097D01*
X142425229Y-103868965D01*
X142425235Y-103868970D01*
X145632764Y-107076499D01*
X145666249Y-107137822D01*
X145661265Y-107207514D01*
X145619393Y-107263447D01*
X145553929Y-107287864D01*
X145545083Y-107288180D01*
X143159938Y-107288180D01*
X143092899Y-107268495D01*
X143047144Y-107215691D01*
X143038321Y-107188371D01*
X143014382Y-107068022D01*
X143014379Y-107068013D01*
X142951025Y-106915060D01*
X142951018Y-106915047D01*
X142859039Y-106777392D01*
X142859036Y-106777388D01*
X142741971Y-106660323D01*
X142741967Y-106660320D01*
X142604312Y-106568341D01*
X142604299Y-106568334D01*
X142451346Y-106504980D01*
X142451338Y-106504978D01*
X142306478Y-106476163D01*
X142244567Y-106443778D01*
X142209993Y-106383062D01*
X142213734Y-106313292D01*
X142227566Y-106285657D01*
X142236822Y-106271806D01*
X142239150Y-106266187D01*
X142248257Y-106244200D01*
X142300180Y-106118845D01*
X142301029Y-106114580D01*
X142332479Y-105956466D01*
X142332480Y-105956464D01*
X142332480Y-105790895D01*
X142332479Y-105790893D01*
X142300182Y-105628522D01*
X142300179Y-105628513D01*
X142236825Y-105475560D01*
X142236818Y-105475547D01*
X142144839Y-105337892D01*
X142144836Y-105337888D01*
X142128799Y-105321851D01*
X142095314Y-105260528D01*
X142092480Y-105234170D01*
X142092480Y-105027824D01*
X142092480Y-105027823D01*
X142085421Y-105001480D01*
X142072834Y-104954503D01*
X142051557Y-104875096D01*
X142031923Y-104841089D01*
X141972504Y-104738170D01*
X141972501Y-104738166D01*
X141972500Y-104738164D01*
X141860696Y-104626360D01*
X141860695Y-104626359D01*
X141856365Y-104622029D01*
X141856354Y-104622019D01*
X136152570Y-98918235D01*
X136152568Y-98918232D01*
X136033697Y-98799361D01*
X136033696Y-98799360D01*
X135946884Y-98749240D01*
X135946884Y-98749239D01*
X135946880Y-98749238D01*
X135896765Y-98720303D01*
X135744037Y-98679379D01*
X135585923Y-98679379D01*
X135578327Y-98679379D01*
X135578311Y-98679380D01*
X133551577Y-98679380D01*
X133522136Y-98670735D01*
X133492150Y-98664212D01*
X133487134Y-98660457D01*
X133484538Y-98659695D01*
X133463896Y-98643061D01*
X133439903Y-98619068D01*
X133406418Y-98557745D01*
X133411402Y-98488053D01*
X133453274Y-98432120D01*
X133471283Y-98420905D01*
X133583496Y-98363731D01*
X133736774Y-98252369D01*
X133755466Y-98238789D01*
X133755468Y-98238786D01*
X133755472Y-98238784D01*
X133905784Y-98088472D01*
X133905786Y-98088468D01*
X133905789Y-98088466D01*
X133964341Y-98007873D01*
X134030731Y-97916496D01*
X134031029Y-97915910D01*
X134050915Y-97876885D01*
X134098889Y-97826089D01*
X134161399Y-97809180D01*
X145200711Y-97809180D01*
X145200727Y-97809181D01*
X145208323Y-97809181D01*
X145366434Y-97809181D01*
X145366437Y-97809181D01*
X145519165Y-97768257D01*
X145569284Y-97739319D01*
X145656096Y-97689200D01*
X145767900Y-97577396D01*
X145767901Y-97577393D01*
X145872702Y-97472592D01*
X145934023Y-97439110D01*
X146003714Y-97444094D01*
G37*
%TD.AperFunction*%
%TA.AperFunction,Conductor*%
G36*
X164777124Y-92772679D02*
G01*
X164816166Y-92817736D01*
X164820631Y-92826500D01*
X164945570Y-92998466D01*
X165095893Y-93148789D01*
X165267859Y-93273728D01*
X165267861Y-93273729D01*
X165267864Y-93273731D01*
X165277173Y-93278474D01*
X165327970Y-93326446D01*
X165344767Y-93394267D01*
X165322232Y-93460402D01*
X165277185Y-93499440D01*
X165268126Y-93504056D01*
X165268120Y-93504060D01*
X165213962Y-93543407D01*
X165213962Y-93543408D01*
X165846271Y-94175717D01*
X165782687Y-94192755D01*
X165668673Y-94258581D01*
X165575581Y-94351673D01*
X165509755Y-94465687D01*
X165492717Y-94529271D01*
X164860408Y-93896962D01*
X164860407Y-93896962D01*
X164821060Y-93951120D01*
X164821056Y-93951126D01*
X164816440Y-93960185D01*
X164768461Y-94010977D01*
X164700639Y-94027767D01*
X164634506Y-94005223D01*
X164595474Y-93960173D01*
X164590731Y-93950864D01*
X164590729Y-93950861D01*
X164590728Y-93950859D01*
X164465789Y-93778893D01*
X164315466Y-93628570D01*
X164143500Y-93503631D01*
X164139639Y-93501664D01*
X164134734Y-93499165D01*
X164083939Y-93451192D01*
X164067143Y-93383372D01*
X164089679Y-93317236D01*
X164134734Y-93278195D01*
X164143496Y-93273731D01*
X164281148Y-93173722D01*
X164315466Y-93148789D01*
X164315468Y-93148786D01*
X164315472Y-93148784D01*
X164465784Y-92998472D01*
X164465786Y-92998468D01*
X164465789Y-92998466D01*
X164590728Y-92826500D01*
X164590727Y-92826500D01*
X164590731Y-92826496D01*
X164595194Y-92817734D01*
X164643168Y-92766939D01*
X164710988Y-92750143D01*
X164777124Y-92772679D01*
G37*
%TD.AperFunction*%
%TD*%
M02*
